<svg xmlns="http://www.w3.org/2000/svg" width="1432" height="576" viewBox="0 0 1432 576"><defs><style>.cls-1{fill:#f5f7fb;}.cls-2{fill:#fff;}.cls-18,.cls-3,.cls-6{font-size:20px;}.cls-3,.cls-6{font-family:Pretendard-Light-KSCpc-EUC-H, Pretendard;}.cls-4{letter-spacing:-0.02em;}.cls-5{letter-spacing:-0.04em;}.cls-6{letter-spacing:-0.01em;}.cls-7{letter-spacing:-0.03em;}.cls-8{letter-spacing:-0.01em;}.cls-9{letter-spacing:0em;}.cls-10{letter-spacing:-0.03em;}.cls-11{letter-spacing:-0.04em;}.cls-12{letter-spacing:-0.01em;}.cls-13{letter-spacing:-0.01em;}.cls-14{letter-spacing:-0.01em;}.cls-15{letter-spacing:-0.02em;}.cls-16{letter-spacing:-0.13em;}.cls-17{fill:#dff2f1;}.cls-18{font-family:Pretendard-Medium-KSCpc-EUC-H, Pretendard;}.cls-19{letter-spacing:-0.01em;}.cls-20{letter-spacing:-0.02em;}.cls-21{letter-spacing:-0.03em;}.cls-22{letter-spacing:-0.02em;}.cls-23{fill:#0aa899;fill-rule:evenodd;}.cls-24{fill:#dcdddd;}</style></defs><title>자산 63</title><g id="레이어_2" data-name="레이어 2"><g id="레이어_1-2" data-name="레이어 1"><rect class="cls-1" y="64" width="1432" height="64"/><rect class="cls-2" width="1432" height="64"/><text class="cls-3" transform="translate(52 103.33)">cont<tspan class="cls-4" x="39.34" y="0">r</tspan><tspan x="45.67" y="0">olle</tspan><tspan class="cls-5" x="76.24" y="0">r</tspan><tspan x="82.16" y="0">-1</tspan></text><text class="cls-3" transform="translate(267.69 103.33)">d0:94:66:12:e6:f2</text><text class="cls-3" transform="translate(483.38 103.33)">CONTROLLER</text><text class="cls-3" transform="translate(699.08 103.33)">2</text><text class="cls-6" transform="translate(914.77 103.33)">02:13:<tspan class="cls-7" x="52.65" y="0">2</tspan><tspan class="cls-8" x="63.92" y="0">4 up 1 </tspan><tspan class="cls-9" x="119.91" y="0">d</tspan><tspan class="cls-10" x="131.58" y="0">a</tspan><tspan class="cls-11" x="141.52" y="0">y</tspan><tspan class="cls-12" x="150.98" y="0">,</tspan><tspan x="155.77" y="0" xml:space="preserve"> 0 users</tspan><tspan class="cls-13" x="223.46" y="0">,</tspan><tspan class="cls-8" x="228.24" y="0" xml:space="preserve"> load </tspan><tspan class="cls-10" x="274.25" y="0">av</tspan><tspan x="293.93" y="0">e</tspan><tspan class="cls-14" x="304.7" y="0">r</tspan><tspan class="cls-8" x="311.17" y="0">age: 2</tspan><tspan class="cls-15" x="364.39" y="0">.</tspan><tspan x="368.9" y="0">5</tspan><tspan class="cls-11" x="380.38" y="0">6</tspan><tspan class="cls-13" x="391.5" y="0">,</tspan><tspan class="cls-8" x="396.28" y="0" xml:space="preserve"> 2.4</tspan><tspan class="cls-16" x="429.16" y="0">7</tspan><tspan class="cls-12" x="437.38" y="0">,</tspan><tspan x="442.16" y="0" xml:space="preserve"> 2.40</tspan></text><rect class="cls-2" y="128" width="1432" height="64"/><text class="cls-3" transform="translate(52 167.33)">cont<tspan class="cls-4" x="39.34" y="0">r</tspan><tspan x="45.67" y="0">olle</tspan><tspan class="cls-5" x="76.24" y="0">r</tspan><tspan x="82.16" y="0">-1</tspan></text><text class="cls-3" transform="translate(267.69 167.33)">d0:94:66:12:e6:f2</text><text class="cls-3" transform="translate(483.38 167.33)">CONTROLLER</text><text class="cls-3" transform="translate(699.08 167.33)">2</text><text class="cls-6" transform="translate(914.77 167.33)">02:13:<tspan class="cls-7" x="52.65" y="0">2</tspan><tspan class="cls-8" x="63.92" y="0">4 up 1 </tspan><tspan class="cls-9" x="119.91" y="0">d</tspan><tspan class="cls-10" x="131.58" y="0">a</tspan><tspan class="cls-11" x="141.52" y="0">y</tspan><tspan class="cls-12" x="150.98" y="0">,</tspan><tspan x="155.77" y="0" xml:space="preserve"> 0 users</tspan><tspan class="cls-13" x="223.46" y="0">,</tspan><tspan class="cls-8" x="228.24" y="0" xml:space="preserve"> load </tspan><tspan class="cls-10" x="274.25" y="0">av</tspan><tspan x="293.93" y="0">e</tspan><tspan class="cls-14" x="304.7" y="0">r</tspan><tspan class="cls-8" x="311.17" y="0">age: 2</tspan><tspan class="cls-15" x="364.39" y="0">.</tspan><tspan x="368.9" y="0">5</tspan><tspan class="cls-11" x="380.38" y="0">6</tspan><tspan class="cls-13" x="391.5" y="0">,</tspan><tspan class="cls-8" x="396.28" y="0" xml:space="preserve"> 2.4</tspan><tspan class="cls-16" x="429.16" y="0">7</tspan><tspan class="cls-12" x="437.38" y="0">,</tspan><tspan x="442.16" y="0" xml:space="preserve"> 2.40</tspan></text><rect class="cls-17" y="192" width="1432" height="64"/><text class="cls-3" transform="translate(52 231.33)">cont<tspan class="cls-4" x="39.34" y="0">r</tspan><tspan x="45.67" y="0">olle</tspan><tspan class="cls-5" x="76.24" y="0">r</tspan><tspan x="82.16" y="0">-1</tspan></text><text class="cls-3" transform="translate(267.69 231.33)">d0:94:66:12:e6:f2</text><text class="cls-3" transform="translate(483.38 231.33)">CONTROLLER</text><text class="cls-3" transform="translate(699.08 231.33)">2</text><text class="cls-6" transform="translate(914.77 231.33)">02:13:<tspan class="cls-7" x="52.65" y="0">2</tspan><tspan class="cls-8" x="63.92" y="0">4 up 1 </tspan><tspan class="cls-9" x="119.91" y="0">d</tspan><tspan class="cls-10" x="131.58" y="0">a</tspan><tspan class="cls-11" x="141.52" y="0">y</tspan><tspan class="cls-12" x="150.98" y="0">,</tspan><tspan x="155.77" y="0" xml:space="preserve"> 0 users</tspan><tspan class="cls-13" x="223.46" y="0">,</tspan><tspan class="cls-8" x="228.24" y="0" xml:space="preserve"> load </tspan><tspan class="cls-10" x="274.25" y="0">av</tspan><tspan x="293.93" y="0">e</tspan><tspan class="cls-14" x="304.7" y="0">r</tspan><tspan class="cls-8" x="311.17" y="0">age: 2</tspan><tspan class="cls-15" x="364.39" y="0">.</tspan><tspan x="368.9" y="0">5</tspan><tspan class="cls-11" x="380.38" y="0">6</tspan><tspan class="cls-13" x="391.5" y="0">,</tspan><tspan class="cls-8" x="396.28" y="0" xml:space="preserve"> 2.4</tspan><tspan class="cls-16" x="429.16" y="0">7</tspan><tspan class="cls-12" x="437.38" y="0">,</tspan><tspan x="442.16" y="0" xml:space="preserve"> 2.40</tspan></text><rect class="cls-2" y="256" width="1432" height="64"/><text class="cls-3" transform="translate(52 295.33)">cont<tspan class="cls-4" x="39.34" y="0">r</tspan><tspan x="45.67" y="0">olle</tspan><tspan class="cls-5" x="76.24" y="0">r</tspan><tspan x="82.16" y="0">-1</tspan></text><text class="cls-3" transform="translate(267.69 295.33)">d0:94:66:12:e6:f2</text><text class="cls-3" transform="translate(483.38 295.33)">CONTROLLER</text><text class="cls-3" transform="translate(699.08 295.33)">2</text><text class="cls-6" transform="translate(914.77 295.33)">02:13:<tspan class="cls-7" x="52.65" y="0">2</tspan><tspan class="cls-8" x="63.92" y="0">4 up 1 </tspan><tspan class="cls-9" x="119.91" y="0">d</tspan><tspan class="cls-10" x="131.58" y="0">a</tspan><tspan class="cls-11" x="141.52" y="0">y</tspan><tspan class="cls-12" x="150.98" y="0">,</tspan><tspan x="155.77" y="0" xml:space="preserve"> 0 users</tspan><tspan class="cls-13" x="223.46" y="0">,</tspan><tspan class="cls-8" x="228.24" y="0" xml:space="preserve"> load </tspan><tspan class="cls-10" x="274.25" y="0">av</tspan><tspan x="293.93" y="0">e</tspan><tspan class="cls-14" x="304.7" y="0">r</tspan><tspan class="cls-8" x="311.17" y="0">age: 2</tspan><tspan class="cls-15" x="364.39" y="0">.</tspan><tspan x="368.9" y="0">5</tspan><tspan class="cls-11" x="380.38" y="0">6</tspan><tspan class="cls-13" x="391.5" y="0">,</tspan><tspan class="cls-8" x="396.28" y="0" xml:space="preserve"> 2.4</tspan><tspan class="cls-16" x="429.16" y="0">7</tspan><tspan class="cls-12" x="437.38" y="0">,</tspan><tspan x="442.16" y="0" xml:space="preserve"> 2.40</tspan></text><rect class="cls-1" y="320" width="1432" height="64"/><text class="cls-3" transform="translate(52 359.33)">cont<tspan class="cls-4" x="39.34" y="0">r</tspan><tspan x="45.67" y="0">olle</tspan><tspan class="cls-5" x="76.24" y="0">r</tspan><tspan x="82.16" y="0">-1</tspan></text><text class="cls-3" transform="translate(267.69 359.33)">d0:94:66:12:e6:f2</text><text class="cls-3" transform="translate(483.38 359.33)">CONTROLLER</text><text class="cls-3" transform="translate(699.08 359.33)">2</text><text class="cls-6" transform="translate(914.77 359.33)">02:13:<tspan class="cls-7" x="52.65" y="0">2</tspan><tspan class="cls-8" x="63.92" y="0">4 up 1 </tspan><tspan class="cls-9" x="119.91" y="0">d</tspan><tspan class="cls-10" x="131.58" y="0">a</tspan><tspan class="cls-11" x="141.52" y="0">y</tspan><tspan class="cls-12" x="150.98" y="0">,</tspan><tspan x="155.77" y="0" xml:space="preserve"> 0 users</tspan><tspan class="cls-13" x="223.46" y="0">,</tspan><tspan class="cls-8" x="228.24" y="0" xml:space="preserve"> load </tspan><tspan class="cls-10" x="274.25" y="0">av</tspan><tspan x="293.93" y="0">e</tspan><tspan class="cls-14" x="304.7" y="0">r</tspan><tspan class="cls-8" x="311.17" y="0">age: 2</tspan><tspan class="cls-15" x="364.39" y="0">.</tspan><tspan x="368.9" y="0">5</tspan><tspan class="cls-11" x="380.38" y="0">6</tspan><tspan class="cls-13" x="391.5" y="0">,</tspan><tspan class="cls-8" x="396.28" y="0" xml:space="preserve"> 2.4</tspan><tspan class="cls-16" x="429.16" y="0">7</tspan><tspan class="cls-12" x="437.38" y="0">,</tspan><tspan x="442.16" y="0" xml:space="preserve"> 2.40</tspan></text><text class="cls-18" transform="translate(52 38.53)"><tspan class="cls-19">F</tspan><tspan x="11.04" y="0">riendly Name</tspan></text><text class="cls-18" transform="translate(267.69 38.53)">D<tspan class="cls-20" x="13.81" y="0">e</tspan><tspan x="24.7" y="0">vice M</tspan><tspan class="cls-21" x="84.29" y="0">A</tspan><tspan x="97" y="0">C</tspan></text><text class="cls-18" transform="translate(483.38 39.21)"><tspan class="cls-19">R</tspan><tspan x="12.2" y="0">ole</tspan></text><text class="cls-18" transform="translate(699.08 38.53)">Count <tspan class="cls-22" x="60.18" y="0">b</tspan><tspan x="71.76" y="0">y TP UP</tspan></text><text class="cls-18" transform="translate(914.77 38.53)">Uptime</text><path class="cls-23" d="M33.12,102.22h0a2,2,0,0,1-.58-.1,2.46,2.46,0,0,1-.48-.36l-3.62-3.62A1.36,1.36,0,0,1,28,97a1.61,1.61,0,0,1,2.71-1.1l2.41,2.49,8.21-8.18a1.54,1.54,0,0,1,1.14-.44,1.56,1.56,0,0,1,1.09.44A1.44,1.44,0,0,1,44,91.35a1.27,1.27,0,0,1-.44,1.06l-9.28,9.35a5.3,5.3,0,0,0-.51.36,2.1,2.1,0,0,1-.65.1Z"/><path class="cls-23" d="M33.12,166.55h0a2,2,0,0,1-.58-.1,2.94,2.94,0,0,1-.48-.36l-3.62-3.62a1.36,1.36,0,0,1-.44-1.13,1.61,1.61,0,0,1,2.71-1.1l2.41,2.49,8.21-8.18a1.63,1.63,0,0,1,2.23,0,1.44,1.44,0,0,1,.44,1.13,1.27,1.27,0,0,1-.44,1.06l-9.28,9.35a4,4,0,0,0-.51.36,2.1,2.1,0,0,1-.65.1Z"/><path class="cls-23" d="M33.12,230.55h0a2,2,0,0,1-.58-.1,2.94,2.94,0,0,1-.48-.36l-3.62-3.62a1.36,1.36,0,0,1-.44-1.13,1.61,1.61,0,0,1,2.71-1.1l2.41,2.49,8.21-8.18a1.63,1.63,0,0,1,2.23,0,1.44,1.44,0,0,1,.44,1.13,1.27,1.27,0,0,1-.44,1.06l-9.28,9.35a4,4,0,0,0-.51.36,2.1,2.1,0,0,1-.65.1Z"/><path class="cls-23" d="M33.12,294.55h0a2,2,0,0,1-.58-.1,2.94,2.94,0,0,1-.48-.36l-3.62-3.62a1.36,1.36,0,0,1-.44-1.13,1.61,1.61,0,0,1,2.71-1.1l2.41,2.49,8.21-8.18a1.63,1.63,0,0,1,2.23,0,1.44,1.44,0,0,1,.44,1.13,1.27,1.27,0,0,1-.44,1.06l-9.28,9.35a4,4,0,0,0-.51.36,2.1,2.1,0,0,1-.65.1Z"/><path class="cls-23" d="M33.12,358.55h0a2,2,0,0,1-.58-.1,2.94,2.94,0,0,1-.48-.36l-3.62-3.62a1.36,1.36,0,0,1-.44-1.13,1.61,1.61,0,0,1,2.71-1.1l2.41,2.49,8.21-8.18a1.63,1.63,0,0,1,2.23,0,1.44,1.44,0,0,1,.44,1.13,1.27,1.27,0,0,1-.44,1.06l-9.28,9.35a4,4,0,0,0-.51.36,2.1,2.1,0,0,1-.65.1Z"/><rect class="cls-2" y="384" width="1432" height="64"/><text class="cls-3" transform="translate(52 423.33)">cont<tspan class="cls-4" x="39.34" y="0">r</tspan><tspan x="45.67" y="0">olle</tspan><tspan class="cls-5" x="76.24" y="0">r</tspan><tspan x="82.16" y="0">-1</tspan></text><text class="cls-3" transform="translate(267.69 423.33)">d0:94:66:12:e6:f2</text><text class="cls-3" transform="translate(483.38 423.33)">CONTROLLER</text><text class="cls-3" transform="translate(699.08 423.33)">2</text><text class="cls-6" transform="translate(914.77 423.33)">02:13:<tspan class="cls-7" x="52.65" y="0">2</tspan><tspan class="cls-8" x="63.92" y="0">4 up 1 </tspan><tspan class="cls-9" x="119.91" y="0">d</tspan><tspan class="cls-10" x="131.58" y="0">a</tspan><tspan class="cls-11" x="141.52" y="0">y</tspan><tspan class="cls-12" x="150.98" y="0">,</tspan><tspan x="155.77" y="0" xml:space="preserve"> 0 users</tspan><tspan class="cls-13" x="223.46" y="0">,</tspan><tspan class="cls-8" x="228.24" y="0" xml:space="preserve"> load </tspan><tspan class="cls-10" x="274.25" y="0">av</tspan><tspan x="293.93" y="0">e</tspan><tspan class="cls-14" x="304.7" y="0">r</tspan><tspan class="cls-8" x="311.17" y="0">age: 2</tspan><tspan class="cls-15" x="364.39" y="0">.</tspan><tspan x="368.9" y="0">5</tspan><tspan class="cls-11" x="380.38" y="0">6</tspan><tspan class="cls-13" x="391.5" y="0">,</tspan><tspan class="cls-8" x="396.28" y="0" xml:space="preserve"> 2.4</tspan><tspan class="cls-16" x="429.16" y="0">7</tspan><tspan class="cls-12" x="437.38" y="0">,</tspan><tspan x="442.16" y="0" xml:space="preserve"> 2.40</tspan></text><path class="cls-23" d="M33.12,422.55h0a2,2,0,0,1-.58-.1,2.94,2.94,0,0,1-.48-.36l-3.62-3.62a1.36,1.36,0,0,1-.44-1.13,1.61,1.61,0,0,1,2.71-1.1l2.41,2.49,8.21-8.18a1.63,1.63,0,0,1,2.23,0,1.44,1.44,0,0,1,.44,1.13,1.27,1.27,0,0,1-.44,1.06l-9.28,9.35a4,4,0,0,0-.51.36,2.1,2.1,0,0,1-.65.1Z"/><rect class="cls-1" y="448" width="1432" height="64"/><text class="cls-3" transform="translate(52 487.33)">cont<tspan class="cls-4" x="39.34" y="0">r</tspan><tspan x="45.67" y="0">olle</tspan><tspan class="cls-5" x="76.24" y="0">r</tspan><tspan x="82.16" y="0">-1</tspan></text><text class="cls-3" transform="translate(267.69 487.33)">d0:94:66:12:e6:f2</text><text class="cls-3" transform="translate(483.38 487.33)">CONTROLLER</text><text class="cls-3" transform="translate(699.08 487.33)">2</text><text class="cls-6" transform="translate(914.77 487.33)">02:13:<tspan class="cls-7" x="52.65" y="0">2</tspan><tspan class="cls-8" x="63.92" y="0">4 up 1 </tspan><tspan class="cls-9" x="119.91" y="0">d</tspan><tspan class="cls-10" x="131.58" y="0">a</tspan><tspan class="cls-11" x="141.52" y="0">y</tspan><tspan class="cls-12" x="150.98" y="0">,</tspan><tspan x="155.77" y="0" xml:space="preserve"> 0 users</tspan><tspan class="cls-13" x="223.46" y="0">,</tspan><tspan class="cls-8" x="228.24" y="0" xml:space="preserve"> load </tspan><tspan class="cls-10" x="274.25" y="0">av</tspan><tspan x="293.93" y="0">e</tspan><tspan class="cls-14" x="304.7" y="0">r</tspan><tspan class="cls-8" x="311.17" y="0">age: 2</tspan><tspan class="cls-15" x="364.39" y="0">.</tspan><tspan x="368.9" y="0">5</tspan><tspan class="cls-11" x="380.38" y="0">6</tspan><tspan class="cls-13" x="391.5" y="0">,</tspan><tspan class="cls-8" x="396.28" y="0" xml:space="preserve"> 2.4</tspan><tspan class="cls-16" x="429.16" y="0">7</tspan><tspan class="cls-12" x="437.38" y="0">,</tspan><tspan x="442.16" y="0" xml:space="preserve"> 2.40</tspan></text><path class="cls-23" d="M33.12,486.55h0a2,2,0,0,1-.58-.1,2.94,2.94,0,0,1-.48-.36l-3.62-3.62a1.36,1.36,0,0,1-.44-1.13,1.61,1.61,0,0,1,2.71-1.1l2.41,2.49,8.21-8.18a1.63,1.63,0,0,1,2.23,0,1.44,1.44,0,0,1,.44,1.13,1.27,1.27,0,0,1-.44,1.06l-9.28,9.35a4,4,0,0,0-.51.36,2.1,2.1,0,0,1-.65.1Z"/><rect class="cls-2" y="512" width="1432" height="64"/><text class="cls-3" transform="translate(52 551.33)">cont<tspan class="cls-4" x="39.34" y="0">r</tspan><tspan x="45.67" y="0">olle</tspan><tspan class="cls-5" x="76.24" y="0">r</tspan><tspan x="82.16" y="0">-1</tspan></text><text class="cls-3" transform="translate(267.69 551.33)">d0:94:66:12:e6:f2</text><text class="cls-3" transform="translate(483.38 551.33)">CONTROLLER</text><text class="cls-3" transform="translate(699.08 551.33)">2</text><text class="cls-6" transform="translate(914.77 551.33)">02:13:<tspan class="cls-7" x="52.65" y="0">2</tspan><tspan class="cls-8" x="63.92" y="0">4 up 1 </tspan><tspan class="cls-9" x="119.91" y="0">d</tspan><tspan class="cls-10" x="131.58" y="0">a</tspan><tspan class="cls-11" x="141.52" y="0">y</tspan><tspan class="cls-12" x="150.98" y="0">,</tspan><tspan x="155.77" y="0" xml:space="preserve"> 0 users</tspan><tspan class="cls-13" x="223.46" y="0">,</tspan><tspan class="cls-8" x="228.24" y="0" xml:space="preserve"> load </tspan><tspan class="cls-10" x="274.25" y="0">av</tspan><tspan x="293.93" y="0">e</tspan><tspan class="cls-14" x="304.7" y="0">r</tspan><tspan class="cls-8" x="311.17" y="0">age: 2</tspan><tspan class="cls-15" x="364.39" y="0">.</tspan><tspan x="368.9" y="0">5</tspan><tspan class="cls-11" x="380.38" y="0">6</tspan><tspan class="cls-13" x="391.5" y="0">,</tspan><tspan class="cls-8" x="396.28" y="0" xml:space="preserve"> 2.4</tspan><tspan class="cls-16" x="429.16" y="0">7</tspan><tspan class="cls-12" x="437.38" y="0">,</tspan><tspan x="442.16" y="0" xml:space="preserve"> 2.40</tspan></text><path class="cls-23" d="M33.12,550.55h0a2,2,0,0,1-.58-.1,2.94,2.94,0,0,1-.48-.36l-3.62-3.62a1.36,1.36,0,0,1-.44-1.13,1.61,1.61,0,0,1,2.71-1.1l2.41,2.49,8.21-8.18a1.63,1.63,0,0,1,2.23,0,1.44,1.44,0,0,1,.44,1.13,1.27,1.27,0,0,1-.44,1.06l-9.28,9.35a4,4,0,0,0-.51.36,2.1,2.1,0,0,1-.65.1Z"/><rect class="cls-24" y="63.5" width="1432" height="1"/></g></g></svg>