<svg xmlns="http://www.w3.org/2000/svg" width="545" height="192" viewBox="0 0 545 192"><defs><style>.cls-1{fill:#fff;}.cls-2{fill:#f5f7fb;}.cls-3{font-size:12px;fill:#231815;font-family:Pretendard-Medium-KSCpc-EUC-H, Pretendard;}.cls-4{font-size:10px;fill:#727171;font-family:Pretendard-Light-KSCpc-EUC-H, Pretendard;}.cls-5{letter-spacing:-0.01em;}.cls-6{letter-spacing:-0.01em;}.cls-7{letter-spacing:-0.02em;}.cls-8{letter-spacing:-0.08em;}.cls-9{letter-spacing:-0.03em;}.cls-10{letter-spacing:-0.03em;}.cls-11{letter-spacing:-0.08em;}.cls-12{letter-spacing:-0.01em;}.cls-13{letter-spacing:-0.02em;}.cls-14{letter-spacing:-0.02em;}.cls-15{fill:#dcdddd;}.cls-16{letter-spacing:-0.04em;}.cls-17{letter-spacing:-0.02em;}.cls-18{letter-spacing:0em;}.cls-19{letter-spacing:-0.04em;}.cls-20{letter-spacing:-0.02em;}.cls-21{letter-spacing:-0.02em;}.cls-22{letter-spacing:-0.01em;}.cls-23{letter-spacing:-0.06em;}.cls-24{letter-spacing:0.03em;}.cls-25{letter-spacing:0.02em;}.cls-26{letter-spacing:0em;}.cls-27{fill:none;stroke:#dcdddd;stroke-miterlimit:10;stroke-width:0.5px;}</style></defs><title>자산 65</title><g id="레이어_2" data-name="레이어 2"><g id="레이어_1-2" data-name="레이어 1"><rect class="cls-1" width="545" height="48"/><rect class="cls-2" y="48" width="545" height="48"/><rect class="cls-1" y="96" width="545" height="48"/><rect class="cls-2" y="144" width="545" height="48"/><text class="cls-3" transform="translate(46 21.37)">Instance<tspan x="0" y="18">Name</tspan></text><text class="cls-3" transform="translate(129.17 21.37)">Image<tspan x="0" y="18">Name</tspan></text><text class="cls-4" transform="translate(129.17 77.41)">ubuntu18</text><text class="cls-4" transform="translate(129.17 125.34)">cen<tspan class="cls-5" x="16.23" y="0">t</tspan><tspan x="19.51" y="0">os7</tspan></text><text class="cls-3" transform="translate(212.33 29.66)">IP <tspan class="cls-6" x="13.27" y="0">A</tspan><tspan x="21.19" y="0">dd</tspan><tspan class="cls-7" x="35.53" y="0">r</tspan><tspan x="39.69" y="0">ess</tspan></text><text class="cls-4" transform="translate(212.33 77.41)">192<tspan class="cls-8" x="16.1" y="0">.</tspan><tspan x="17.73" y="0">16</tspan><tspan class="cls-9" x="27.95" y="0">8</tspan><tspan class="cls-8" x="33.7" y="0">.</tspan><tspan x="35.33" y="0">1</tspan><tspan class="cls-10" x="39.55" y="0">5</tspan><tspan class="cls-8" x="45.11" y="0">.</tspan><tspan x="46.74" y="0">185</tspan></text><text class="cls-4" transform="translate(46 77.41)">pss<tspan class="cls-11" x="15.4" y="0">_</tspan><tspan x="18.79" y="0">vm_</tspan><tspan class="cls-5" x="36.33" y="0">t</tspan><tspan x="39.6" y="0">est</tspan></text><text class="cls-4" transform="translate(212.33 125.34)">192<tspan class="cls-8" x="16.1" y="0">.</tspan><tspan x="17.73" y="0">16</tspan><tspan class="cls-9" x="27.95" y="0">8</tspan><tspan class="cls-8" x="33.7" y="0">.</tspan><tspan x="35.33" y="0">1</tspan><tspan class="cls-10" x="39.55" y="0">5</tspan><tspan class="cls-8" x="45.11" y="0">.</tspan><tspan x="46.74" y="0">184</tspan></text><text class="cls-4" transform="translate(46 125.34)">Gra<tspan class="cls-12" x="15.65" y="0">f</tspan><tspan x="18.77" y="0">ana</tspan></text><text class="cls-3" transform="translate(340.28 29.66)">Fl<tspan class="cls-13" x="9.48" y="0">a</tspan><tspan class="cls-14" x="15.76" y="0">v</tspan><tspan x="22.02" y="0">or</tspan></text><rect class="cls-1" x="16.25" y="65.25" width="13.5" height="13.5" rx="1.75"/><path class="cls-15" d="M28,65.5A1.5,1.5,0,0,1,29.5,67V77A1.5,1.5,0,0,1,28,78.5H18A1.5,1.5,0,0,1,16.5,77V67A1.5,1.5,0,0,1,18,65.5H28m0-.5H18a2,2,0,0,0-2,2V77a2,2,0,0,0,2,2H28a2,2,0,0,0,2-2V67a2,2,0,0,0-2-2Z"/><rect class="cls-1" x="16.25" y="17.25" width="13.5" height="13.5" rx="1.75"/><path class="cls-15" d="M28,17.5A1.5,1.5,0,0,1,29.5,19V29A1.5,1.5,0,0,1,28,30.5H18A1.5,1.5,0,0,1,16.5,29V19A1.5,1.5,0,0,1,18,17.5H28m0-.5H18a2,2,0,0,0-2,2V29a2,2,0,0,0,2,2H28a2,2,0,0,0,2-2V19a2,2,0,0,0-2-2Z"/><rect class="cls-1" x="16.25" y="113.25" width="13.5" height="13.5" rx="1.75"/><path class="cls-15" d="M28,113.5a1.5,1.5,0,0,1,1.5,1.5v10a1.5,1.5,0,0,1-1.5,1.5H18a1.5,1.5,0,0,1-1.5-1.5V115a1.5,1.5,0,0,1,1.5-1.5H28m0-.5H18a2,2,0,0,0-2,2v10a2,2,0,0,0,2,2H28a2,2,0,0,0,2-2V115a2,2,0,0,0-2-2Z"/><text class="cls-3" transform="translate(423.49 29.66)"><tspan class="cls-16">K</tspan><tspan class="cls-17" x="7.17" y="0">e</tspan><tspan x="13.7" y="0">y </tspan><tspan class="cls-18" x="23.11" y="0">P</tspan><tspan x="30.38" y="0">air</tspan></text><text class="cls-3" transform="translate(484.22 29.66)">Status</text><text class="cls-4" transform="translate(340.28 77.41)"><tspan class="cls-16">m</tspan><tspan class="cls-19" x="7.83" y="0">1</tspan><tspan x="11.63" y="0">.small</tspan></text><text class="cls-4" transform="translate(340.28 125.34)"><tspan class="cls-16">m</tspan><tspan class="cls-19" x="7.83" y="0">1</tspan><tspan x="11.63" y="0">.medium</tspan></text><text class="cls-4" transform="translate(423.4 77.41)"><tspan class="cls-13">m</tspan><tspan x="8.02" y="0">y</tspan><tspan class="cls-20" x="13.18" y="0">k</tspan><tspan class="cls-21" x="17.94" y="0">e</tspan><tspan x="23.27" y="0">y</tspan></text><text class="cls-4" transform="translate(423.4 125.34)"><tspan class="cls-13">m</tspan><tspan x="8.02" y="0">y</tspan><tspan class="cls-20" x="13.18" y="0">k</tspan><tspan class="cls-21" x="17.94" y="0">e</tspan><tspan x="23.27" y="0">y</tspan></text><text class="cls-4" transform="translate(129.17 173.34)">vpn_220829</text><text class="cls-4" transform="translate(212.33 164.17)">p<tspan class="cls-7" x="5.69" y="0">r</tspan><tspan class="cls-13" x="8.86" y="0">o</tspan><tspan x="14.26" y="0">vider 192</tspan><tspan class="cls-8" x="54.7" y="0">.</tspan><tspan x="56.33" y="0">16</tspan><tspan class="cls-9" x="66.55" y="0">8</tspan><tspan class="cls-22" x="72.3" y="0">.</tspan><tspan x="74.65" y="0">5</tspan><tspan class="cls-9" x="80.49" y="0">3</tspan><tspan class="cls-8" x="86.32" y="0">.</tspan><tspan x="87.95" y="0">157</tspan><tspan x="0" y="16">mgmt 192</tspan><tspan class="cls-8" x="43.97" y="16">.</tspan><tspan x="45.61" y="16">16</tspan><tspan class="cls-9" x="55.82" y="16">8</tspan><tspan class="cls-8" x="61.57" y="16">.</tspan><tspan x="63.2" y="16">1</tspan><tspan class="cls-10" x="67.42" y="16">5</tspan><tspan class="cls-8" x="72.98" y="16">.</tspan><tspan x="74.61" y="16">1</tspan><tspan class="cls-23" x="78.83" y="16">7</tspan><tspan x="83.69" y="16">4</tspan></text><text class="cls-4" transform="translate(46 173.34)">VP<tspan class="cls-24" x="12.2" y="0">N</tspan><tspan x="19.74" y="0">_Se</tspan><tspan class="cls-25" x="35.36" y="0">r</tspan><tspan class="cls-13" x="38.87" y="0">v</tspan><tspan x="43.84" y="0">er</tspan></text><rect class="cls-1" x="16.25" y="161.25" width="13.5" height="13.5" rx="1.75"/><path class="cls-15" d="M28,161.5a1.5,1.5,0,0,1,1.5,1.5v10a1.5,1.5,0,0,1-1.5,1.5H18a1.5,1.5,0,0,1-1.5-1.5V163a1.5,1.5,0,0,1,1.5-1.5H28m0-.5H18a2,2,0,0,0-2,2v10a2,2,0,0,0,2,2H28a2,2,0,0,0,2-2V163a2,2,0,0,0-2-2Z"/><text class="cls-4" transform="translate(340.28 173.34)"><tspan class="cls-16">m</tspan><tspan class="cls-19" x="7.83" y="0">1</tspan><tspan x="11.63" y="0">.medium</tspan></text><text class="cls-4" transform="translate(423.49 173.34)"><tspan class="cls-13">m</tspan><tspan x="8.02" y="0">y</tspan><tspan class="cls-20" x="13.18" y="0">k</tspan><tspan class="cls-21" x="17.94" y="0">e</tspan><tspan x="23.27" y="0">y</tspan></text><text class="cls-4" transform="translate(484.22 77.41)"><tspan class="cls-26">Acti</tspan><tspan class="cls-13" x="16.95" y="0">v</tspan><tspan x="21.92" y="0">e</tspan></text><text class="cls-4" transform="translate(484.22 125.34)">Shu<tspan class="cls-5" x="16.96" y="0">t</tspan><tspan x="20.24" y="0">off</tspan></text><text class="cls-4" transform="translate(484.22 173.34)"><tspan class="cls-26">Acti</tspan><tspan class="cls-13" x="16.95" y="0">v</tspan><tspan x="21.92" y="0">e</tspan></text><line class="cls-27" y1="48" x2="545" y2="48"/></g></g></svg>