<svg xmlns="http://www.w3.org/2000/svg" width="352.44" height="296" viewBox="0 0 352.44 296"><defs><style>.cls-1{fill:#fff;}.cls-2{fill:#f5f7fb;}.cls-3,.cls-9{font-size:11px;}.cls-3{fill:#231815;font-family:Pretendard-Medium-KSCpc-EUC-H, Pretendard;}.cls-4{letter-spacing:-0.09em;}.cls-5{letter-spacing:-0.08em;}.cls-6{letter-spacing:0em;}.cls-7{letter-spacing:-0.03em;}.cls-8{letter-spacing:-0.04em;}.cls-9{fill:#727171;font-family:Pretendard-Light-KSCpc-EUC-H, Pretendard;}.cls-10{letter-spacing:-0.04em;}.cls-11{letter-spacing:-0.03em;}.cls-12{letter-spacing:0.03em;}.cls-13{letter-spacing:-0.01em;}.cls-14{letter-spacing:-0.04em;}.cls-15{letter-spacing:-0.01em;}.cls-16{letter-spacing:-0.02em;}.cls-17{letter-spacing:-0.03em;}.cls-18{letter-spacing:-0.02em;}.cls-19{letter-spacing:-0.03em;}.cls-20{letter-spacing:-0.03em;}.cls-21{letter-spacing:-0.02em;}.cls-22{letter-spacing:-0.03em;}.cls-23{letter-spacing:-0.01em;}.cls-24{letter-spacing:0.03em;}.cls-25{letter-spacing:0em;}.cls-26{letter-spacing:-0.08em;}.cls-27{fill:none;stroke:#dcdddd;stroke-miterlimit:10;}</style></defs><title>자산 67</title><g id="레이어_2" data-name="레이어 2"><g id="레이어_1-2" data-name="레이어 1"><rect class="cls-1" y="26.91" width="352.44" height="26.91"/><rect class="cls-2" y="53.82" width="352.44" height="26.91"/><rect class="cls-1" width="352.44" height="26.91"/><rect class="cls-1" y="80.73" width="352.44" height="26.91"/><rect class="cls-2" y="107.64" width="352.44" height="26.91"/><rect class="cls-1" y="134.55" width="352.44" height="26.91"/><rect class="cls-2" y="161.45" width="352.44" height="26.91"/><rect class="cls-1" y="188.36" width="352.44" height="26.91"/><rect class="cls-2" y="215.27" width="352.44" height="26.91"/><rect class="cls-1" y="242.18" width="352.44" height="26.91"/><rect class="cls-2" y="269.09" width="352.44" height="26.91"/><text class="cls-3" transform="translate(8 15.71)">@VIE<tspan class="cls-4" x="26.1" y="0">W</tspan><tspan x="35.45" y="0">.URL_DE</tspan><tspan class="cls-5" x="77.5" y="0">T</tspan><tspan class="cls-6" x="83.42" y="0">AILS</tspan></text><text class="cls-3" transform="translate(194 15.71)">COUNT</text><text class="cls-3" transform="translate(240.3 15.71)">MEDIAN:<tspan class="cls-7" x="44.29" y="0">L</tspan><tspan class="cls-8" x="49.89" y="0">O</tspan><tspan x="57.59" y="0">AD EVENT</tspan></text><text class="cls-9" transform="translate(8 44.57)">/</text><text class="cls-9" transform="translate(215.08 44.57)">718</text><text class="cls-9" transform="translate(316.56 44.57)">1<tspan class="cls-10" x="4.64" y="0">1</tspan><tspan class="cls-11" x="8.82" y="0">.</tspan><tspan class="cls-6" x="11.21" y="0">31s</tspan></text><text class="cls-9" transform="translate(8 71.44)">/depa<tspan class="cls-12" x="28.04" y="0">r</tspan><tspan class="cls-6" x="32.07" y="0">tment/so</tspan><tspan class="cls-13" x="75.54" y="0">f</tspan><tspan x="78.98" y="0">as</tspan></text><text class="cls-9" transform="translate(212.79 71.44)">528</text><text class="cls-9" transform="translate(294.18 71.44)">116<tspan class="cls-14" x="15.88" y="0">1</tspan><tspan class="cls-15" x="20.06" y="0">.</tspan><tspan x="22.7" y="0">96ms</tspan></text><text class="cls-9" transform="translate(8 98.32)">/depa<tspan class="cls-12" x="28.04" y="0">r</tspan><tspan class="cls-6" x="32.07" y="0">tment/so</tspan><tspan class="cls-13" x="75.54" y="0">f</tspan><tspan x="78.98" y="0">as/p</tspan><tspan class="cls-16" x="99.91" y="0">r</tspan><tspan class="cls-6" x="103.4" y="0">o</tspan></text><text class="cls-9" transform="translate(214.75 98.32)">521</text><text class="cls-9" transform="translate(294.86 98.32)">86<tspan class="cls-17" x="13.2" y="0">6</tspan><tspan x="19.43" y="0">.28ms</tspan></text><text class="cls-9" transform="translate(8 125.2)">/chec<tspan class="cls-18" x="27.22" y="0">k</tspan><tspan class="cls-6" x="32.46" y="0">out</tspan></text><text class="cls-9" transform="translate(212.71 125.2)">320</text><text class="cls-9" transform="translate(295.17 125.2)">90<tspan class="cls-19" x="13.01" y="0">3</tspan><tspan class="cls-20" x="19.42" y="0">.</tspan><tspan class="cls-6" x="21.8" y="0">03ms</tspan></text><text class="cls-9" transform="translate(8 152.07)">/depa<tspan class="cls-12" x="28.04" y="0">r</tspan><tspan class="cls-6" x="32.07" y="0">tment/chairs</tspan></text><text class="cls-9" transform="translate(214.37 152.07)">316</text><text class="cls-9" transform="translate(291.94 152.07)">1192.28ms</text><text class="cls-9" transform="translate(8 178.95)">/depa<tspan class="cls-12" x="28.04" y="0">r</tspan><tspan class="cls-6" x="32.07" y="0">tment/chairs/p</tspan><tspan class="cls-21" x="102.84" y="0">r</tspan><tspan x="106.33" y="0">o</tspan></text><text class="cls-9" transform="translate(214.37 178.95)">316</text><text class="cls-9" transform="translate(295.19 178.95)">90<tspan class="cls-20" x="13.01" y="0">9</tspan><tspan class="cls-6" x="19.29" y="0">.25ms</tspan></text><text class="cls-9" transform="translate(8 205.83)">/depa<tspan class="cls-12" x="28.04" y="0">r</tspan><tspan class="cls-6" x="32.07" y="0">tment/bedding</tspan></text><text class="cls-9" transform="translate(216.32 205.83)">311</text><text class="cls-9" transform="translate(297.31 205.83)">106<tspan class="cls-22" x="17.65" y="0">0</tspan><tspan class="cls-23" x="23.75" y="0">.</tspan><tspan x="26.33" y="0">5ms</tspan></text><text class="cls-9" transform="translate(8 232.7)">/depa<tspan class="cls-12" x="28.04" y="0">r</tspan><tspan class="cls-6" x="32.07" y="0">tment/bedding/p</tspan><tspan class="cls-21" x="113.73" y="0">r</tspan><tspan x="117.22" y="0">o</tspan></text><text class="cls-9" transform="translate(216.32 232.7)">311</text><text class="cls-9" transform="translate(296.73 232.7)">91<tspan class="cls-22" x="11.24" y="0">9</tspan><tspan class="cls-15" x="17.52" y="0">.</tspan><tspan x="20.15" y="0">99ms</tspan></text><text class="cls-9" transform="translate(8 259.58)">/ca<tspan class="cls-24" x="15.11" y="0">r</tspan><tspan class="cls-25" x="19.15" y="0">t</tspan></text><text class="cls-9" transform="translate(214.63 259.58)">156</text><text class="cls-9" transform="translate(293.32 259.58)">105<tspan class="cls-19" x="17.48" y="0">3</tspan><tspan class="cls-26" x="23.89" y="0">.</tspan><tspan x="25.68" y="0">15ms</tspan></text><text class="cls-9" transform="translate(8 286.45)">/depa<tspan class="cls-12" x="28.04" y="0">r</tspan><tspan class="cls-6" x="32.07" y="0">tment/lighting</tspan></text><text class="cls-9" transform="translate(227.65 286.45)">1</text><text class="cls-9" transform="translate(319.59 286.45)">2<tspan class="cls-26" x="6.48" y="0">.</tspan><tspan x="8.27" y="0">18s</tspan></text><line class="cls-27" y1="26.91" x2="352.44" y2="26.91"/></g></g></svg>