<svg xmlns="http://www.w3.org/2000/svg" width="1392" height="164" viewBox="0 0 1392 164"><defs><style>.cls-1{fill:#fff;}.cls-2{fill:#f5f7fb;}.cls-3{font-size:14px;fill:#231815;font-family:Pretendard-Medium-KSCpc-EUC-H, Pretendard;}.cls-4{font-size:12px;}.cls-29,.cls-4{fill:#727171;}.cls-28,.cls-4{font-family:Pretendard-Light-KSCpc-EUC-H, Pretendard;}.cls-5{letter-spacing:-0.08em;}.cls-6{letter-spacing:-0.01em;}.cls-7{letter-spacing:0em;}.cls-8{letter-spacing:-0.01em;}.cls-9{letter-spacing:-0.02em;}.cls-10{letter-spacing:-0.02em;}.cls-11{letter-spacing:0.03em;}.cls-12{letter-spacing:0.02em;}.cls-13{letter-spacing:-0.02em;}.cls-14{letter-spacing:-0.04em;}.cls-15{letter-spacing:0.01em;}.cls-16{letter-spacing:-0.04em;}.cls-17{letter-spacing:-0.03em;}.cls-18{letter-spacing:-0.01em;}.cls-19{letter-spacing:-0.02em;}.cls-20{letter-spacing:-0.08em;}.cls-21{letter-spacing:-0.03em;}.cls-22{letter-spacing:-0.03em;}.cls-23{letter-spacing:-0.06em;}.cls-24{letter-spacing:-0.01em;}.cls-25{letter-spacing:-0.02em;}.cls-26{fill:#dcdddd;}.cls-27{fill:none;stroke:#dcdddd;stroke-miterlimit:10;}.cls-28{font-size:11px;fill:#9fa0a0;}</style></defs><title>자산 66</title><g id="레이어_2" data-name="레이어 2"><g id="레이어_1-2" data-name="레이어 1"><rect class="cls-1" width="1392" height="54.67"/><rect class="cls-1" y="54.67" width="1392" height="54.67"/><rect class="cls-2" y="109.33" width="1392" height="54.67"/><text class="cls-3" transform="translate(345.11 32.99)">Name</text><text class="cls-3" transform="translate(46 32.99)">제조사/모델명</text><text class="cls-3" transform="translate(195.56 32.99)">대역폭</text><text class="cls-4" transform="translate(46 87.41)">pss<tspan class="cls-5" x="18.48" y="0">_</tspan><tspan x="22.55" y="0">vm_</tspan><tspan class="cls-6" x="43.59" y="0">t</tspan><tspan x="47.53" y="0">est</tspan></text><text class="cls-4" transform="translate(46 142.01)">G<tspan class="cls-7" x="8.46" y="0">r</tspan><tspan x="12.46" y="0">a</tspan><tspan class="cls-8" x="18.78" y="0">f</tspan><tspan x="22.52" y="0">ana</tspan></text><text class="cls-3" transform="translate(494.67 32.99)">Net<tspan class="cls-9" x="22.75" y="0">w</tspan><tspan x="33.6" y="0">ork</tspan></text><text class="cls-4" transform="translate(195.56 87.41)">pss<tspan class="cls-5" x="18.48" y="0">_</tspan><tspan x="22.55" y="0">vm_</tspan><tspan class="cls-6" x="43.59" y="0">t</tspan><tspan x="47.53" y="0">est</tspan></text><text class="cls-4" transform="translate(195.56 142.01)">G<tspan class="cls-7" x="8.46" y="0">r</tspan><tspan x="12.46" y="0">a</tspan><tspan class="cls-8" x="18.78" y="0">f</tspan><tspan x="22.52" y="0">ana</tspan></text><text class="cls-3" transform="translate(644.22 32.99)">Fi<tspan class="cls-10" x="11.06" y="0">x</tspan><tspan x="18.12" y="0">ed IPs</tspan></text><text class="cls-4" transform="translate(345.11 87.41)">VP<tspan class="cls-11" x="14.64" y="0">N</tspan><tspan x="23.68" y="0">_Se</tspan><tspan class="cls-12" x="42.43" y="0">r</tspan><tspan class="cls-13" x="46.64" y="0">v</tspan><tspan x="52.61" y="0">e</tspan><tspan class="cls-14" x="59.19" y="0">r</tspan><tspan x="62.74" y="0">-e</tspan><tspan class="cls-15" x="74.43" y="0">t</tspan><tspan class="cls-16" x="78.56" y="0">h</tspan><tspan x="84.73" y="0">1</tspan></text><text class="cls-4" transform="translate(345.11 142.01)">VP<tspan class="cls-11" x="14.64" y="0">N</tspan><tspan x="23.68" y="0">_Se</tspan><tspan class="cls-12" x="42.43" y="0">r</tspan><tspan class="cls-13" x="46.64" y="0">v</tspan><tspan x="52.61" y="0">e</tspan><tspan class="cls-14" x="59.19" y="0">r</tspan><tspan x="62.74" y="0">-e</tspan><tspan class="cls-15" x="74.43" y="0">t</tspan><tspan x="78.56" y="0">h0</tspan></text><text class="cls-3" transform="translate(793.78 32.99)">M<tspan class="cls-17" x="12.07" y="0">A</tspan><tspan x="20.97" y="0">C </tspan><tspan class="cls-18" x="34.23" y="0">A</tspan><tspan x="43.48" y="0">dd</tspan><tspan class="cls-19" x="60.21" y="0">r</tspan><tspan x="65.06" y="0">ess</tspan></text><text class="cls-4" transform="translate(494.67 87.41)">mgmt</text><text class="cls-4" transform="translate(494.67 142.01)">p<tspan class="cls-19" x="6.83" y="0">r</tspan><tspan class="cls-13" x="10.63" y="0">o</tspan><tspan x="17.12" y="0">vider</tspan></text><text class="cls-3" transform="translate(943.33 32.99)">Status</text><text class="cls-4" transform="translate(644.22 87.41)">192<tspan class="cls-20" x="19.32" y="0">.</tspan><tspan x="21.28" y="0">16</tspan><tspan class="cls-21" x="33.54" y="0">8</tspan><tspan class="cls-20" x="40.44" y="0">.</tspan><tspan x="42.4" y="0">1</tspan><tspan class="cls-22" x="47.46" y="0">5</tspan><tspan class="cls-20" x="54.13" y="0">.</tspan><tspan x="56.09" y="0">1</tspan><tspan class="cls-23" x="61.15" y="0">7</tspan><tspan x="66.98" y="0">4</tspan></text><text class="cls-4" transform="translate(644.22 142.01)">192<tspan class="cls-20" x="19.32" y="0">.</tspan><tspan x="21.28" y="0">16</tspan><tspan class="cls-21" x="33.54" y="0">8</tspan><tspan class="cls-24" x="40.44" y="0">.</tspan><tspan x="43.27" y="0">5</tspan><tspan class="cls-21" x="50.27" y="0">3</tspan><tspan class="cls-20" x="57.27" y="0">.</tspan><tspan x="59.23" y="0">157</tspan></text><text class="cls-3" transform="translate(1092.89 32.99)"><tspan class="cls-18">A</tspan><tspan x="9.24" y="0">dmin Sta</tspan><tspan class="cls-6" x="65.23" y="0">t</tspan><tspan x="70.05" y="0">e</tspan></text><text class="cls-3" transform="translate(1242.44 32.99)"><tspan class="cls-18">A</tspan><tspan x="9.24" y="0">ctions</tspan></text><text class="cls-4" transform="translate(793.78 87.41)"><tspan class="cls-8">f</tspan><tspan x="3.74" y="0">a:16:3e:c4:a6:9e</tspan></text><text class="cls-4" transform="translate(793.78 142.01)"><tspan class="cls-8">f</tspan><tspan x="3.74" y="0">a:16:3e:22:</tspan><tspan class="cls-25" x="62.1" y="0">2</tspan><tspan x="68.99" y="0">4:b3</tspan></text><text class="cls-4" transform="translate(943.33 87.41)"><tspan class="cls-7">A</tspan><tspan x="7.51" y="0">cti</tspan><tspan class="cls-13" x="20.34" y="0">v</tspan><tspan x="26.3" y="0">e</tspan></text><text class="cls-4" transform="translate(943.33 142.01)"><tspan class="cls-7">A</tspan><tspan x="7.51" y="0">cti</tspan><tspan class="cls-13" x="20.34" y="0">v</tspan><tspan x="26.3" y="0">e</tspan></text><text class="cls-4" transform="translate(1092.89 87.41)">UP</text><text class="cls-4" transform="translate(1092.89 142.01)">UP</text><rect class="cls-1" x="16.25" y="75.25" width="13.5" height="13.5" rx="1.75"/><path class="cls-26" d="M28,75.5A1.5,1.5,0,0,1,29.5,77V87A1.5,1.5,0,0,1,28,88.5H18A1.5,1.5,0,0,1,16.5,87V77A1.5,1.5,0,0,1,18,75.5H28m0-.5H18a2,2,0,0,0-2,2V87a2,2,0,0,0,2,2H28a2,2,0,0,0,2-2V77a2,2,0,0,0-2-2Z"/><rect class="cls-1" x="16.25" y="20.58" width="13.5" height="13.5" rx="1.75"/><path class="cls-26" d="M28,20.83a1.5,1.5,0,0,1,1.5,1.5v10a1.5,1.5,0,0,1-1.5,1.5H18a1.5,1.5,0,0,1-1.5-1.5v-10a1.5,1.5,0,0,1,1.5-1.5H28m0-.5H18a2,2,0,0,0-2,2v10a2,2,0,0,0,2,2H28a2,2,0,0,0,2-2v-10a2,2,0,0,0-2-2Z"/><rect class="cls-1" x="16.25" y="129.92" width="13.5" height="13.5" rx="1.75"/><path class="cls-26" d="M28,130.17a1.5,1.5,0,0,1,1.5,1.5v10a1.5,1.5,0,0,1-1.5,1.5H18a1.5,1.5,0,0,1-1.5-1.5v-10a1.5,1.5,0,0,1,1.5-1.5H28m0-.5H18a2,2,0,0,0-2,2v10a2,2,0,0,0,2,2H28a2,2,0,0,0,2-2v-10a2,2,0,0,0-2-2Z"/><line class="cls-27" y1="54.67" x2="1392" y2="54.67"/><rect class="cls-1" x="1242.69" y="66.25" width="133.06" height="31.5" rx="1.75"/><path class="cls-26" d="M1374,66.5a1.5,1.5,0,0,1,1.5,1.5V96a1.5,1.5,0,0,1-1.5,1.5H1244.44a1.5,1.5,0,0,1-1.5-1.5V68a1.5,1.5,0,0,1,1.5-1.5H1374m0-.5H1244.44a2,2,0,0,0-2,2V96a2,2,0,0,0,2,2H1374a2,2,0,0,0,2-2V68a2,2,0,0,0-2-2Z"/><text class="cls-28" transform="translate(1250.44 85.24)">Edit Security G<tspan class="cls-19" x="71.36" y="0">r</tspan><tspan x="74.85" y="0">oups</tspan></text><path class="cls-29" d="M1367.86,80.31a.48.48,0,0,0-.68,0L1365,82.64l0,0-2.08-2.28a.48.48,0,0,0-.35-.14.46.46,0,0,0-.33.12.47.47,0,0,0,0,.67l2.45,2.68a.48.48,0,0,0,.36.16.48.48,0,0,0,.34-.14l2.59-2.69A.48.48,0,0,0,1367.86,80.31Z"/><rect class="cls-1" x="1242.69" y="120.92" width="133.06" height="31.5" rx="1.75"/><path class="cls-26" d="M1374,121.17a1.5,1.5,0,0,1,1.5,1.5v28a1.5,1.5,0,0,1-1.5,1.5H1244.44a1.51,1.51,0,0,1-1.5-1.5v-28a1.5,1.5,0,0,1,1.5-1.5H1374m0-.5H1244.44a2,2,0,0,0-2,2v28a2,2,0,0,0,2,2H1374a2,2,0,0,0,2-2v-28a2,2,0,0,0-2-2Z"/><text class="cls-28" transform="translate(1250.44 139.91)">Edit Security G<tspan class="cls-19" x="71.36" y="0">r</tspan><tspan x="74.85" y="0">oups</tspan></text><path class="cls-29" d="M1367.85,135a.49.49,0,0,0-.68,0l-2.23,2.32,0,0-2.08-2.28a.47.47,0,0,0-.35-.15.53.53,0,0,0-.33.12.5.5,0,0,0,0,.68l2.45,2.68a.48.48,0,0,0,.36.16.43.43,0,0,0,.34-.15l2.59-2.68A.48.48,0,0,0,1367.85,135Z"/></g></g></svg>