<svg xmlns="http://www.w3.org/2000/svg" width="908" height="164" viewBox="0 0 908 164"><defs><style>.cls-1{fill:#fff;}.cls-2{fill:#f5f7fb;}.cls-3{font-size:12px;fill:#231815;font-family:Pretendard-Medium-KSCpc-EUC-H, Pretendard;}.cls-4{letter-spacing:-0.07em;}.cls-5{letter-spacing:-0.02em;}.cls-16,.cls-33,.cls-6,.cls-9{font-size:10px;font-family:Pretendard-Light-KSCpc-EUC-H, Pretendard;}.cls-16,.cls-35,.cls-6{fill:#727171;}.cls-7{letter-spacing:-0.02em;}.cls-8{letter-spacing:0.03em;}.cls-28,.cls-29,.cls-30,.cls-31,.cls-32,.cls-9{fill:#0aa899;}.cls-10{letter-spacing:-0.01em;}.cls-11{letter-spacing:-0.01em;}.cls-12{letter-spacing:-0.03em;}.cls-13{fill:#dcdddd;}.cls-14{letter-spacing:-0.02em;}.cls-15{letter-spacing:-0.06em;}.cls-16{letter-spacing:-0.01em;}.cls-17{letter-spacing:-0.1em;}.cls-18{letter-spacing:-0.1em;}.cls-19{letter-spacing:-0.07em;}.cls-20{letter-spacing:-0.01em;}.cls-21{letter-spacing:-0.03em;}.cls-22{letter-spacing:-0.08em;}.cls-23{letter-spacing:-0.02em;}.cls-24{letter-spacing:-0.06em;}.cls-25,.cls-32{letter-spacing:-0.02em;}.cls-26{letter-spacing:0.01em;}.cls-27{fill:#000;}.cls-29{letter-spacing:0.03em;}.cls-30{letter-spacing:-0.01em;}.cls-31,.cls-36{letter-spacing:0.02em;}.cls-33{fill:#9fa0a0;}.cls-34{letter-spacing:-0.05em;}.cls-37{letter-spacing:-0.01em;}.cls-38{letter-spacing:-0.01em;}.cls-39{letter-spacing:-0.08em;}.cls-40{fill:none;stroke:#dcdddd;stroke-miterlimit:10;}</style></defs><title>자산 64</title><g id="레이어_2" data-name="레이어 2"><g id="레이어_1-2" data-name="레이어 1"><rect class="cls-1" width="908" height="54.67"/><rect class="cls-1" y="54.67" width="908" height="54.67"/><rect class="cls-2" y="109.33" width="908" height="54.67"/><text class="cls-3" transform="translate(46 32.99)">Name</text><text class="cls-3" transform="translate(165.93 24.7)">Descri-<tspan x="0" y="18">ption</tspan></text><text class="cls-3" transform="translate(594.51 24.7)"><tspan class="cls-4">A</tspan><tspan class="cls-5" x="7.23" y="0">v</tspan><tspan x="13.52" y="0">ailability</tspan><tspan x="0" y="18">Zone</tspan></text><text class="cls-6" transform="translate(165.93 87.41)">-</text><text class="cls-6" transform="translate(165.93 142.01)">-</text><text class="cls-3" transform="translate(223.51 32.99)">Si<tspan class="cls-7" x="10.15" y="0">z</tspan><tspan x="16.26" y="0">e</tspan></text><text class="cls-6" transform="translate(223.5 87.41)">40<tspan class="cls-8" x="11.91" y="0">G</tspan><tspan x="19.3" y="0">iB</tspan></text><text class="cls-6" transform="translate(223.5 142.01)">40<tspan class="cls-8" x="11.91" y="0">G</tspan><tspan x="19.3" y="0">iB</tspan></text><text class="cls-3" transform="translate(281.08 32.99)">Status</text><text class="cls-6" transform="translate(281.08 87.41)">In-use</text><text class="cls-6" transform="translate(281.08 142.01)">In-use</text><text class="cls-9" transform="translate(46 79)">44<tspan class="cls-10" x="12.17" y="0">f</tspan><tspan x="15.29" y="0">a61bb</tspan><tspan class="cls-11" x="42.41" y="0">-</tspan><tspan x="46.56" y="0">4e9</tspan><tspan class="cls-12" x="64.13" y="0">f</tspan><tspan class="cls-11" x="67.12" y="0">-</tspan><tspan x="71.27" y="0">423e</tspan><tspan x="0" y="16">-abc3-5f5d50d725b4</tspan></text><text class="cls-9" transform="translate(46 133.62)">44<tspan class="cls-10" x="12.17" y="0">f</tspan><tspan x="15.29" y="0">a61bb</tspan><tspan class="cls-11" x="42.41" y="0">-</tspan><tspan x="46.56" y="0">4e9</tspan><tspan class="cls-12" x="64.13" y="0">f</tspan><tspan class="cls-11" x="67.12" y="0">-</tspan><tspan x="71.27" y="0">423e</tspan><tspan x="0" y="16">-abc3-5f5d50d725b4</tspan></text><rect class="cls-1" x="16.25" y="75.25" width="13.5" height="13.5" rx="1.75"/><path class="cls-13" d="M28,75.5A1.5,1.5,0,0,1,29.5,77V87A1.5,1.5,0,0,1,28,88.5H18A1.5,1.5,0,0,1,16.5,87V77A1.5,1.5,0,0,1,18,75.5H28m0-.5H18a2,2,0,0,0-2,2V87a2,2,0,0,0,2,2H28a2,2,0,0,0,2-2V77a2,2,0,0,0-2-2Z"/><rect class="cls-1" x="16.25" y="20.58" width="13.5" height="13.5" rx="1.75"/><path class="cls-13" d="M28,20.83a1.5,1.5,0,0,1,1.5,1.5v10a1.5,1.5,0,0,1-1.5,1.5H18a1.5,1.5,0,0,1-1.5-1.5v-10a1.5,1.5,0,0,1,1.5-1.5H28m0-.5H18a2,2,0,0,0-2,2v10a2,2,0,0,0,2,2H28a2,2,0,0,0,2-2v-10a2,2,0,0,0-2-2Z"/><rect class="cls-1" x="16.25" y="129.92" width="13.5" height="13.5" rx="1.75"/><path class="cls-13" d="M28,130.17a1.5,1.5,0,0,1,1.5,1.5v10a1.5,1.5,0,0,1-1.5,1.5H18a1.5,1.5,0,0,1-1.5-1.5v-10a1.5,1.5,0,0,1,1.5-1.5H28m0-.5H18a2,2,0,0,0-2,2v10a2,2,0,0,0,2,2H28a2,2,0,0,0,2-2v-10a2,2,0,0,0-2-2Z"/><text class="cls-3" transform="translate(338.65 32.99)">G<tspan class="cls-14" x="8.6" y="0">r</tspan><tspan x="12.76" y="0">oup</tspan></text><text class="cls-6" transform="translate(338.65 87.41)">-</text><text class="cls-6" transform="translate(338.65 142.01)">-</text><text class="cls-3" transform="translate(396.22 32.99)"><tspan class="cls-15">T</tspan><tspan x="6.74" y="0">ype</tspan></text><text class="cls-16" transform="translate(396.22 87.41)">_DE<tspan class="cls-17" x="16.29" y="0">F</tspan><tspan x="20.84" y="0">AU</tspan><tspan class="cls-18" x="33.98" y="0">L</tspan><tspan class="cls-19" x="38.25" y="0">T</tspan><tspan class="cls-20" x="43.6" y="0">_</tspan></text><text class="cls-16" transform="translate(396.22 142.01)">_DE<tspan class="cls-17" x="16.29" y="0">F</tspan><tspan x="20.84" y="0">AU</tspan><tspan class="cls-18" x="33.98" y="0">L</tspan><tspan class="cls-19" x="38.25" y="0">T</tspan><tspan class="cls-20" x="43.6" y="0">_</tspan></text><text class="cls-3" transform="translate(474.58 32.99)"><tspan class="cls-21">A</tspan><tspan x="7.63" y="0">ttached </tspan><tspan class="cls-22" x="52.75" y="0">T</tspan><tspan x="59.29" y="0">o</tspan></text><text class="cls-6" transform="translate(474.58 87.41)">/d<tspan class="cls-23" x="9.04" y="0">e</tspan><tspan class="cls-24" x="14.37" y="0">v</tspan><tspan x="18.98" y="0">/</tspan><tspan class="cls-25" x="22.2" y="0">v</tspan><tspan class="cls-26" x="27.17" y="0">d</tspan><tspan x="33.11" y="0">a on</tspan><tspan class="cls-27" x="51.87" y="0"> </tspan><tspan class="cls-28" x="54.28" y="0">ipe</tspan><tspan class="cls-29" x="67.57" y="0">r</tspan><tspan class="cls-30" x="71.24" y="0">f</tspan><tspan class="cls-28" x="74.37" y="0">_se</tspan><tspan class="cls-31" x="88.87" y="0">r</tspan><tspan class="cls-32" x="92.37" y="0">v</tspan><tspan class="cls-28" x="97.34" y="0">er</tspan></text><text class="cls-6" transform="translate(474.58 142.01)">/d<tspan class="cls-23" x="9.04" y="0">e</tspan><tspan class="cls-24" x="14.37" y="0">v</tspan><tspan x="18.98" y="0">/</tspan><tspan class="cls-25" x="22.2" y="0">v</tspan><tspan class="cls-26" x="27.17" y="0">d</tspan><tspan x="33.11" y="0">a on</tspan><tspan class="cls-27" x="51.87" y="0"> </tspan><tspan class="cls-28" x="54.28" y="0">ipe</tspan><tspan class="cls-29" x="67.57" y="0">r</tspan><tspan class="cls-30" x="71.24" y="0">f</tspan><tspan class="cls-28" x="74.37" y="0">_client</tspan></text><rect class="cls-1" x="809.06" y="68.43" width="82.62" height="23.5" rx="1.75"/><path class="cls-13" d="M889.93,68.68a1.51,1.51,0,0,1,1.5,1.5v20a1.5,1.5,0,0,1-1.5,1.5H810.81a1.5,1.5,0,0,1-1.5-1.5v-20a1.5,1.5,0,0,1,1.5-1.5h79.12m0-.5H810.81a2,2,0,0,0-2,2v20a2,2,0,0,0,2,2h79.12a2,2,0,0,0,2-2v-20a2,2,0,0,0-2-2Z"/><text class="cls-33" transform="translate(816.81 83.42)">Edit <tspan class="cls-34" x="19.29" y="0">V</tspan><tspan x="25.04" y="0">olume</tspan></text><path class="cls-35" d="M883.78,78.5a.48.48,0,0,0-.68,0l-2.23,2.31,0,0-2.08-2.27a.44.44,0,0,0-.35-.15.48.48,0,0,0-.33.12.5.5,0,0,0,0,.68l2.45,2.68a.52.52,0,0,0,.36.16.49.49,0,0,0,.34-.15l2.59-2.68A.48.48,0,0,0,883.78,78.5Z"/><rect class="cls-1" x="809.06" y="124.92" width="82.62" height="23.5" rx="1.75"/><path class="cls-13" d="M889.93,125.17a1.5,1.5,0,0,1,1.5,1.5v20a1.51,1.51,0,0,1-1.5,1.5H810.81a1.5,1.5,0,0,1-1.5-1.5v-20a1.5,1.5,0,0,1,1.5-1.5h79.12m0-.5H810.81a2,2,0,0,0-2,2v20a2,2,0,0,0,2,2h79.12a2,2,0,0,0,2-2v-20a2,2,0,0,0-2-2Z"/><text class="cls-33" transform="translate(816.81 139.91)">Edit <tspan class="cls-34" x="19.29" y="0">V</tspan><tspan x="25.04" y="0">olume</tspan></text><path class="cls-35" d="M883.78,135a.49.49,0,0,0-.68,0l-2.23,2.32,0,0L878.76,135a.47.47,0,0,0-.35-.15.53.53,0,0,0-.33.12.5.5,0,0,0,0,.68l2.45,2.68a.48.48,0,0,0,.36.16.45.45,0,0,0,.34-.15l2.59-2.68A.48.48,0,0,0,883.78,135Z"/><text class="cls-6" transform="translate(594.51 87.41)">n<tspan class="cls-25" x="5.49" y="0">o</tspan><tspan class="cls-23" x="10.89" y="0">v</tspan><tspan x="15.89" y="0">a</tspan></text><text class="cls-6" transform="translate(594.51 142.01)">n<tspan class="cls-25" x="5.49" y="0">o</tspan><tspan class="cls-23" x="10.89" y="0">v</tspan><tspan x="15.89" y="0">a</tspan></text><text class="cls-3" transform="translate(672.88 24.7)">Boota-<tspan x="0" y="18">ble</tspan></text><text class="cls-3" transform="translate(730.45 32.99)">Enc<tspan class="cls-36" x="20.24" y="0">r</tspan><tspan x="24.8" y="0">yp</tspan><tspan class="cls-37" x="38.34" y="0">t</tspan><tspan x="42.47" y="0">ed</tspan></text><text class="cls-3" transform="translate(808.81 32.99)"><tspan class="cls-38">A</tspan><tspan x="7.92" y="0">ctions</tspan></text><text class="cls-6" transform="translate(672.88 87.41)"><tspan class="cls-39">Y</tspan><tspan x="5.42" y="0">es</tspan></text><text class="cls-6" transform="translate(672.88 142.01)"><tspan class="cls-39">Y</tspan><tspan x="5.42" y="0">es</tspan></text><text class="cls-6" transform="translate(730.45 87.41)">No</text><text class="cls-6" transform="translate(730.45 142.01)">No</text><line class="cls-40" y1="54.67" x2="908" y2="54.67"/></g></g></svg>