<svg xmlns="http://www.w3.org/2000/svg" width="241.98" height="88" viewBox="0 0 241.98 88"><defs><style>.cls-1{fill:#525a6f;opacity:0.6;}.cls-2{fill:#2e3341;}.cls-3{fill:#96c2fb;}.cls-4{fill:#619be1;}.cls-5{fill:#4079c7;}.cls-6{fill:#2452a2;}.cls-7{fill:#bac339;}.cls-8{fill:#cfda3f;}.cls-9{fill:#8d9124;}.cls-10{font-size:16px;fill:#231815;font-family:Pretendard-Light-KSCpc-EUC-H, Pretendard;}</style></defs><title>자산 80</title><g id="레이어_2" data-name="레이어 2"><g id="레이어_1-2" data-name="레이어 1"><rect class="cls-1" width="241.98" height="88" rx="2"/><path class="cls-2" d="M240,1a1,1,0,0,1,1,1V86a1,1,0,0,1-1,1H2a1,1,0,0,1-1-1V2A1,1,0,0,1,2,1H240m0-1H2A2,2,0,0,0,0,2V86a2,2,0,0,0,2,2H240a2,2,0,0,0,2-2V2a2,2,0,0,0-2-2Z"/><polygon class="cls-3" points="121.66 24.55 114.42 20.37 121.61 16.22 128.85 20.4 121.66 24.55"/><polygon class="cls-4" points="128.85 28.7 121.66 32.85 121.66 24.55 128.85 20.4 128.85 28.7"/><polygon class="cls-5" points="121.66 24.55 114.47 20.4 114.47 28.7 121.66 32.85 121.66 24.55"/><polygon class="cls-6" points="110.56 42.2 103.33 38.03 110.52 33.88 117.75 38.05 110.56 42.2"/><polygon class="cls-4" points="117.75 46.36 110.56 50.51 110.56 42.2 117.75 38.05 117.75 46.36"/><polygon class="cls-5" points="110.56 42.2 103.37 38.05 103.37 46.36 110.56 50.51 110.56 42.2"/><polygon class="cls-3" points="110.56 30.96 103.33 26.78 110.52 22.63 117.75 26.81 110.56 30.96"/><polygon class="cls-4" points="117.75 35.11 110.56 39.26 110.56 30.96 117.75 26.81 117.75 35.11"/><polygon class="cls-5" points="110.56 30.96 103.37 26.81 103.37 35.11 110.56 39.26 110.56 30.96"/><polygon class="cls-6" points="131.47 41.52 124.23 37.34 131.42 33.19 138.66 37.36 131.47 41.52"/><polygon class="cls-4" points="138.66 45.67 131.47 49.82 131.47 41.52 138.66 37.36 138.66 45.67"/><polygon class="cls-5" points="131.47 41.52 124.28 37.36 124.28 45.67 131.47 49.82 131.47 41.52"/><polygon class="cls-3" points="131.47 30.27 124.23 26.09 131.42 21.94 138.66 26.12 131.47 30.27"/><polygon class="cls-4" points="138.66 34.42 131.47 38.57 131.47 30.27 138.66 26.12 138.66 34.42"/><polygon class="cls-5" points="131.47 30.27 124.28 26.12 124.28 34.42 131.47 38.57 131.47 30.27"/><polygon class="cls-6" points="120.37 47.92 113.14 43.74 120.33 39.59 127.56 43.77 120.37 47.92"/><polygon class="cls-4" points="127.56 52.07 120.37 56.22 120.37 47.92 127.56 43.77 127.56 52.07"/><polygon class="cls-5" points="120.37 47.92 113.18 43.77 113.18 52.07 120.37 56.22 120.37 47.92"/><polygon class="cls-7" points="120.37 36.67 113.14 32.5 120.33 28.34 127.56 32.52 120.37 36.67"/><polygon class="cls-8" points="127.56 40.83 120.37 44.98 120.37 36.67 127.56 32.52 127.56 40.83"/><polygon class="cls-9" points="120.37 36.67 113.18 32.52 113.18 40.83 120.37 44.98 120.37 36.67"/><text class="cls-10" transform="translate(95.31 71.78)">spine-1</text></g></g></svg>