<svg xmlns="http://www.w3.org/2000/svg" width="241.98" height="64" viewBox="0 0 241.98 64"><defs><style>.cls-1{fill:#d2d8e5;opacity:0.6;}.cls-2{fill:#727c97;}.cls-3{font-size:16px;font-family:Pretendard-Light-KSCpc-EUC-H, Pretendard;}.cls-4{letter-spacing:-0.02em;}.cls-5{letter-spacing:-0.04em;}</style></defs><title>자산 82</title><g id="레이어_2" data-name="레이어 2"><g id="레이어_1-2" data-name="레이어 1"><rect class="cls-1" width="241.98" height="64" rx="2"/><path class="cls-2" d="M240,1a1,1,0,0,1,1,1V62a1,1,0,0,1-1,1H2a1,1,0,0,1-1-1V2A1,1,0,0,1,2,1H240m0-1H2A2,2,0,0,0,0,2V62a2,2,0,0,0,2,2H240a2,2,0,0,0,2-2V2a2,2,0,0,0-2-2Z"/><text class="cls-3" transform="translate(81.35 38.5)">cont<tspan class="cls-4" x="31.47" y="0">r</tspan><tspan x="36.54" y="0">olle</tspan><tspan class="cls-5" x="60.99" y="0">r</tspan><tspan x="65.73" y="0">-1</tspan></text></g></g></svg>