<svg xmlns="http://www.w3.org/2000/svg" width="43" height="184" viewBox="0 0 43 184"><defs><style>.cls-1,.cls-2{fill:#0aa899;}.cls-1{opacity:0.3;}.cls-3{font-size:12px;font-family:Pretendard-Light-KSCpc-EUC-H, Pretendard;}.cls-4{letter-spacing:0em;}.cls-5{letter-spacing:-0.03em;}.cls-6{letter-spacing:-0.06em;}.cls-7{letter-spacing:-0.03em;}.cls-8{letter-spacing:0em;}.cls-9{fill:gray;}.cls-10{letter-spacing:-0.08em;}.cls-11{letter-spacing:-0.01em;}.cls-12{letter-spacing:-0.03em;}.cls-13{letter-spacing:-0.04em;}</style></defs><title>자산 83</title><g id="레이어_2" data-name="레이어 2"><g id="레이어_1-2" data-name="레이어 1"><rect class="cls-1" width="43" height="184" rx="2"/><path class="cls-2" d="M41,1a1,1,0,0,1,1,1V182a1,1,0,0,1-1,1H2a1,1,0,0,1-1-1V2A1,1,0,0,1,2,1H41m0-1H2A2,2,0,0,0,0,2V182a2,2,0,0,0,2,2H41a2,2,0,0,0,2-2V2a2,2,0,0,0-2-2Z"/><text class="cls-3" transform="translate(18.56 145.03) rotate(-90)">ampho<tspan class="cls-4" x="36.35" y="0">r</tspan><tspan x="40.35" y="0">a</tspan><tspan class="cls-5" x="46.67" y="0">-</tspan><tspan x="51.38" y="0">2</tspan><tspan class="cls-6" x="58.44" y="0">f</tspan><tspan x="61.63" y="0">4589</tspan><tspan class="cls-7" x="90.34" y="0">8</tspan><tspan x="97.24" y="0">..</tspan><tspan class="cls-8" x="103.13" y="0">.</tspan><tspan class="cls-9"><tspan x="-13.08" y="16">192</tspan><tspan class="cls-10" x="6.25" y="16">.</tspan><tspan x="8.2" y="16">16</tspan><tspan class="cls-7" x="20.46" y="16">8</tspan><tspan class="cls-11" x="27.36" y="16">.</tspan><tspan x="30.19" y="16">5</tspan><tspan class="cls-7" x="37.2" y="16">3</tspan><tspan class="cls-10" x="44.19" y="16">.</tspan><tspan x="46.15" y="16">1</tspan><tspan class="cls-11" x="51.21" y="16">4</tspan><tspan x="58.39" y="16">1/1</tspan><tspan class="cls-12" x="72.39" y="16">0.0</tspan><tspan class="cls-10" x="88.28" y="16">.</tspan><tspan x="90.24" y="16">1</tspan><tspan class="cls-13" x="95.3" y="16">1</tspan><tspan class="cls-10" x="99.87" y="16">.</tspan><tspan x="101.82" y="16">1</tspan><tspan class="cls-11" x="106.89" y="16">4</tspan><tspan x="114.07" y="16">1</tspan></tspan></text></g></g></svg>