<svg xmlns="http://www.w3.org/2000/svg" width="159.07" height="48" viewBox="0 0 159.07 48"><defs><style>.cls-1,.cls-8{fill:#0fd977;}.cls-1{opacity:0.4;}.cls-2{font-size:12px;font-family:Pretendard-Light-KSCpc-EUC-H, Pretendard;}.cls-3{letter-spacing:-0.02em;}.cls-4{letter-spacing:-0.03em;}.cls-5{letter-spacing:-0.08em;}.cls-6{letter-spacing:-0.04em;}.cls-7{letter-spacing:-0.02em;}</style></defs><title>자산 84</title><g id="레이어_2" data-name="레이어 2"><g id="레이어_1-2" data-name="레이어 1"><rect class="cls-1" width="159.07" height="48" rx="2"/><text class="cls-2" transform="translate(56.63 19.61)">ssn_<tspan class="cls-3" x="23.23" y="0">w</tspan><tspan x="32.24" y="0">eb</tspan><tspan x="-8.66" y="14.4">:1</tspan><tspan class="cls-4" x="-0.66" y="14.4">0.0</tspan><tspan class="cls-5" x="15.24" y="14.4">.</tspan><tspan x="17.2" y="14.4">1</tspan><tspan class="cls-6" x="22.26" y="14.4">1</tspan><tspan class="cls-4" x="26.82" y="14.4">.</tspan><tspan x="29.42" y="14.4">0/</tspan><tspan class="cls-7" x="40.28" y="14.4">2</tspan><tspan x="47.17" y="14.4">4</tspan></text><path class="cls-8" d="M157.07,1a1,1,0,0,1,1,1V46a1,1,0,0,1-1,1H2a1,1,0,0,1-1-1V2A1,1,0,0,1,2,1H157.07m0-1H2A2,2,0,0,0,0,2V46a2,2,0,0,0,2,2H157.07a2,2,0,0,0,2-2V2a2,2,0,0,0-2-2Z"/></g></g></svg>