<svg xmlns="http://www.w3.org/2000/svg" width="15" height="15" viewBox="0 0 15 15"><defs><style>.cls-1{fill:#efefef;}.cls-2{fill:#dcdddd;}.cls-3{fill:#fff;}</style></defs><title>자산 35</title><g id="레이어_2" data-name="레이어 2"><g id="레이어_1-2" data-name="레이어 1"><rect class="cls-1" width="15" height="15" rx="2"/><path class="cls-2" d="M13,.5A1.5,1.5,0,0,1,14.5,2V13A1.5,1.5,0,0,1,13,14.5H2A1.5,1.5,0,0,1,.5,13V2A1.5,1.5,0,0,1,2,.5H13M13,0H2A2,2,0,0,0,0,2V13a2,2,0,0,0,2,2H13a2,2,0,0,0,2-2V2a2,2,0,0,0-2-2Z"/><path class="cls-3" d="M10.82,8.25H4.18a.75.75,0,1,1,0-1.5h6.64a.75.75,0,0,1,0,1.5Z"/></g></g></svg>