<svg xmlns="http://www.w3.org/2000/svg" width="19.43" height="16" viewBox="0 0 19.43 16"><title>자산 27</title><g id="레이어_2" data-name="레이어 2"><g id="레이어_1-2" data-name="레이어 1"><path d="M10.07.39a1.28,1.28,0,0,0,0,1.81l6.17,6-.08.07-6.07,5.55a1.27,1.27,0,0,0-.39.94,1.24,1.24,0,0,0,.32.87,1.27,1.27,0,0,0,1.8.07L19,9.14a1.26,1.26,0,0,0,.42-1A1.25,1.25,0,0,0,19,7.27L11.89.36A1.29,1.29,0,0,0,10.07.39Z"/><path d="M.36.39a1.28,1.28,0,0,0,0,1.81l6.17,6-.07.07L.41,13.78a1.27,1.27,0,0,0-.39.94,1.29,1.29,0,0,0,.32.87,1.27,1.27,0,0,0,1.8.07L9.29,9.14a1.31,1.31,0,0,0,.43-1,1.29,1.29,0,0,0-.39-.91L2.17.36A1.28,1.28,0,0,0,.36.39Z"/></g></g></svg>