<svg xmlns="http://www.w3.org/2000/svg" width="24" height="24" viewBox="0 0 24 24"><title>자산 5</title><g id="레이어_2" data-name="레이어 2"><g id="레이어_1-2" data-name="레이어 1"><path d="M23,9.72H21.85a1.07,1.07,0,0,1-1-.73,9.14,9.14,0,0,0-.47-1.12,1.06,1.06,0,0,1,.19-1.21l.82-.82a1,1,0,0,0,.3-.71,1,1,0,0,0-.3-.72L19.59,2.62a1,1,0,0,0-1.43,0l-.83.83a1,1,0,0,1-1.2.19A8.67,8.67,0,0,0,15,3.17a1,1,0,0,1-.72-1V1a1,1,0,0,0-1-1H10.73a1,1,0,0,0-1,1V2.17a1,1,0,0,1-.72,1,9.28,9.28,0,0,0-1.13.47,1,1,0,0,1-1.2-.19l-.83-.83a1,1,0,0,0-.71-.29h0a1,1,0,0,0-.72.29L2.62,4.41a1,1,0,0,0-.3.72,1,1,0,0,0,.3.71l.82.82a1.06,1.06,0,0,1,.19,1.21A9.14,9.14,0,0,0,3.16,9a1.08,1.08,0,0,1-1,.73H1a1,1,0,0,0-1,1v2.54a1,1,0,0,0,1,1H2.12a1.09,1.09,0,0,1,1,.73,9.56,9.56,0,0,0,.47,1.15,1,1,0,0,1-.19,1.2l-.8.8a1,1,0,0,0,0,1.43l1.79,1.79a1,1,0,0,0,.72.29h0a1,1,0,0,0,.71-.29l.79-.79a1,1,0,0,1,1.2-.19A8.22,8.22,0,0,0,9,20.88a1.09,1.09,0,0,1,.74,1V23a1,1,0,0,0,1,1h2.54a1,1,0,0,0,1-1V21.91a1.09,1.09,0,0,1,.74-1,8.22,8.22,0,0,0,1.15-.48,1,1,0,0,1,1.2.19l.79.79a1,1,0,0,0,1.43,0l1.79-1.79a1,1,0,0,0,0-1.43l-.8-.8a1,1,0,0,1-.19-1.2A9.56,9.56,0,0,0,20.86,15a1.09,1.09,0,0,1,1-.73H23a1,1,0,0,0,1-1V10.73A1,1,0,0,0,23,9.72ZM12,17.65A5.65,5.65,0,1,1,17.65,12,5.65,5.65,0,0,1,12,17.65Z"/></g></g></svg>