<svg xmlns="http://www.w3.org/2000/svg" width="24" height="16.53" viewBox="0 0 24 16.53"><title>자산 11</title><g id="레이어_2" data-name="레이어 2"><g id="레이어_1-2" data-name="레이어 1"><circle cx="12" cy="12" r="0.02"/><path d="M22.18,5.64a.22.22,0,0,0-.13-.08.18.18,0,0,0-.14.06l-3.58,4.2a.18.18,0,0,0,0,.14,9.26,9.26,0,0,1-.12,4.5.17.17,0,0,0,.1.21l4.67,1.85H23a.17.17,0,0,0,.16-.11,12,12,0,0,0-1-10.78Z"/><path d="M18.7,2.13A.17.17,0,0,0,18.63,2,12,12,0,0,0,0,11.84.17.17,0,0,0,.17,12a.17.17,0,0,0,.17-.16,9.08,9.08,0,0,1,9.21-9,9,9,0,0,1,5.6,2,.18.18,0,0,0,.22,0l3.27-2.64A.2.2,0,0,0,18.7,2.13Z"/><path d="M21.12,4.47l.72-.85a.86.86,0,0,0,0-1.11.46.46,0,0,0-.07-.07l0,0-.05,0,0,0-.05,0,0,0-.05,0h0l-.05,0,0,0h-.53l0,0h0l-.05,0h0l0,0h0a.18.18,0,0,1-.07,0l-.86.7L16.36,5.84l-3.47,2.8a3.34,3.34,0,0,0-.84-.11,3.47,3.47,0,1,0,3.42,3.52,3.41,3.41,0,0,0-.09-.85l2.52-3ZM12,13.54A1.54,1.54,0,1,1,13.54,12,1.54,1.54,0,0,1,12,13.54Z"/></g></g></svg>