<svg xmlns="http://www.w3.org/2000/svg" width="24" height="24" viewBox="0 0 24 24"><defs><style>.cls-1{fill-rule:evenodd;}</style></defs><title>자산 19</title><g id="레이어_2" data-name="레이어 2"><g id="레이어_1-2" data-name="레이어 1"><path d="M12,15.41h0a1.85,1.85,0,1,0,1.83,1.88A1.86,1.86,0,0,0,12,15.41Z"/><path d="M12.1,4.9h0a1.85,1.85,0,0,0-1.89,1.82l-.07,5.58a1.86,1.86,0,0,0,3.71,0l.08-5.58A1.85,1.85,0,0,0,12.1,4.9Z"/><path class="cls-1" d="M20.47,3.53A12,12,0,0,0,0,12a11.81,11.81,0,0,0,3.52,8.47,11.94,11.94,0,0,0,17,0,11.93,11.93,0,0,0,0-16.94ZM19.09,19.1A10,10,0,1,1,12,2,10,10,0,0,1,19.09,19.1Z"/></g></g></svg>