<svg xmlns="http://www.w3.org/2000/svg" width="24" height="24" viewBox="0 0 24 24"><defs><style>.cls-1{fill-rule:evenodd;}</style></defs><title>자산 17</title><g id="레이어_2" data-name="레이어 2"><g id="레이어_1-2" data-name="레이어 1"><path class="cls-1" d="M19.1,4.9A10,10,0,1,0,22,12,10,10,0,0,0,19.1,4.9ZM7.88,16.12h0a.94.94,0,0,1-.25-.74.86.86,0,0,1,.28-.68L10.6,12,7.88,9.3a.87.87,0,0,1-.26-.68.88.88,0,0,1,.29-.71.89.89,0,0,1,.71-.29,1,1,0,0,1,.66.28L12,10.61l2.73-2.72a.92.92,0,0,1,.66-.27,1,1,0,0,1,.69.31.94.94,0,0,1,.31.69.88.88,0,0,1-.26.68L13.4,12l2.68,2.69a.88.88,0,0,1,.29.66.9.9,0,0,1-1,1,.88.88,0,0,1-.68-.28L12,13.42,9.31,16.1a.83.83,0,0,1-.69.28.94.94,0,0,1-.74-.26ZM3.51,20.5h0A11.93,11.93,0,0,1,0,12,12,12,0,0,1,12,0a12,12,0,0,1,8.49,20.49A11.87,11.87,0,0,1,12,24a11.84,11.84,0,0,1-8.49-3.5Z"/></g></g></svg>