<svg xmlns="http://www.w3.org/2000/svg" width="24" height="23.1" viewBox="0 0 24 23.1"><title>자산 6</title><g id="레이어_2" data-name="레이어 2"><g id="레이어_1-2" data-name="레이어 1"><path d="M.13,6a.83.83,0,0,1,.12-.16A.83.83,0,0,0,.13,6Z"/><path d="M.1,6.07a1,1,0,0,0,0,.85A1,1,0,0,1,.1,6.07Z"/><path d="M.4,5.72l.12-.07Z"/><path d="M.52,7.34.4,7.27Z"/><path d="M.4,10.78l.12-.07Z"/><path d="M.1,11.13a1,1,0,0,0,0,.91A1,1,0,0,1,.1,11.13Z"/><path d="M.25,7.13A.57.57,0,0,1,.13,7,.57.57,0,0,0,.25,7.13Z"/><path d="M.52,12.4.4,12.33Z"/><path d="M.14,11.05a.76.76,0,0,1,.11-.14A.76.76,0,0,0,.14,11.05Z"/><path d="M.25,12.19A.79.79,0,0,1,.13,12,.79.79,0,0,0,.25,12.19Z"/><path d="M23.48,15.76,22,15l-8.79,4.41a2.63,2.63,0,0,1-2.32,0L2.05,15l-1.53.76a1,1,0,0,0,0,1.7L11.58,23a.89.89,0,0,0,.84,0l11.06-5.54A1,1,0,0,0,23.48,15.76Z"/><path d="M23.71,10.86h0l-.08-.07-.06,0,0,0h0L22,9.94h0l-5,2.53-3.75,1.88a2.63,2.63,0,0,1-2.32,0L7.09,12.47l-5-2.53-1.53.77-.12.07-.06,0-.09.09a.76.76,0,0,0-.11.14.59.59,0,0,0,0,.08,1,1,0,0,0,0,.91.79.79,0,0,0,.12.15.67.67,0,0,0,.15.14l.12.07,3.35,1.68L11.58,18l.15.06a.93.93,0,0,0,.54,0l.15-.06L18,15.17l2.18-1.09,3.35-1.68A1,1,0,0,0,23.79,11Z"/><path d="M.13,7a.57.57,0,0,0,.12.15.67.67,0,0,0,.15.14l.12.07,1.53.77L3.87,9l5,2.53,2.67,1.34.1,0,.1,0,.11,0h.22l.11,0,.1,0,.1,0,2.67-1.34L18,10.11,20.13,9,22,8.11l1.53-.77a1,1,0,0,0,0-1.69L18,2.87,12.42.1,12.27,0a.93.93,0,0,0-.54,0L11.58.1.52,5.65.4,5.72a.64.64,0,0,0-.15.13A.83.83,0,0,0,.13,6l0,.06a1,1,0,0,0,0,.85Z"/></g></g></svg>