<svg xmlns="http://www.w3.org/2000/svg" width="24" height="24" viewBox="0 0 24 24"><title>자산 15</title><g id="레이어_2" data-name="레이어 2"><g id="레이어_1-2" data-name="레이어 1"><path d="M22.25,1.74a6,6,0,0,0-8.43,0L11.09,4.47a1.34,1.34,0,0,0,0,1.89,1.37,1.37,0,0,0,1.9,0l2.72-2.72a3.29,3.29,0,0,1,4.65,4.65l-4.28,4.28a3.3,3.3,0,0,1-4.65,0,1.36,1.36,0,0,0-1.89,0,1.34,1.34,0,0,0,0,1.89,6,6,0,0,0,8.44,0l4.27-4.28a6,6,0,0,0,0-8.44Z"/><path d="M11,17.64,8.29,20.36a3.29,3.29,0,0,1-4.65-4.65l4.28-4.28a3.3,3.3,0,0,1,4.65,0,1.36,1.36,0,0,0,1.89,0,1.34,1.34,0,0,0,0-1.89A6,6,0,0,0,6,9.54L1.75,13.82A6,6,0,0,0,6,24a5.92,5.92,0,0,0,4.22-1.75l2.73-2.72A1.34,1.34,0,1,0,11,17.64Z"/></g></g></svg>