<svg xmlns="http://www.w3.org/2000/svg" width="24" height="22.42" viewBox="0 0 24 22.42"><title>자산 7</title><g id="레이어_2" data-name="레이어 2"><g id="레이어_1-2" data-name="레이어 1"><path d="M22,9.61a5.16,5.16,0,0,0,.07-.79A4.87,4.87,0,0,0,17.22,4h-.07a7.41,7.41,0,0,0-14,3.46c0,.16,0,.31,0,.47a4.88,4.88,0,0,0,1.14,9.43h0a4.41,4.41,0,0,0,.52,0H19.82a4.18,4.18,0,0,0,3.67-2.19,4.06,4.06,0,0,0,.51-2A4.18,4.18,0,0,0,22,9.61Z"/><path d="M22.21,22.42H1.79a.8.8,0,0,1,0-1.6H22.21a.8.8,0,0,1,0,1.6Z"/></g></g></svg>