<svg xmlns="http://www.w3.org/2000/svg" width="24" height="24" viewBox="0 0 24 24"><title>자산 9</title><g id="레이어_2" data-name="레이어 2"><g id="레이어_1-2" data-name="레이어 1"><path d="M23.28,16.1a12,12,0,0,0,.1-7.9l0-.11A12,12,0,0,0,.76,7.79s0,.08,0,.11a12,12,0,0,0-.1,7.9l0,.11a12,12,0,0,0,22.59.3s0-.07,0-.11ZM11.86,22.28c-.45,0-1.18-.84-1.77-2.7a18.3,18.3,0,0,1-.67-3l5,.07a19,19,0,0,1-.75,3c-.64,1.84-1.39,2.66-1.85,2.65ZM9.24,14.82A26.81,26.81,0,0,1,9.15,12c0-1,.07-1.93.16-2.85l5.45.07c.07.92.11,1.88.09,2.86s-.07,1.93-.16,2.85Zm-7.52-3A10.22,10.22,0,0,1,2.16,9l5.43.07c-.1.93-.15,1.89-.16,2.85s0,1.92.08,2.85l-5.42-.07a10.39,10.39,0,0,1-.37-2.86ZM12.14,1.72c.45,0,1.18.84,1.77,2.7a18.53,18.53,0,0,1,.67,3l-5-.07a19,19,0,0,1,.75-3c.64-1.84,1.39-2.65,1.85-2.65Zm4.35,7.49,5.42.07a10.39,10.39,0,0,1,.37,2.86A10.22,10.22,0,0,1,21.84,15l-5.43-.07c.1-.93.15-1.89.16-2.85s0-1.92-.08-2.85Zm4.77-1.66-4.94-.07a16.57,16.57,0,0,0-1.5-5.37,10.34,10.34,0,0,1,6.44,5.44ZM9.44,2A16.53,16.53,0,0,0,7.81,7.37L2.86,7.3A10.34,10.34,0,0,1,9.44,2ZM2.74,16.45l4.94.07a16.57,16.57,0,0,0,1.5,5.37,10.34,10.34,0,0,1-6.44-5.44ZM14.56,22a16.53,16.53,0,0,0,1.63-5.33l4.95.07A10.34,10.34,0,0,1,14.56,22Z"/></g></g></svg>