<svg xmlns="http://www.w3.org/2000/svg" width="18.85" height="24" viewBox="0 0 18.85 24"><title>자산 12</title><g id="레이어_2" data-name="레이어 2"><g id="레이어_1-2" data-name="레이어 1"><path d="M18.69,18l-1.21-2.52A4.83,4.83,0,0,1,17,13.38v-4A7.61,7.61,0,0,0,11.2,2.06a1.6,1.6,0,0,0,0-.23,1.84,1.84,0,0,0-3.67,0,1.79,1.79,0,0,0,0,.23A7.59,7.59,0,0,0,1.83,9.43v4a4.89,4.89,0,0,1-.47,2.12L.16,18.05a1.61,1.61,0,0,0,1.46,2.31l15.61,0A1.62,1.62,0,0,0,18.69,18Z"/><path d="M7.49,21.13a.79.79,0,0,0-.72,1.09,2.88,2.88,0,0,0,5.33,0,.79.79,0,0,0-.73-1.09Z"/></g></g></svg>