<svg xmlns="http://www.w3.org/2000/svg" width="24" height="22.38" viewBox="0 0 24 22.38"><title>자산 4</title><g id="레이어_2" data-name="레이어 2"><g id="레이어_1-2" data-name="레이어 1"><path d="M23.87,11.68,12.31.12a.46.46,0,0,0-.62,0L.13,11.68a.44.44,0,0,0,0,.62.45.45,0,0,0,.61,0L3.11,9.93V22a.43.43,0,0,0,.43.43H9.12A.43.43,0,0,0,9.55,22V14.86h4.9V22a.43.43,0,0,0,.43.43h5.58a.43.43,0,0,0,.43-.43v-12l2.37,2.37a.43.43,0,0,0,.31.12.42.42,0,0,0,.3-.12A.42.42,0,0,0,24,12,.43.43,0,0,0,23.87,11.68Z"/></g></g></svg>