<svg xmlns="http://www.w3.org/2000/svg" width="42.39" height="48" viewBox="0 0 42.39 48"><defs><style>.cls-1{fill:#96c2fb;}.cls-2{fill:#619be1;}.cls-3{fill:#4079c7;}.cls-4{fill:#2452a2;}.cls-5{fill:#bac339;}.cls-6{fill:#cfda3f;}.cls-7{fill:#8d9124;}</style></defs><title>자산 21</title><g id="레이어_2" data-name="레이어 2"><g id="레이어_1-2" data-name="레이어 1"><polygon class="cls-1" points="22 9.99 13.31 4.98 21.94 0 30.63 5.01 22 9.99"/><polygon class="cls-2" points="30.63 14.98 22 19.96 22 9.99 30.63 5.01 30.63 14.98"/><polygon class="cls-3" points="22 9.99 13.37 5.01 13.37 14.98 22 19.96 22 9.99"/><polygon class="cls-4" points="8.68 31.18 0 26.17 8.63 21.18 17.31 26.2 8.68 31.18"/><polygon class="cls-2" points="17.31 36.16 8.68 41.14 8.68 31.18 17.31 26.2 17.31 36.16"/><polygon class="cls-3" points="8.68 31.18 0.05 26.2 0.05 36.16 8.68 41.14 8.68 31.18"/><polygon class="cls-1" points="8.68 17.68 0 12.67 8.63 7.69 17.31 12.7 8.68 17.68"/><polygon class="cls-2" points="17.31 22.66 8.68 27.64 8.68 17.68 17.31 12.7 17.31 22.66"/><polygon class="cls-3" points="8.68 17.68 0.05 12.7 0.05 22.66 8.68 27.64 8.68 17.68"/><polygon class="cls-4" points="33.77 30.35 25.08 25.34 33.71 20.36 42.39 25.37 33.77 30.35"/><polygon class="cls-2" points="42.39 35.33 33.77 40.31 33.77 30.35 42.39 25.37 42.39 35.33"/><polygon class="cls-3" points="33.77 30.35 25.14 25.37 25.14 35.33 33.77 40.31 33.77 30.35"/><polygon class="cls-1" points="33.77 16.85 25.08 11.84 33.71 6.86 42.39 11.87 33.77 16.85"/><polygon class="cls-2" points="42.39 21.84 33.77 26.82 33.77 16.85 42.39 11.87 42.39 21.84"/><polygon class="cls-3" points="33.77 16.85 25.14 11.87 25.14 21.84 33.77 26.82 33.77 16.85"/><polygon class="cls-4" points="20.45 38.04 11.77 33.03 20.4 28.04 29.08 33.06 20.45 38.04"/><polygon class="cls-2" points="29.08 43.02 20.45 48 20.45 38.04 29.08 33.06 29.08 43.02"/><polygon class="cls-3" points="20.45 38.04 11.82 33.06 11.82 43.02 20.45 48 20.45 38.04"/><polygon class="cls-5" points="20.45 24.54 11.77 19.53 20.4 14.55 29.08 19.56 20.45 24.54"/><polygon class="cls-6" points="29.08 29.52 20.45 34.5 20.45 24.54 29.08 19.56 29.08 29.52"/><polygon class="cls-7" points="20.45 24.54 11.82 19.56 11.82 29.52 20.45 34.5 20.45 24.54"/></g></g></svg>