<svg xmlns="http://www.w3.org/2000/svg" width="16" height="12.44" viewBox="0 0 16 12.44"><defs><style>.cls-1{fill-rule:evenodd;}</style></defs><title>자산 30</title><g id="레이어_2" data-name="레이어 2"><g id="레이어_1-2" data-name="레이어 1"><path class="cls-1" d="M5.12,12.44h0a2,2,0,0,1-.58-.1A2.18,2.18,0,0,1,4.06,12L.44,8.36A1.36,1.36,0,0,1,0,7.23a1.48,1.48,0,0,1,.44-1.1A1.5,1.5,0,0,1,1.61,5.7a1.48,1.48,0,0,1,1.1.43L5.12,8.62,13.33.44A1.54,1.54,0,0,1,14.46,0a1.57,1.57,0,0,1,1.1.44A1.45,1.45,0,0,1,16,1.57a1.27,1.27,0,0,1-.44,1.06L6.28,12a5.3,5.3,0,0,0-.51.36,2.1,2.1,0,0,1-.65.1Z"/></g></g></svg>