<svg xmlns="http://www.w3.org/2000/svg" width="19.43" height="16" viewBox="0 0 19.43 16"><title>자산 26</title><g id="레이어_2" data-name="레이어 2"><g id="레이어_1-2" data-name="레이어 1"><path d="M9.36,15.61a1.28,1.28,0,0,0,0-1.81l-6.17-6,.08-.07L9.31,2.22a1.3,1.3,0,0,0,.38-.94A1.28,1.28,0,0,0,9.38.41,1.28,1.28,0,0,0,7.57.34L.42,6.86a1.34,1.34,0,0,0-.42,1,1.25,1.25,0,0,0,.39.91l7.15,6.91A1.29,1.29,0,0,0,9.36,15.61Z"/><path d="M19.07,15.61a1.28,1.28,0,0,0,0-1.81l-6.17-6L13,7.77,19,2.22a1.27,1.27,0,0,0,.39-.94,1.24,1.24,0,0,0-.32-.87,1.27,1.27,0,0,0-1.8-.07L10.14,6.86a1.26,1.26,0,0,0-.42,1,1.28,1.28,0,0,0,.38.91l7.16,6.91A1.28,1.28,0,0,0,19.07,15.61Z"/></g></g></svg>