<svg xmlns="http://www.w3.org/2000/svg" width="16.01" height="16" viewBox="0 0 16.01 16"><defs><style>.cls-1{fill-rule:evenodd;}</style></defs><title>자산 29</title><g id="레이어_2" data-name="레이어 2"><g id="레이어_1-2" data-name="레이어 1"><path class="cls-1" d="M.49,15.53h0A1.82,1.82,0,0,1,0,14.17a1.69,1.69,0,0,1,.52-1.24L5.45,8l-5-5A1.61,1.61,0,0,1,0,1.83,1.64,1.64,0,0,1,.54.53,1.63,1.63,0,0,1,1.83,0,1.64,1.64,0,0,1,3,.52L8,5.47l5-5A1.64,1.64,0,0,1,14.18,0a1.73,1.73,0,0,1,1.27.57A1.7,1.7,0,0,1,16,1.83a1.57,1.57,0,0,1-.47,1.23l-5,5L15.48,13A1.68,1.68,0,0,1,16,14.17,1.64,1.64,0,0,1,14.17,16a1.63,1.63,0,0,1-1.25-.5L8,10.59,3.11,15.5a1.62,1.62,0,0,1-1.26.5,1.72,1.72,0,0,1-1.36-.47Z"/></g></g></svg>