<svg xmlns="http://www.w3.org/2000/svg" width="24" height="24" viewBox="0 0 24 24"><defs><style>.cls-1{fill-rule:evenodd;}</style></defs><title>자산 18</title><g id="레이어_2" data-name="레이어 2"><g id="레이어_1-2" data-name="레이어 1"><path class="cls-1" d="M22,12a10,10,0,1,0-2.93,7.1A10,10,0,0,0,22,12ZM6.18,12h0a1,1,0,0,1,.34-.7A.9.9,0,0,1,7.2,11H11V7.19a.88.88,0,0,1,.29-.67,1,1,0,0,1,1.41,0,.94.94,0,0,1,.27.67V11h3.85a.88.88,0,0,1,.65.28.9.9,0,0,1,.27.7.93.93,0,0,1-.27.71.85.85,0,0,1-.65.29H13v3.8a.92.92,0,0,1-.27.67.89.89,0,0,1-1.41,0A.87.87,0,0,1,11,16.8V13H7.2a.87.87,0,0,1-.68-.29A1,1,0,0,1,6.18,12ZM0,12H0A11.89,11.89,0,0,1,3.52,3.53a11.94,11.94,0,0,1,17,0A12,12,0,0,1,12,24a11.86,11.86,0,0,1-8.48-3.53A11.81,11.81,0,0,1,0,12Z"/></g></g></svg>