<svg xmlns="http://www.w3.org/2000/svg" xmlns:xlink="http://www.w3.org/1999/xlink" width="33.58" height="48" viewBox="0 0 33.58 48"><defs><style>.cls-1{fill:url(#쥔晤牆渾_藎雪猥粧_4914);}.cls-2{fill:#948480;}.cls-3{fill:#332826;}.cls-4{fill:url(#쥔晤牆渾_藎雪猥粧_4914-2);}.cls-5{fill:url(#쥔晤牆渾_藎雪猥粧_4914-3);}.cls-6{fill:#644d48;}.cls-7{fill:#403130;}.cls-8{fill:#614d49;}.cls-9{fill:#cfda3f;}.cls-10{fill:#ff2738;}.cls-11{fill:#5eb5ff;}</style><linearGradient id="쥔晤牆渾_藎雪猥粧_4914" x1="0.02" y1="38.31" x2="33.58" y2="38.31" gradientUnits="userSpaceOnUse"><stop offset="0.06" stop-color="#573d3c"/><stop offset="0.08" stop-color="#43302f"/><stop offset="0.08" stop-color="#3b2b2a"/><stop offset="0.13" stop-color="#3e2f2e"/><stop offset="0.32" stop-color="#403130"/><stop offset="0.33" stop-color="#503e3c"/><stop offset="0.35" stop-color="#614b48"/><stop offset="0.37" stop-color="#6c5451"/><stop offset="0.39" stop-color="#735a56"/><stop offset="0.46" stop-color="#755b57"/><stop offset="0.48" stop-color="#7a615d"/><stop offset="0.52" stop-color="#86706c"/><stop offset="0.58" stop-color="#8d7874"/><stop offset="0.66" stop-color="#8f7b77"/><stop offset="0.84" stop-color="#8e7975"/><stop offset="0.91" stop-color="#8a736e"/><stop offset="0.95" stop-color="#836863"/><stop offset="0.96" stop-color="#826660"/><stop offset="0.96" stop-color="#7e635d"/><stop offset="0.96" stop-color="#6d5450"/><stop offset="0.97" stop-color="#624a48"/><stop offset="0.98" stop-color="#5b4542"/><stop offset="1" stop-color="#594341"/></linearGradient><linearGradient id="쥔晤牆渾_藎雪猥粧_4914-2" x1="0.02" y1="28.21" x2="33.57" y2="28.21" xlink:href="#쥔晤牆渾_藎雪猥粧_4914"/><linearGradient id="쥔晤牆渾_藎雪猥粧_4914-3" x1="0.02" y1="18.34" x2="33.58" y2="18.34" xlink:href="#쥔晤牆渾_藎雪猥粧_4914"/></defs><title>자산 20</title><g id="레이어_2" data-name="레이어 2"><g id="레이어_1-2" data-name="레이어 1"><path class="cls-1" d="M33.58,29.84l-8.86-.05A28.05,28.05,0,0,0,8.94,29.7L0,29.66v8.09H0C-.19,40.4,1.43,43.11,5,45.14c6.57,3.8,17.21,3.82,23.74,0,3.45-2,5.05-4.63,4.85-7.25h0Z"/><ellipse class="cls-2" cx="16.79" cy="29.66" rx="9.69" ry="16.79" transform="translate(-12.95 46.29) rotate(-89.69)"/><path class="cls-3" d="M28.63,22.41c-6.58-3.8-17.21-3.82-23.75-.05s-6.5,9.92.08,13.71,17.21,3.82,23.74,0S35.21,26.2,28.63,22.41Z"/><path class="cls-4" d="M33.52,20.1l-8.8-.41a28.05,28.05,0,0,0-15.78-.08L0,19.56v8.1H0C-.19,30.31,1.43,33,5,35c6.57,3.8,17.21,3.82,23.74.05,3.45-2,5.05-4.64,4.85-7.25l0-.24Z"/><path class="cls-2" d="M28.7,26.44c-6.53,3.77-17.17,3.75-23.74,0s-6.62-9.94-.08-13.71,17.17-3.76,23.75,0c3.33,1.92,4.93,4.53,4.9,7S31.93,24.58,28.7,26.44Z"/><ellipse class="cls-3" cx="16.79" cy="19.28" rx="9.69" ry="16.79" transform="translate(-2.58 35.97) rotate(-89.69)"/><path class="cls-5" d="M33.58,9.87l-8.86,0A28.05,28.05,0,0,0,8.94,9.74L0,9.69v8.1H0C-.19,20.44,1.43,23.14,5,25.18,11.53,29,22.17,29,28.7,25.22c3.45-2,5.05-4.64,4.85-7.25h0Z"/><path class="cls-6" d="M28.7,16.57a21.57,21.57,0,0,1-7.43,2.48c-5.61.88-11.88,0-16.32-2.52-6.57-3.8-6.61-9.94-.07-13.71A23.93,23.93,0,0,1,16.57,0,24.63,24.63,0,0,1,28.63,2.86C35.21,6.66,35.24,12.79,28.7,16.57Z"/><path class="cls-7" d="M27.14,15.21a19.46,19.46,0,0,1-7.37,2.33l-.19,0h-.15l-.17,0a26.06,26.06,0,0,1-5.15,0,20.56,20.56,0,0,1-8.25-2.44C0,11.77-.07,6.27,5.8,2.89A20,20,0,0,1,13.56.52a25.48,25.48,0,0,1,5.79,0,20.31,20.31,0,0,1,7.73,2.38C33,6.33,33,11.83,27.14,15.21Z"/><ellipse class="cls-8" cx="16.47" cy="9.41" rx="7.77" ry="13.46" transform="translate(6.97 25.82) rotate(-89.69)"/><path class="cls-2" d="M26,14.16c-5.24,3-13.76,3-19,0s-5.29-8-.06-11,13.76-3,19,0S31.25,11.13,26,14.16Z"/><path class="cls-6" d="M25.37,13.79C20.3,16.71,12.06,16.7,7,13.75S1.83,6.05,6.9,3.13s13.31-2.92,18.41,0S30.43,10.86,25.37,13.79Z"/><path class="cls-3" d="M27.51,41.85a.71.71,0,0,0,1.1.69,2,2,0,0,0,1.06-1.73.71.71,0,0,0-1.1-.69A2.07,2.07,0,0,0,27.51,41.85Z"/><path class="cls-9" d="M28.17,41.7a.37.37,0,0,0,.58.36,1.06,1.06,0,0,0,.56-.91.37.37,0,0,0-.58-.36A1.08,1.08,0,0,0,28.17,41.7Z"/><path class="cls-3" d="M25.71,41.44a1.72,1.72,0,0,0-1.32,1.31c-.14.67.2,1.16.78,1.1a1.69,1.69,0,0,0,1.31-1.31C26.63,41.88,26.28,41.39,25.71,41.44Z"/><path class="cls-10" d="M25.8,42.09a1,1,0,0,0-.77.7c-.11.37,0,.66.35.64a1,1,0,0,0,.76-.7C26.25,42.36,26.1,42.08,25.8,42.09Z"/><path class="cls-3" d="M30.2,39.39c0,.65.46,1,1,.71a1.94,1.94,0,0,0,1-1.65c0-.65-.46-1-1-.71A2,2,0,0,0,30.2,39.39Z"/><path class="cls-11" d="M30.82,39.26c0,.34.24.5.53.37a1,1,0,0,0,.52-.85c0-.34-.24-.5-.53-.37A1,1,0,0,0,30.82,39.26Z"/></g></g></svg>