<svg xmlns="http://www.w3.org/2000/svg" width="308.76" height="195.58" viewBox="0 0 308.76 195.58"><defs><style>.cls-1{font-size:60px;font-family:Pretendard-Bold-KSCpc-EUC-H, Pretendard;}.cls-2{fill:#e2da22;}.cls-3{fill:#c4df21;}.cls-4{fill:#a7e521;}.cls-5{fill:#f33;}.cls-6{fill:#ff692d;}.cls-7{fill:#ff9e28;}.cls-8{fill:#ffd422;}.cls-9{font-size:13px;fill:#666;font-family:Pretendard-Light-KSCpc-EUC-H, Pretendard;}.cls-10{letter-spacing:-0.02em;}</style></defs><title>자산 57</title><g id="레이어_2" data-name="레이어 2"><g id="레이어_1-2" data-name="레이어 1"><text class="cls-1" transform="translate(122.54 157.55)">26</text><path class="cls-2" d="M98,70.72a3.38,3.38,0,0,1-2.52-1.11L82.24,55.16a3.41,3.41,0,1,1,5-4.6L100.48,65A3.41,3.41,0,0,1,98,70.72Z"/><path class="cls-3" d="M82,79.43a2.28,2.28,0,0,1-1.46-.53L68.85,69.06a2.28,2.28,0,0,1,2.92-3.49L83.5,75.41a2.28,2.28,0,0,1-1.46,4Z"/><path class="cls-4" d="M76.17,97.4A3.4,3.4,0,0,1,74.49,97L56.91,87a3.41,3.41,0,1,1,3.36-5.94L77.85,91a3.41,3.41,0,0,1-1.68,6.38Z"/><path class="cls-4" d="M64.34,110.09a2.33,2.33,0,0,1-.78-.14l-14.39-5.24a2.27,2.27,0,0,1,1.56-4.27l14.38,5.24a2.27,2.27,0,0,1-.77,4.41Z"/><path class="cls-4" d="M64.34,129.78a3.23,3.23,0,0,1-.69-.07L44,125.66A3.41,3.41,0,1,1,45.35,119L65,123a3.41,3.41,0,0,1-.68,6.75Z"/><path class="cls-4" d="M58.19,145H42.88a2.27,2.27,0,0,1,0-4.54H58.19a2.27,2.27,0,0,1,0,4.54Z"/><path class="cls-4" d="M44.66,167.58a4.54,4.54,0,0,1-.79-9L59,155.9a4.55,4.55,0,0,1,1.58,9l-15.08,2.66A5.35,5.35,0,0,1,44.66,167.58Z"/><path class="cls-5" d="M275.6,167.58a4.22,4.22,0,0,1-.79-.07l-15.08-2.65a4.55,4.55,0,0,1,1.58-9l15.08,2.65a4.55,4.55,0,0,1-.79,9Z"/><path class="cls-5" d="M277.38,145H262.06a2.28,2.28,0,0,1,0-4.55h15.32a2.28,2.28,0,0,1,0,4.55Z"/><path class="cls-5" d="M251.81,131a3.41,3.41,0,0,1-.74-6.74L274.86,119a3.41,3.41,0,1,1,1.48,6.66L252.55,131A3.81,3.81,0,0,1,251.81,131Z"/><path class="cls-5" d="M255.92,110.08a2.27,2.27,0,0,1-.78-4.41l14.39-5.24a2.28,2.28,0,0,1,1.55,4.28l-14.38,5.23A2.14,2.14,0,0,1,255.92,110.08Z"/><path class="cls-5" d="M242,98.9a3.41,3.41,0,0,1-1.72-6.36L260,81.1a3.41,3.41,0,1,1,3.42,5.9L243.67,98.44A3.43,3.43,0,0,1,242,98.9Z"/><path class="cls-6" d="M238.22,79.42a2.27,2.27,0,0,1-1.47-4l11.73-9.84a2.27,2.27,0,1,1,2.93,3.48l-11.73,9.84A2.27,2.27,0,0,1,238.22,79.42Z"/><path class="cls-7" d="M221.52,72.74a3.42,3.42,0,0,1-2.6-5.62l14-16.47a3.41,3.41,0,1,1,5.2,4.41l-14,16.47A3.41,3.41,0,0,1,221.52,72.74Z"/><path class="cls-8" d="M160.12,45.28a4.54,4.54,0,0,1-4.54-4.54V25.43a4.55,4.55,0,1,1,9.09,0V40.74A4.54,4.54,0,0,1,160.12,45.28Z"/><path class="cls-8" d="M142.42,44.56a2.27,2.27,0,0,1-2.23-1.88L137.53,27.6a2.27,2.27,0,1,1,4.47-.79l2.66,15.08a2.27,2.27,0,0,1-1.84,2.64A2.69,2.69,0,0,1,142.42,44.56Z"/><path class="cls-8" d="M127.36,55.05a3.4,3.4,0,0,1-3.19-2.19l-7.33-19.14a3.41,3.41,0,1,1,6.37-2.44l7.33,19.14a3.4,3.4,0,0,1-2,4.4A3.3,3.3,0,0,1,127.36,55.05Z"/><path class="cls-8" d="M109.16,56.67a2.27,2.27,0,0,1-2-1.14L99.53,42.27A2.27,2.27,0,0,1,103.47,40l7.66,13.26a2.27,2.27,0,0,1-2,3.41Z"/><path class="cls-8" d="M211.09,56.67a2.28,2.28,0,0,1-2-3.41L216.78,40a2.27,2.27,0,0,1,3.94,2.27l-7.66,13.26A2.27,2.27,0,0,1,211.09,56.67Z"/><path class="cls-8" d="M193.12,55.05a3.5,3.5,0,0,1-1.18-.21,3.41,3.41,0,0,1-2-4.39L197,31.31a3.41,3.41,0,1,1,6.39,2.37l-7.1,19.15A3.41,3.41,0,0,1,193.12,55.05Z"/><path class="cls-8" d="M177.83,44.56a2.6,2.6,0,0,1-.4,0,2.27,2.27,0,0,1-1.84-2.64l2.66-15.08a2.27,2.27,0,0,1,4.47.79l-2.66,15.08A2.27,2.27,0,0,1,177.83,44.56Z"/><text class="cls-9" transform="translate(25.25 167.46)">0</text><text class="cls-9" transform="translate(288.12 167.46)">100</text><text class="cls-9" transform="translate(22.49 123.27)">10</text><text class="cls-9" transform="translate(284.84 123.27)">90</text><text class="cls-9" transform="translate(35.11 83.51)">20</text><text class="cls-9" transform="translate(270.76 83.51)">80</text><text class="cls-9" transform="translate(60.49 47.22)">30</text><text class="cls-9" transform="translate(240.69 47.22)"><tspan class="cls-10">7</tspan><tspan x="6.86" y="0">0</tspan></text><text class="cls-9" transform="translate(111 22.61)">40</text><text class="cls-9" transform="translate(198.15 22.61)">60</text><text class="cls-9" transform="translate(152.35 12.38)">50</text><path class="cls-4" d="M43.53,30.73a3.47,3.47,0,0,0-2.27-.84H41a3.48,3.48,0,0,0-2.39,1.21A160.4,160.4,0,0,0,4.25,172.16a3.5,3.5,0,0,0,3.41,2.7,3.57,3.57,0,0,0,.8-.09,3.48,3.48,0,0,0,2.18-1.56,3.52,3.52,0,0,0,.43-2.65A153.36,153.36,0,0,1,43.91,35.67,3.5,3.5,0,0,0,43.53,30.73Z"/></g></g></svg>