<svg xmlns="http://www.w3.org/2000/svg" width="520.48" height="88.67" viewBox="0 0 520.48 88.67"><defs><style>.cls-1{fill:#fff;}.cls-2{fill:#f5f7fb;}.cls-3{fill:#d2d8e5;}.cls-4{fill:#b5e6fb;}.cls-5{fill:#279fe3;}.cls-6,.cls-7{fill:none;stroke:#d2d8e5;stroke-miterlimit:10;}.cls-7{stroke-width:0.5px;}.cls-8{font-size:9px;fill:#727171;font-family:Pretendard-Light-KSCpc-EUC-H, Pretendard;}.cls-9{letter-spacing:-0.03em;}</style></defs><title>자산 60</title><g id="레이어_2" data-name="레이어 2"><g id="레이어_1-2" data-name="레이어 1"><rect class="cls-1" x="17.04" y="36.48" width="503.44" height="30.9"/><rect class="cls-2" x="17.04" y="5.58" width="503.44" height="30.9"/><rect class="cls-3" x="17.04" y="5.58" width="4.19" height="61.8"/><rect class="cls-4" x="133.06" y="34.61" width="5.46" height="32.77"/><rect class="cls-4" x="141.4" y="53.69" width="5.46" height="13.69"/><rect class="cls-4" x="266.38" y="41.2" width="5.46" height="26.18"/><rect class="cls-4" x="274.71" y="60.83" width="5.46" height="6.54"/><rect class="cls-4" x="391.37" y="8.25" width="5.46" height="59.13"/><rect class="cls-4" x="491.36" y="59.93" width="5.46" height="7.45"/><rect class="cls-5" x="17.04" y="60.3" width="4.19" height="7.08"/><rect class="cls-5" x="41.41" y="60.63" width="5.46" height="6.74"/><rect class="cls-5" x="49.74" y="60.63" width="5.46" height="6.74"/><rect class="cls-5" x="58.07" y="60.63" width="5.46" height="6.74"/><rect class="cls-5" x="91.4" y="60.31" width="5.46" height="7.06"/><rect class="cls-5" x="116.4" y="59.8" width="5.46" height="7.58"/><rect class="cls-5" x="133.06" y="47.42" width="5.46" height="19.96"/><rect class="cls-5" x="141.4" y="60.31" width="5.46" height="7.06"/><rect class="cls-5" x="158.06" y="53.69" width="5.46" height="13.69"/><rect class="cls-5" x="174.72" y="40.88" width="5.46" height="26.5"/><rect class="cls-5" x="199.72" y="55.79" width="5.46" height="11.59"/><rect class="cls-5" x="216.39" y="41.2" width="5.46" height="26.18"/><rect class="cls-5" x="224.72" y="53.35" width="5.46" height="14.02"/><rect class="cls-5" x="241.38" y="40" width="5.46" height="27.37"/><rect class="cls-5" x="249.72" y="60.53" width="5.46" height="6.84"/><rect class="cls-5" x="258.05" y="47.52" width="5.46" height="19.85"/><rect class="cls-5" x="266.38" y="47.52" width="5.46" height="19.85"/><rect class="cls-5" x="283.05" y="47.52" width="5.46" height="19.85"/><rect class="cls-5" x="291.38" y="47.52" width="5.46" height="19.85"/><rect class="cls-5" x="299.71" y="41.2" width="5.46" height="26.18"/><rect class="cls-5" x="308.04" y="54.29" width="5.46" height="13.09"/><rect class="cls-5" x="324.71" y="47.52" width="5.46" height="19.85"/><rect class="cls-5" x="333.04" y="54.29" width="5.46" height="13.09"/><rect class="cls-5" x="341.37" y="41.2" width="5.46" height="26.18"/><rect class="cls-5" x="349.71" y="46.96" width="5.46" height="20.42"/><rect class="cls-5" x="358.04" y="60.43" width="5.46" height="6.95"/><rect class="cls-5" x="366.37" y="34.75" width="5.46" height="32.63"/><rect class="cls-5" x="374.7" y="41.2" width="5.46" height="26.18"/><rect class="cls-5" x="383.03" y="27.67" width="5.46" height="39.71"/><rect class="cls-5" x="391.37" y="21.22" width="5.46" height="46.16"/><rect class="cls-5" x="408.03" y="15.03" width="5.46" height="52.35"/><rect class="cls-5" x="416.36" y="28.07" width="5.46" height="39.31"/><rect class="cls-5" x="424.7" y="34.75" width="5.46" height="32.63"/><rect class="cls-5" x="433.03" y="40.81" width="5.46" height="26.56"/><rect class="cls-5" x="441.36" y="60.57" width="5.46" height="6.81"/><rect class="cls-5" x="449.69" y="53.76" width="5.46" height="13.62"/><rect class="cls-5" x="458.03" y="60.57" width="5.46" height="6.81"/><rect class="cls-5" x="466.36" y="61.58" width="5.46" height="5.8"/><rect class="cls-5" x="474.69" y="53.76" width="5.46" height="13.62"/><rect class="cls-5" x="483.02" y="60.77" width="5.46" height="6.61"/><rect class="cls-5" x="499.69" y="54.16" width="5.46" height="13.22"/><line class="cls-6" x1="17.04" y1="67.38" x2="520.48" y2="67.38"/><line class="cls-7" x1="64.94" y1="5.58" x2="64.94" y2="75.4"/><line class="cls-7" x1="189.98" y1="5.58" x2="189.98" y2="75.4"/><line class="cls-7" x1="315.02" y1="5.58" x2="315.02" y2="75.4"/><line class="cls-7" x1="440.06" y1="5.58" x2="440.06" y2="75.4"/><text class="cls-8" transform="translate(54.71 83.39)">16:15</text><text class="cls-8" transform="translate(178.92 83.39)">16:30</text><text class="cls-8" transform="translate(303.95 83.39)">16:45</text><text class="cls-8" transform="translate(429.52 83.39)">1<tspan class="cls-9" x="3.8" y="0">7</tspan><tspan x="8.38" y="0">:00</tspan></text><text class="cls-8" transform="translate(3.8 70.39)">0</text><text class="cls-8" transform="translate(3.79 39.48)">5</text><text class="cls-8" transform="translate(0 8.57)">10</text></g></g></svg>