<svg xmlns="http://www.w3.org/2000/svg" width="508.21" height="128.81" viewBox="0 0 508.21 128.81"><defs><style>.cls-1{fill:#f5f7fb;}.cls-2{fill:#fff;}.cls-3,.cls-4,.cls-7,.cls-9{fill:none;stroke-miterlimit:10;}.cls-3,.cls-4{stroke:#d2d8e5;}.cls-4{stroke-width:0.5px;}.cls-5{font-size:9px;fill:#727171;font-family:Pretendard-Light-KSCpc-EUC-H, Pretendard;}.cls-6{letter-spacing:-0.03em;}.cls-7{stroke:#f68f62;}.cls-8{fill:#b5e6fb;opacity:0.3;}.cls-9{stroke:#279fe3;}</style></defs><title>자산 62</title><g id="레이어_2" data-name="레이어 2"><g id="레이어_1-2" data-name="레이어 1"><rect class="cls-1" x="18.72" y="73.48" width="489.49" height="34.05"/><rect class="cls-2" x="18.72" y="39.43" width="489.49" height="34.05"/><rect class="cls-1" x="18.72" y="5.37" width="489.49" height="34.05"/><polyline class="cls-3" points="508.21 107.54 18.72 107.54 18.72 5.37"/><line class="cls-4" x1="69.56" y1="115.54" x2="69.56" y2="5.37"/><line class="cls-4" x1="199.63" y1="115.54" x2="199.63" y2="5.37"/><line class="cls-4" x1="329.7" y1="115.54" x2="329.7" y2="5.37"/><line class="cls-4" x1="459.77" y1="115.54" x2="459.77" y2="5.37"/><text class="cls-5" transform="translate(59.33 123.54)">16:15</text><text class="cls-5" transform="translate(188.57 123.54)">16:30</text><text class="cls-5" transform="translate(318.64 123.54)">16:45</text><text class="cls-5" transform="translate(449.23 123.54)">1<tspan class="cls-6" x="3.8" y="0">7</tspan><tspan x="8.38" y="0">:00</tspan></text><text class="cls-5" transform="translate(5.48 110.23)">0</text><text class="cls-5" transform="translate(1.68 76.34)">10</text><text class="cls-5" transform="translate(0.18 42.46)">20</text><text class="cls-5" transform="translate(0 8.57)">30</text><line class="cls-7" x1="242.99" y1="73.48" x2="286.34" y2="70.36"/><polyline class="cls-7" points="329.7 63.75 373.06 29.51 416.42 31.8 436.23 55.06"/><polygon class="cls-8" points="18.72 44.84 112.91 33.62 156.27 45.55 242.99 78.11 286.34 70.36 329.7 63.75 373.06 56.45 416.42 54.55 459.77 54.55 459.77 107.54 18.72 107.54 18.72 44.84"/><polyline class="cls-9" points="18.72 98.67 69.56 106.63 112.91 90.51 156.27 90.51 199.63 83.98 242.99 73.48"/><line class="cls-9" x1="286.34" y1="70.36" x2="329.7" y2="63.75"/><line class="cls-9" x1="436.23" y1="55.06" x2="459.78" y2="84.18"/></g></g></svg>