<svg xmlns="http://www.w3.org/2000/svg" width="525.55" height="128.1" viewBox="0 0 525.55 128.1"><defs><style>.cls-1{fill:#f5f7fb;}.cls-2{fill:#fff;}.cls-13,.cls-15,.cls-17,.cls-3,.cls-4,.cls-5,.cls-6,.cls-7{fill:none;stroke-miterlimit:10;}.cls-3,.cls-4{stroke:#d2d8e5;}.cls-4{stroke-width:0.5px;}.cls-13,.cls-5{stroke:#279fe3;}.cls-5,.cls-6,.cls-7{stroke-linecap:square;opacity:0.7;}.cls-15,.cls-6{stroke:#878fa8;}.cls-17,.cls-7{stroke:#0fd977;}.cls-8{font-size:9px;fill:#727171;font-family:Pretendard-Light-KSCpc-EUC-H, Pretendard;}.cls-9{letter-spacing:-0.03em;}.cls-10{letter-spacing:-0.03em;}.cls-11{letter-spacing:-0.04em;}.cls-12{letter-spacing:-0.03em;}.cls-14{fill:#279fe3;}.cls-16{fill:#878fa8;}.cls-18{fill:#0fd977;}</style></defs><title>자산 58</title><g id="레이어_2" data-name="레이어 2"><g id="레이어_1-2" data-name="레이어 1"><rect class="cls-1" x="20.67" y="90.28" width="503.75" height="14.29"/><rect class="cls-2" x="20.67" y="76" width="503.75" height="14.29"/><rect class="cls-1" x="20.67" y="61.71" width="503.75" height="14.29"/><rect class="cls-2" x="20.67" y="47.43" width="503.75" height="14.29"/><rect class="cls-1" x="20.67" y="33.14" width="503.75" height="14.29"/><rect class="cls-2" x="20.67" y="18.86" width="503.75" height="14.29"/><rect class="cls-1" x="20.67" y="4.57" width="503.75" height="14.29"/><polyline class="cls-3" points="524.42 104.57 20.67 104.57 20.67 4.57"/><line class="cls-4" x1="69.86" y1="4.57" x2="69.86" y2="112.57"/><line class="cls-4" x1="195.2" y1="4.57" x2="195.2" y2="112.57"/><line class="cls-4" x1="320.54" y1="4.57" x2="320.54" y2="112.57"/><line class="cls-4" x1="445.88" y1="4.57" x2="445.88" y2="112.57"/><polyline class="cls-5" points="21.65 77.81 27.58 101.77 30.56 88.04 33.34 101.77 39.29 101.77 47.03 84.82 50.01 101.77 52.99 89.51 58.15 101.77 64.5 95.61 66.29 88.04 69.86 101.77 72.64 92.67 76.02 101.77 78.4 101.77 80.58 95.61 83.36 100.37 87.13 100.37 88.32 90.56 94.87 84.12 97.85 102.75 100.63 102.75 102.61 70.4 105.99 87.76 109.36 84.12 111.15 102.75 114.33 90.7 117.3 102.75 122.66 102.75 125.84 93.5 127.43 100.65 131 89.02 132.98 95.47 135.96 86.57 138.54 102.75 141.72 102.75 148.27 90.7 149.86 81.88 152.83 102.75 156.01 91.12 159.19 102.75 164.54 102.75 172.49 86.57 175.26 94.07 178.84 88.18 182.21 102.75 186.78 99.25 189.95 101.21 191.94 86.57 194.91 102.75 197.5 86.57 200.87 102.75 207.02 102.75 215.56 86.57 224.49 102.75 228.06 93.22 232.23 98.69 233.62 88.32 237.59 102.75 239.78 87.9 242.56 102.75 247.52 102.75 258.63 82.44 262.21 91.55 265.18 102.75 267.96 102.75 269.55 42.24 272.93 98.41 275.9 86.5 277.69 101.49 281.46 88.6 284.83 102.75 289.6 102.75 297.94 85.1 300.12 94.21 303.89 84.82 306.27 102.75 310.24 102.75 317.19 86.92 320.37 102.75 323.14 85.94 326.32 102.75 331.08 102.75 340.02 87.06 341.8 100.23 344.98 87.76 348.16 102.75 351.53 102.75 356.1 48.97 361.06 102.75 364.83 83.14 367.21 102.75 370.98 102.75 373.17 95.75 376.14 103.59 379.12 103.59 380.91 85.8 383.29 90.98 387.46 90.98 392.02 102.19 395 26 398.18 92.94 400.96 88.6 403.34 101.07 406.51 88.04 409.89 103.59 414.06 103.59 417.63 95.75 419.81 103.59 423.59 83.56 426.17 100.65 428.94 90 431.72 103.59 436.29 103.59 442.44 88.46 445.62 103.59 448.8 85.8 450.78 103.59 456.93 103.59 462.49 85.94 466.86 101.91 470.23 90.7 476.19 103.59 481.35 94.35 483.53 84.96 487.3 103.59 490.28 90.28 493.06 103.59 498.82 98.97 503.98 103.59 506.56 88.6 509.73 92.67 512.71 86.5 516.48 103.59"/><path class="cls-6" d="M21.56,102.61l3.57-10.18,3.05,10.18,3-9.06,2,9.06H38.5l9-15.13,2.78,14.57L52.79,91.4l3,11.21h6.89l4.49-10,2.39,7.75,3-6L76,102.61H78.6L80.85,96l5.42,7.19,2.38-10.83,5.56-4.86,3.18,15.69h3.44l2.38-11,3.31,3.18L108.77,90l2.51,13.17,3.57-10.83,2.52,10.83h5.29l2.78-9.06,2.38,7.47,2.78-12.7,3.44,8,2.38-5.6,2.25,11.86h9.4l2.25-15.69,2.78,15.69,3.17-8.5,2.78,8.5H164l8.87-14.57,2,6.73,3-3.83,2.39,11.67h4.63l1.59-3.08,3.83,3.08,1.59-16.71,2.78,16.71,2.65-13.26,3,13.26h5.82L216.22,88.6l5.16,14.57h9.13l3.18-13.35,2.78,13.35,2.78-12.61,3,12.61h5.29l9.13-12.51,2,6.16,3.84-6.35,2.11,12.7h3.45l2.11-4.48,2.65,4.48,2.78-12.42L278,103.17l3.31-10.93,3.57,10.93h5.16l7.68-14.75,2.64,8.4,3.31-6.26,2.38,12.61h8.34l2.52-10.93,3.17,10.93,3-14.1,2.51,14.1h6.48l7.68-14.1,2.78,11.86L345,89.07l2.78,14.1h5.56l3-39.22,5,39.22L365,89.44,368,103.17h10.45l2.78-13.63,10.59,13.63,3.83-7.56,2.39,7.56,2.64-9.52,3.05,9.52,2.91-10.74,3,10.74h5.16l2.38-5.23,2.78,5.23,3.58-19,2.64,19,2.65-10.93,3.31,10.93H436l6.49-12.61L445,103.17s3.05-12.79,3.31-12.51,2.91,12.51,2.91,12.51h6l4-15.5,6.35,15.5,3-8.12,3.31,8.12h5.56l5.16-9.71,2.52,9.71,3.3-9.15,2.78,9.15,4.9-3,4.9,3,4-12.89,2.65,3.27,2.78-4.29,4.1,14.12"/><path class="cls-7" d="M21.56,102.61,25.2,92l2.28,9.11L31.06,92l3.47,10.72H39l7.75-14,2.68,14,3.57-9,2.78,9h7.14l4-10.23,2.78,10.23,2.88-7,2.09,7h4.06l1.69-6.23,5.56,6.23,3-10.93,4.78-4.41,3.16,15.34h8.53l3.67-8.89,2.19,6.09,3.17-6.16,3.08,9h5l3.08-8,2.08,7.42L131,93.23l2.48,6.93,3.77-3.71,2.68,6.23h7.25l3.37-13,2.48,13,3.67-7,2.19,7h6.45l6.95-8.89L179,98.2l3.37,4.9h7.05l2.48-9.17,2.68,9.17,3-10.15,2.77,10.15h5.56L215.76,88l4.66,15.06h11.12l2.58-3.08,2.48,3.08,3-7.88,2.18,7.88h5.86L256.05,92l2.48,9.81,3.78-6.55,2.87,7.88h7.45l3.27-7.88,2.38,7.88,3.18-4.83,2.18,4.83h6.46l7.34-11.56,3,7,3.77-3.33,2.48,7.88h8.73l2.39-5.81,2.18,5.53,3.67-9.73,2.19,10H332l7.14-12.61,3.38,11.07L345.68,93l2,10.08h5.95S356.1,89.16,356,89.37s5.06,13.73,5.06,13.73l3.67-10.86,3.08,10.86h10.72L381,93.37l3.47,9.73h13.7l2.68-9.45,3.07,9.45,2.78-7.88,2.88,7.88h5.26L418,98.2l2.68,4.9,2.68-7.88,3.07,7.88h13.3l3.18-6.44,2.68,6.44,2.88-11.42,3,11.42h5.76l4.86-16.32,5.07,16.32,3.37-7.21,3,7.21h7.74l3-8.54,3,6,2.68-5.32,3.58,7.84h11V93.23l5.16,9.52,2.88-2.94,4,3.57"/><text class="cls-8" transform="translate(7.42 107.29)">0</text><text class="cls-8" transform="translate(0.18 93.19)"><tspan class="cls-9">0</tspan><tspan x="4.99" y="0">.2</tspan></text><text class="cls-8" transform="translate(0 79.09)"><tspan class="cls-9">0</tspan><tspan x="4.99" y="0">.4</tspan></text><text class="cls-8" transform="translate(0.34 64.98)"><tspan class="cls-9">0.</tspan><tspan x="6.93" y="0">6</tspan></text><text class="cls-8" transform="translate(0.3 50.88)"><tspan class="cls-9">0</tspan><tspan class="cls-10" x="4.99" y="0">.</tspan><tspan x="6.97" y="0">8</tspan></text><text class="cls-8" transform="translate(8.87 36.78)">1</text><text class="cls-8" transform="translate(1.74 22.67)"><tspan class="cls-11">1</tspan><tspan x="3.42" y="0">.2</tspan></text><text class="cls-8" transform="translate(1.56 8.57)"><tspan class="cls-11">1</tspan><tspan x="3.42" y="0">.4</tspan></text><text class="cls-8" transform="translate(59.64 122.82)">16:15</text><text class="cls-8" transform="translate(184.14 122.82)">16:30</text><text class="cls-8" transform="translate(309.48 122.82)">16:45</text><text class="cls-8" transform="translate(435.34 122.82)">1<tspan class="cls-12" x="3.8" y="0">7</tspan><tspan x="8.38" y="0">:00</tspan></text><line class="cls-13" x1="507.91" y1="82.79" x2="516.16" y2="82.79"/><circle class="cls-14" cx="507.91" cy="82.79" r="1.13"/><circle class="cls-14" cx="516.16" cy="82.79" r="1.13"/><line class="cls-13" x1="516.16" y1="82.79" x2="524.42" y2="88.92"/><path class="cls-14" d="M515.49,83.7a1.13,1.13,0,1,1,1.58-.24A1.13,1.13,0,0,1,515.49,83.7Z"/><path class="cls-14" d="M523.75,89.83a1.13,1.13,0,1,0-.23-1.58A1.13,1.13,0,0,0,523.75,89.83Z"/><line class="cls-13" x1="384.03" y1="82.79" x2="392.28" y2="91.22"/><path class="cls-14" d="M383.22,83.58a1.13,1.13,0,1,1,1.59,0A1.13,1.13,0,0,1,383.22,83.58Z"/><path class="cls-14" d="M391.48,92a1.13,1.13,0,1,0,1.61-1.58A1.13,1.13,0,1,0,391.48,92Z"/><line class="cls-13" x1="392.28" y1="91.22" x2="400.54" y2="85.85"/><path class="cls-14" d="M392.9,92.17a1.13,1.13,0,1,1,.33-1.56A1.13,1.13,0,0,1,392.9,92.17Z"/><path class="cls-14" d="M401.16,86.8a1.13,1.13,0,1,0-1.56-.33A1.13,1.13,0,0,0,401.16,86.8Z"/><line class="cls-13" x1="400.54" y1="85.85" x2="408.8" y2="91.99"/><path class="cls-14" d="M399.87,86.76a1.13,1.13,0,1,1,1.58-.23A1.13,1.13,0,0,1,399.87,86.76Z"/><path class="cls-14" d="M408.13,92.89a1.13,1.13,0,1,0,1.34-1.81,1.13,1.13,0,0,0-1.34,1.81Z"/><line class="cls-13" x1="408.8" y1="91.99" x2="417.06" y2="83.56"/><path class="cls-14" d="M409.61,92.78a1.13,1.13,0,0,1-1.6,0,1.13,1.13,0,0,1,1.58-1.61A1.13,1.13,0,0,1,409.61,92.78Z"/><path class="cls-14" d="M417.87,84.35a1.14,1.14,0,0,0,0-1.6,1.13,1.13,0,1,0,0,1.6Z"/><line class="cls-13" x1="417.06" y1="83.56" x2="425.32" y2="88.92"/><path class="cls-14" d="M416.45,84.5a1.12,1.12,0,1,1,1.56-.33A1.13,1.13,0,0,1,416.45,84.5Z"/><path class="cls-14" d="M424.7,89.87a1.13,1.13,0,0,0,1.23-1.9,1.13,1.13,0,0,0-1.23,1.9Z"/><line class="cls-13" x1="425.32" y1="88.92" x2="433.58" y2="91.22"/><path class="cls-14" d="M425,90a1.13,1.13,0,1,1,1.39-.79A1.14,1.14,0,0,1,425,90Z"/><path class="cls-14" d="M433.28,92.31a1.13,1.13,0,0,0,.6-2.18,1.13,1.13,0,0,0-.6,2.18Z"/><line class="cls-13" x1="433.58" y1="91.22" x2="441.84" y2="88.92"/><path class="cls-14" d="M433.88,92.31a1.13,1.13,0,0,1-.6-2.18,1.13,1.13,0,0,1,.6,2.18Z"/><path class="cls-14" d="M442.14,90a1.13,1.13,0,1,0-1.39-.79A1.14,1.14,0,0,0,442.14,90Z"/><line class="cls-13" x1="441.84" y1="88.92" x2="450.1" y2="84.32"/><path class="cls-14" d="M442.39,89.91a1.13,1.13,0,1,1,.43-1.54A1.14,1.14,0,0,1,442.39,89.91Z"/><path class="cls-14" d="M450.64,85.31a1.13,1.13,0,0,0,.44-1.54,1.13,1.13,0,1,0-.44,1.54Z"/><line class="cls-13" x1="450.1" y1="84.32" x2="458.35" y2="88.92"/><path class="cls-14" d="M449.55,85.31a1.13,1.13,0,0,1-.44-1.54,1.13,1.13,0,1,1,.44,1.54Z"/><path class="cls-14" d="M457.81,89.91a1.13,1.13,0,1,0-.44-1.54A1.13,1.13,0,0,0,457.81,89.91Z"/><line class="cls-13" x1="458.35" y1="88.92" x2="466.61" y2="95.82"/><path class="cls-14" d="M457.63,89.79a1.13,1.13,0,1,1,1.59-.15A1.13,1.13,0,0,1,457.63,89.79Z"/><path class="cls-14" d="M465.89,96.68a1.13,1.13,0,1,0-.14-1.59A1.13,1.13,0,0,0,465.89,96.68Z"/><line class="cls-13" x1="466.61" y1="95.82" x2="474.87" y2="88.92"/><path class="cls-14" d="M467.34,96.68a1.13,1.13,0,1,1,.14-1.59A1.13,1.13,0,0,1,467.34,96.68Z"/><path class="cls-14" d="M475.59,89.79a1.13,1.13,0,1,0-1.58-.15A1.12,1.12,0,0,0,475.59,89.79Z"/><line class="cls-13" x1="474.87" y1="88.92" x2="483.13" y2="82.79"/><path class="cls-14" d="M475.54,89.83A1.13,1.13,0,0,1,474.2,88a1.13,1.13,0,0,1,1.34,1.82Z"/><path class="cls-14" d="M483.8,83.7a1.13,1.13,0,1,0-1.58-.24A1.12,1.12,0,0,0,483.8,83.7Z"/><line class="cls-13" x1="483.13" y1="82.79" x2="491.39" y2="78.96"/><path class="cls-14" d="M483.6,83.81a1.13,1.13,0,1,1,.55-1.5A1.12,1.12,0,0,1,483.6,83.81Z"/><path class="cls-14" d="M491.86,80a1.13,1.13,0,1,0-1.49-.55A1.13,1.13,0,0,0,491.86,80Z"/><line class="cls-13" x1="491.39" y1="78.96" x2="499.65" y2="85.85"/><path class="cls-14" d="M490.67,79.82a1.13,1.13,0,1,1,1.58-.14A1.12,1.12,0,0,1,490.67,79.82Z"/><path class="cls-14" d="M498.92,86.72a1.13,1.13,0,1,0-.14-1.59A1.13,1.13,0,0,0,498.92,86.72Z"/><line class="cls-13" x1="499.65" y1="85.85" x2="507.91" y2="82.79"/><path class="cls-14" d="M500,86.91a1.13,1.13,0,1,1,.66-1.45A1.13,1.13,0,0,1,500,86.91Z"/><path class="cls-14" d="M508.3,83.85a1.13,1.13,0,1,0-1.45-.67A1.13,1.13,0,0,0,508.3,83.85Z"/><line class="cls-13" x1="260.15" y1="86.62" x2="268.4" y2="84.32"/><path class="cls-14" d="M260.45,87.71a1.14,1.14,0,0,1-1.39-.79,1.13,1.13,0,1,1,1.39.79Z"/><path class="cls-14" d="M268.71,85.41a1.13,1.13,0,1,0-.61-2.17,1.11,1.11,0,0,0-.78,1.38A1.13,1.13,0,0,0,268.71,85.41Z"/><line class="cls-13" x1="268.4" y1="84.32" x2="276.66" y2="87.39"/><path class="cls-14" d="M268,85.38a1.13,1.13,0,1,1,1.45-.67A1.13,1.13,0,0,1,268,85.38Z"/><path class="cls-14" d="M276.27,88.45a1.14,1.14,0,0,0,1.45-.67,1.12,1.12,0,1,0-1.45.67Z"/><line class="cls-13" x1="276.66" y1="87.39" x2="284.92" y2="84.32"/><path class="cls-14" d="M277.06,88.45a1.13,1.13,0,1,1,.66-1.45A1.13,1.13,0,0,1,277.06,88.45Z"/><path class="cls-14" d="M285.31,85.38a1.13,1.13,0,0,0,.67-1.45,1.13,1.13,0,0,0-2.12.78A1.13,1.13,0,0,0,285.31,85.38Z"/><line class="cls-13" x1="284.92" y1="84.32" x2="293.18" y2="91.99"/><path class="cls-14" d="M284.15,85.15a1.13,1.13,0,1,1,1.6-.06A1.13,1.13,0,0,1,284.15,85.15Z"/><path class="cls-14" d="M292.41,92.81a1.13,1.13,0,1,0-.06-1.59A1.13,1.13,0,0,0,292.41,92.81Z"/><line class="cls-13" x1="293.18" y1="91.99" x2="301.44" y2="87.39"/><path class="cls-14" d="M293.73,93a1.13,1.13,0,1,1,.44-1.53A1.13,1.13,0,0,1,293.73,93Z"/><path class="cls-14" d="M302,88.37a1.13,1.13,0,0,0-1.1-2,1.14,1.14,0,0,0-.44,1.54A1.13,1.13,0,0,0,302,88.37Z"/><line class="cls-13" x1="301.44" y1="87.39" x2="309.7" y2="82.79"/><path class="cls-14" d="M302,88.37a1.13,1.13,0,0,1-1.54-.43,1.14,1.14,0,0,1,.44-1.54,1.13,1.13,0,0,1,1.1,2Z"/><path class="cls-14" d="M310.25,83.77a1.12,1.12,0,0,0,.43-1.53,1.13,1.13,0,1,0-.43,1.53Z"/><line class="cls-13" x1="309.7" y1="82.79" x2="317.96" y2="88.92"/><path class="cls-14" d="M309,83.7a1.13,1.13,0,1,1,1.57-.24A1.12,1.12,0,0,1,309,83.7Z"/><path class="cls-14" d="M317.28,89.83a1.13,1.13,0,1,0-.23-1.58A1.13,1.13,0,0,0,317.28,89.83Z"/><line class="cls-13" x1="317.96" y1="88.92" x2="326.21" y2="82.79"/><path class="cls-14" d="M318.63,89.83a1.13,1.13,0,1,1,.23-1.58A1.13,1.13,0,0,1,318.63,89.83Z"/><path class="cls-14" d="M326.89,83.7a1.13,1.13,0,1,0-1.58-.24A1.13,1.13,0,0,0,326.89,83.7Z"/><line class="cls-13" x1="326.21" y1="82.79" x2="334.47" y2="80.49"/><path class="cls-14" d="M326.52,83.88a1.14,1.14,0,0,1-1.39-.79,1.13,1.13,0,0,1,.78-1.39,1.14,1.14,0,0,1,1.39.79A1.13,1.13,0,0,1,326.52,83.88Z"/><path class="cls-14" d="M334.78,81.58a1.13,1.13,0,0,0,.78-1.39,1.14,1.14,0,0,0-1.39-.79,1.13,1.13,0,0,0,.61,2.18Z"/><line class="cls-13" x1="334.47" y1="80.49" x2="342.73" y2="86.62"/><path class="cls-14" d="M333.8,81.4a1.13,1.13,0,1,1,1.58-.24A1.13,1.13,0,0,1,333.8,81.4Z"/><path class="cls-14" d="M342.06,87.53a1.13,1.13,0,0,0,1.58-.24,1.13,1.13,0,1,0-1.58.24Z"/><line class="cls-13" x1="342.73" y1="86.62" x2="350.99" y2="81.26"/><path class="cls-14" d="M343.35,87.57a1.13,1.13,0,1,1,.33-1.56A1.13,1.13,0,0,1,343.35,87.57Z"/><path class="cls-14" d="M351.61,82.2a1.13,1.13,0,1,0-1.56-.33A1.13,1.13,0,0,0,351.61,82.2Z"/><line class="cls-13" x1="350.99" y1="81.26" x2="359.25" y2="82.79"/><path class="cls-14" d="M350.78,82.37a1.14,1.14,0,0,1-.9-1.32,1.13,1.13,0,1,1,.9,1.32Z"/><path class="cls-14" d="M359,83.9a1.13,1.13,0,1,0-.9-1.32A1.13,1.13,0,0,0,359,83.9Z"/><line class="cls-13" x1="359.25" y1="82.79" x2="367.51" y2="82.79"/><circle class="cls-14" cx="359.25" cy="82.79" r="1.13"/><circle class="cls-14" cx="367.51" cy="82.79" r="1.13"/><line class="cls-13" x1="367.51" y1="82.79" x2="375.77" y2="87.39"/><path class="cls-14" d="M367,83.77a1.13,1.13,0,0,1-.44-1.53,1.14,1.14,0,0,1,1.54-.44,1.13,1.13,0,0,1,.43,1.54A1.12,1.12,0,0,1,367,83.77Z"/><path class="cls-14" d="M375.22,88.37a1.12,1.12,0,0,0,1.53-.43,1.13,1.13,0,1,0-1.53.43Z"/><line class="cls-13" x1="375.77" y1="87.39" x2="384.03" y2="82.79"/><path class="cls-14" d="M376.32,88.37a1.13,1.13,0,1,1,.43-1.53A1.13,1.13,0,0,1,376.32,88.37Z"/><path class="cls-14" d="M384.57,83.77a1.13,1.13,0,0,0-1.09-2,1.13,1.13,0,0,0-.44,1.54A1.12,1.12,0,0,0,384.57,83.77Z"/><line class="cls-13" x1="136.27" y1="83.56" x2="144.52" y2="91.22"/><path class="cls-14" d="M135.5,84.38a1.13,1.13,0,1,1,1.59-.06A1.11,1.11,0,0,1,135.5,84.38Z"/><path class="cls-14" d="M143.76,92.05a1.13,1.13,0,1,0-.06-1.6A1.13,1.13,0,0,0,143.76,92.05Z"/><line class="cls-13" x1="144.52" y1="91.22" x2="152.78" y2="85.09"/><path class="cls-14" d="M145.2,92.13a1.13,1.13,0,1,1,.23-1.58A1.13,1.13,0,0,1,145.2,92.13Z"/><path class="cls-14" d="M153.46,86a1.12,1.12,0,0,0,.23-1.57,1.13,1.13,0,1,0-.23,1.57Z"/><line class="cls-13" x1="152.78" y1="85.09" x2="161.04" y2="88.92"/><path class="cls-14" d="M152.31,86.11a1.13,1.13,0,1,1,1.5-.55A1.13,1.13,0,0,1,152.31,86.11Z"/><path class="cls-14" d="M160.57,89.94a1.13,1.13,0,0,0,1-2,1.13,1.13,0,1,0-1,2Z"/><line class="cls-13" x1="161.04" y1="88.92" x2="169.3" y2="53.76"/><path class="cls-14" d="M162.14,89.18a1.13,1.13,0,1,1-.84-1.36A1.14,1.14,0,0,1,162.14,89.18Z"/><path class="cls-14" d="M170.4,54a1.13,1.13,0,1,0-1.36.84A1.13,1.13,0,0,0,170.4,54Z"/><line class="cls-13" x1="169.3" y1="53.76" x2="177.56" y2="88.92"/><path class="cls-14" d="M168.2,54a1.13,1.13,0,1,1,1.36.84A1.13,1.13,0,0,1,168.2,54Z"/><path class="cls-14" d="M176.46,89.18a1.13,1.13,0,1,0,.84-1.36A1.14,1.14,0,0,0,176.46,89.18Z"/><line class="cls-13" x1="177.56" y1="88.92" x2="185.82" y2="85.09"/><path class="cls-14" d="M178,89.94a1.13,1.13,0,0,1-.95-2,1.13,1.13,0,1,1,.95,2Z"/><path class="cls-14" d="M186.29,86.11a1.13,1.13,0,1,0-1.5-.55A1.13,1.13,0,0,0,186.29,86.11Z"/><line class="cls-13" x1="185.82" y1="85.09" x2="194.08" y2="88.92"/><path class="cls-14" d="M185.34,86.11a1.13,1.13,0,1,1,.95-2,1.13,1.13,0,1,1-.95,2Z"/><path class="cls-14" d="M193.6,89.94a1.13,1.13,0,1,0-.55-1.49A1.12,1.12,0,0,0,193.6,89.94Z"/><line class="cls-13" x1="194.08" y1="88.92" x2="202.33" y2="91.22"/><path class="cls-14" d="M193.77,90a1.13,1.13,0,0,1-.78-1.39,1.14,1.14,0,0,1,1.39-.79,1.13,1.13,0,0,1-.61,2.18Z"/><path class="cls-14" d="M202,92.31a1.14,1.14,0,0,0,1.39-.79,1.13,1.13,0,0,0-.78-1.39,1.14,1.14,0,0,0-1.39.79A1.13,1.13,0,0,0,202,92.31Z"/><line class="cls-13" x1="202.33" y1="91.22" x2="210.59" y2="86.62"/><path class="cls-14" d="M202.88,92.2a1.12,1.12,0,0,1-1.53-.43,1.13,1.13,0,1,1,2-1.1A1.12,1.12,0,0,1,202.88,92.2Z"/><path class="cls-14" d="M211.14,87.61a1.13,1.13,0,1,0-1.53-.44A1.13,1.13,0,0,0,211.14,87.61Z"/><line class="cls-13" x1="210.59" y1="86.62" x2="218.85" y2="88.92"/><path class="cls-14" d="M210.29,87.71a1.13,1.13,0,1,1,1.39-.79A1.14,1.14,0,0,1,210.29,87.71Z"/><path class="cls-14" d="M218.55,90a1.13,1.13,0,0,0,.6-2.18,1.13,1.13,0,0,0-.6,2.18Z"/><line class="cls-13" x1="218.85" y1="88.92" x2="227.11" y2="27.94"/><path class="cls-14" d="M220,89.07a1.13,1.13,0,1,1-1-1.27A1.13,1.13,0,0,1,220,89.07Z"/><path class="cls-14" d="M228.23,28.09a1.13,1.13,0,1,0-1.27,1A1.12,1.12,0,0,0,228.23,28.09Z"/><line class="cls-13" x1="227.11" y1="27.94" x2="235.37" y2="88.92"/><path class="cls-14" d="M226,28.09a1.13,1.13,0,1,1,1.27,1A1.14,1.14,0,0,1,226,28.09Z"/><path class="cls-14" d="M234.25,89.07a1.13,1.13,0,1,0,1-1.27A1.13,1.13,0,0,0,234.25,89.07Z"/><line class="cls-13" x1="235.37" y1="88.92" x2="243.63" y2="91.22"/><path class="cls-14" d="M235.07,90a1.13,1.13,0,1,1,1.39-.79A1.14,1.14,0,0,1,235.07,90Z"/><path class="cls-14" d="M243.33,92.31a1.13,1.13,0,0,0,.6-2.18,1.13,1.13,0,0,0-.6,2.18Z"/><line class="cls-13" x1="243.63" y1="91.22" x2="251.89" y2="84.32"/><path class="cls-14" d="M244.35,92.09a1.13,1.13,0,0,1-1.44-1.74,1.13,1.13,0,0,1,1.44,1.74Z"/><path class="cls-14" d="M252.61,85.19a1.13,1.13,0,1,0-1.59-.14A1.13,1.13,0,0,0,252.61,85.19Z"/><line class="cls-13" x1="251.89" y1="84.32" x2="260.15" y2="86.62"/><path class="cls-14" d="M251.58,85.41a1.13,1.13,0,1,1,.61-2.17,1.11,1.11,0,0,1,.78,1.38A1.13,1.13,0,0,1,251.58,85.41Z"/><path class="cls-14" d="M259.84,87.71a1.13,1.13,0,1,0-.78-1.39A1.13,1.13,0,0,0,259.84,87.71Z"/><line class="cls-13" x1="20.64" y1="88.92" x2="28.9" y2="76.75"/><path class="cls-14" d="M21.58,89.55a1.13,1.13,0,1,1-.3-1.56A1.13,1.13,0,0,1,21.58,89.55Z"/><path class="cls-14" d="M29.84,77.39a1.13,1.13,0,1,0-1.57.3A1.14,1.14,0,0,0,29.84,77.39Z"/><line class="cls-13" x1="28.9" y1="76.75" x2="37.16" y2="81.35"/><path class="cls-14" d="M28.35,77.74a1.13,1.13,0,1,1,1.54-.44A1.13,1.13,0,0,1,28.35,77.74Z"/><path class="cls-14" d="M36.61,82.34a1.14,1.14,0,0,0,1.54-.44,1.13,1.13,0,0,0-.44-1.53,1.12,1.12,0,0,0-1.53.43A1.13,1.13,0,0,0,36.61,82.34Z"/><line class="cls-13" x1="37.16" y1="81.35" x2="45.42" y2="76.75"/><path class="cls-14" d="M37.71,82.34a1.13,1.13,0,0,1-1.53-.44,1.12,1.12,0,0,1,.43-1.53,1.13,1.13,0,0,1,1.54.43A1.14,1.14,0,0,1,37.71,82.34Z"/><path class="cls-14" d="M46,77.74a1.13,1.13,0,1,0-1.54-.44A1.14,1.14,0,0,0,46,77.74Z"/><line class="cls-13" x1="45.42" y1="76.75" x2="53.68" y2="73.69"/><path class="cls-14" d="M45.81,77.81a1.12,1.12,0,1,1,.67-1.45A1.13,1.13,0,0,1,45.81,77.81Z"/><path class="cls-14" d="M54.07,74.75a1.13,1.13,0,1,0-1.45-.67A1.13,1.13,0,0,0,54.07,74.75Z"/><line class="cls-13" x1="53.68" y1="73.69" x2="61.94" y2="78.29"/><path class="cls-14" d="M53.13,74.67a1.13,1.13,0,1,1,1.53-.43A1.12,1.12,0,0,1,53.13,74.67Z"/><path class="cls-14" d="M61.39,79.27a1.13,1.13,0,0,0,1.1-2,1.13,1.13,0,0,0-1.54.44A1.12,1.12,0,0,0,61.39,79.27Z"/><line class="cls-13" x1="61.94" y1="78.29" x2="70.2" y2="75.22"/><path class="cls-14" d="M62.33,79.34a1.12,1.12,0,1,1-.78-2.11,1.12,1.12,0,0,1,.78,2.11Z"/><path class="cls-14" d="M70.59,76.28a1.13,1.13,0,1,0-1.45-.67A1.13,1.13,0,0,0,70.59,76.28Z"/><line class="cls-13" x1="70.2" y1="75.22" x2="78.45" y2="71.39"/><path class="cls-14" d="M70.67,76.24a1.13,1.13,0,1,1,.55-1.49A1.13,1.13,0,0,1,70.67,76.24Z"/><path class="cls-14" d="M78.93,72.41a1.13,1.13,0,0,0,.55-1.5,1.13,1.13,0,1,0-.55,1.5Z"/><line class="cls-13" x1="78.45" y1="71.39" x2="86.71" y2="80.59"/><path class="cls-14" d="M77.62,72.14a1.12,1.12,0,1,1,1.59.09A1.12,1.12,0,0,1,77.62,72.14Z"/><path class="cls-14" d="M85.87,81.34a1.14,1.14,0,0,0,1.6.08,1.13,1.13,0,1,0-1.6-.08Z"/><line class="cls-13" x1="86.71" y1="80.59" x2="94.97" y2="85.85"/><path class="cls-14" d="M86.11,81.54a1.13,1.13,0,0,1,1.21-1.91,1.13,1.13,0,0,1-1.21,1.91Z"/><path class="cls-14" d="M94.37,86.81a1.13,1.13,0,0,0,1.21-1.91,1.13,1.13,0,0,0-1.21,1.91Z"/><line class="cls-13" x1="94.97" y1="85.85" x2="103.23" y2="88.92"/><path class="cls-14" d="M94.58,86.91a1.13,1.13,0,1,1,.79-2.11,1.13,1.13,0,1,1-.79,2.11Z"/><path class="cls-14" d="M102.84,90a1.13,1.13,0,1,0-.67-1.45A1.13,1.13,0,0,0,102.84,90Z"/><line class="cls-13" x1="103.23" y1="88.92" x2="111.49" y2="95.05"/><path class="cls-14" d="M102.56,89.83a1.13,1.13,0,1,1,1.58-.24A1.12,1.12,0,0,1,102.56,89.83Z"/><path class="cls-14" d="M110.82,96a1.13,1.13,0,0,0,1.58-.24,1.13,1.13,0,0,0-1.82-1.34A1.13,1.13,0,0,0,110.82,96Z"/><line class="cls-13" x1="111.49" y1="95.05" x2="119.75" y2="85.85"/><path class="cls-14" d="M112.33,95.8a1.13,1.13,0,1,1-.09-1.59A1.12,1.12,0,0,1,112.33,95.8Z"/><path class="cls-14" d="M120.59,86.61a1.13,1.13,0,1,0-1.6.08A1.14,1.14,0,0,0,120.59,86.61Z"/><line class="cls-13" x1="119.75" y1="85.85" x2="128.01" y2="87.39"/><path class="cls-14" d="M119.54,87a1.12,1.12,0,1,1,1.32-.9A1.12,1.12,0,0,1,119.54,87Z"/><path class="cls-14" d="M127.8,88.5a1.14,1.14,0,0,0,1.32-.91,1.13,1.13,0,1,0-1.32.91Z"/><line class="cls-13" x1="128.01" y1="87.39" x2="136.27" y2="83.56"/><path class="cls-14" d="M128.48,88.41a1.13,1.13,0,1,1,.55-1.5A1.13,1.13,0,0,1,128.48,88.41Z"/><path class="cls-14" d="M136.74,84.58a1.13,1.13,0,0,0-1-2,1.13,1.13,0,0,0,1,2Z"/><line class="cls-15" x1="507.91" y1="94.63" x2="516.16" y2="94.63"/><circle class="cls-16" cx="507.91" cy="94.63" r="1.13"/><circle class="cls-16" cx="516.16" cy="94.63" r="1.13"/><line class="cls-15" x1="516.16" y1="94.63" x2="524.42" y2="97.44"/><path class="cls-16" d="M515.8,95.7a1.13,1.13,0,1,1,1.43-.71A1.12,1.12,0,0,1,515.8,95.7Z"/><path class="cls-16" d="M524.06,98.51a1.13,1.13,0,0,0,.73-2.14,1.13,1.13,0,1,0-.73,2.14Z"/><line class="cls-15" x1="384.03" y1="90.42" x2="392.28" y2="94.28"/><path class="cls-16" d="M383.55,91.44a1.13,1.13,0,1,1,1.5-.54A1.13,1.13,0,0,1,383.55,91.44Z"/><path class="cls-16" d="M391.81,95.3a1.13,1.13,0,1,0-.55-1.5A1.13,1.13,0,0,0,391.81,95.3Z"/><line class="cls-15" x1="392.28" y1="94.28" x2="400.54" y2="96.03"/><path class="cls-16" d="M392.05,95.38a1.12,1.12,0,1,1,1.34-.87A1.12,1.12,0,0,1,392.05,95.38Z"/><path class="cls-16" d="M400.31,97.14a1.13,1.13,0,1,0-.87-1.34A1.13,1.13,0,0,0,400.31,97.14Z"/><line class="cls-15" x1="400.54" y1="96.03" x2="408.8" y2="98.84"/><path class="cls-16" d="M400.18,97.1a1.13,1.13,0,1,1,1.43-.7A1.13,1.13,0,0,1,400.18,97.1Z"/><path class="cls-16" d="M408.44,99.91a1.13,1.13,0,1,0-.71-1.43A1.13,1.13,0,0,0,408.44,99.91Z"/><line class="cls-15" x1="408.8" y1="98.84" x2="417.06" y2="73.12"/><path class="cls-16" d="M409.88,99.19a1.13,1.13,0,0,1-2.15-.69,1.13,1.13,0,0,1,2.15.69Z"/><path class="cls-16" d="M418.13,73.46a1.12,1.12,0,1,0-1.41.73A1.12,1.12,0,0,0,418.13,73.46Z"/><line class="cls-15" x1="417.06" y1="73.12" x2="425.32" y2="97.44"/><path class="cls-16" d="M416,73.48a1.13,1.13,0,1,1,1.43.71A1.13,1.13,0,0,1,416,73.48Z"/><path class="cls-16" d="M424.25,97.8a1.13,1.13,0,1,0,.71-1.43A1.13,1.13,0,0,0,424.25,97.8Z"/><line class="cls-15" x1="425.32" y1="97.44" x2="433.58" y2="102.1"/><path class="cls-16" d="M424.76,98.42a1.13,1.13,0,0,1-.42-1.54,1.13,1.13,0,0,1,2,1.11A1.13,1.13,0,0,1,424.76,98.42Z"/><path class="cls-16" d="M433,103.08a1.13,1.13,0,0,0,1.11-2,1.13,1.13,0,0,0-1.11,2Z"/><line class="cls-15" x1="433.58" y1="102.1" x2="441.84" y2="97.44"/><path class="cls-16" d="M434.13,103.08a1.13,1.13,0,0,1-1.11-2,1.13,1.13,0,0,1,1.11,2Z"/><path class="cls-16" d="M442.39,98.42a1.13,1.13,0,1,0-1.11-2,1.13,1.13,0,1,0,1.11,2Z"/><line class="cls-15" x1="441.84" y1="97.44" x2="450.1" y2="95.33"/><path class="cls-16" d="M442.11,98.53a1.13,1.13,0,1,1,.82-1.37A1.13,1.13,0,0,1,442.11,98.53Z"/><path class="cls-16" d="M450.37,96.43a1.13,1.13,0,1,0-1.37-.82A1.14,1.14,0,0,0,450.37,96.43Z"/><line class="cls-15" x1="450.1" y1="95.33" x2="458.35" y2="97.44"/><path class="cls-16" d="M449.82,96.43a1.13,1.13,0,1,1,1.37-.82A1.14,1.14,0,0,1,449.82,96.43Z"/><path class="cls-16" d="M458.08,98.53a1.13,1.13,0,1,0-.82-1.37A1.13,1.13,0,0,0,458.08,98.53Z"/><line class="cls-15" x1="458.35" y1="97.44" x2="466.61" y2="100.6"/><path class="cls-16" d="M458,98.49a1.13,1.13,0,0,1,.81-2.11,1.13,1.13,0,1,1-.81,2.11Z"/><path class="cls-16" d="M466.21,101.65a1.13,1.13,0,1,0,.8-2.11,1.13,1.13,0,0,0-.8,2.11Z"/><line class="cls-15" x1="466.61" y1="100.6" x2="474.87" y2="97.44"/><path class="cls-16" d="M467,101.65a1.13,1.13,0,0,1-.8-2.11,1.13,1.13,0,1,1,.8,2.11Z"/><path class="cls-16" d="M475.27,98.49a1.11,1.11,0,0,0,.65-1.45,1.12,1.12,0,0,0-1.45-.66,1.14,1.14,0,0,0-.65,1.46A1.12,1.12,0,0,0,475.27,98.49Z"/><line class="cls-15" x1="474.87" y1="97.44" x2="483.13" y2="82.65"/><path class="cls-16" d="M475.86,98a1.13,1.13,0,0,1-1.54.43,1.13,1.13,0,0,1,1.1-2A1.14,1.14,0,0,1,475.86,98Z"/><path class="cls-16" d="M484.11,83.2a1.12,1.12,0,0,0-.43-1.53,1.13,1.13,0,1,0-1.1,2A1.12,1.12,0,0,0,484.11,83.2Z"/><line class="cls-15" x1="483.13" y1="82.65" x2="491.39" y2="92.88"/><path class="cls-16" d="M482.25,83.36a1.13,1.13,0,1,1,1.59.17A1.13,1.13,0,0,1,482.25,83.36Z"/><path class="cls-16" d="M490.51,93.59a1.13,1.13,0,1,0,.17-1.59A1.13,1.13,0,0,0,490.51,93.59Z"/><line class="cls-15" x1="491.39" y1="92.88" x2="499.65" y2="101.09"/><path class="cls-16" d="M490.59,93.68a1.13,1.13,0,0,1,0-1.6,1.13,1.13,0,0,1,1.6,1.59A1.13,1.13,0,0,1,490.59,93.68Z"/><path class="cls-16" d="M498.85,101.89a1.13,1.13,0,1,0,1.59-1.6,1.13,1.13,0,0,0-1.59,1.6Z"/><line class="cls-15" x1="499.65" y1="101.09" x2="507.91" y2="94.63"/><path class="cls-16" d="M500.34,102A1.13,1.13,0,0,1,499,100.2a1.14,1.14,0,0,1,1.59.2A1.13,1.13,0,0,1,500.34,102Z"/><path class="cls-16" d="M508.6,95.52a1.13,1.13,0,0,0-1.39-1.78,1.13,1.13,0,0,0,1.39,1.78Z"/><line class="cls-15" x1="260.15" y1="96.39" x2="268.4" y2="95.33"/><path class="cls-16" d="M260.29,97.5a1.12,1.12,0,1,1,1-1.26A1.12,1.12,0,0,1,260.29,97.5Z"/><path class="cls-16" d="M268.55,96.45a1.13,1.13,0,1,0-1.26-1A1.13,1.13,0,0,0,268.55,96.45Z"/><line class="cls-15" x1="268.4" y1="95.33" x2="276.66" y2="96.74"/><path class="cls-16" d="M268.22,96.44a1.13,1.13,0,1,1,1.3-.92A1.13,1.13,0,0,1,268.22,96.44Z"/><path class="cls-16" d="M276.47,97.85a1.13,1.13,0,1,0-.92-1.3A1.13,1.13,0,0,0,276.47,97.85Z"/><line class="cls-15" x1="276.66" y1="96.74" x2="284.92" y2="95.33"/><path class="cls-16" d="M276.85,97.85a1.13,1.13,0,1,1,.92-1.3A1.12,1.12,0,0,1,276.85,97.85Z"/><path class="cls-16" d="M285.11,96.44a1.13,1.13,0,0,0-.38-2.22,1.14,1.14,0,0,0-.92,1.3A1.12,1.12,0,0,0,285.11,96.44Z"/><line class="cls-15" x1="284.92" y1="95.33" x2="293.18" y2="98.84"/><path class="cls-16" d="M284.48,96.37a1.13,1.13,0,1,1,1.48-.6A1.14,1.14,0,0,1,284.48,96.37Z"/><path class="cls-16" d="M292.74,99.88a1.13,1.13,0,1,0-.6-1.48A1.13,1.13,0,0,0,292.74,99.88Z"/><line class="cls-15" x1="293.18" y1="98.84" x2="301.44" y2="96.74"/><path class="cls-16" d="M293.46,99.93a1.13,1.13,0,1,1,.81-1.37A1.12,1.12,0,0,1,293.46,99.93Z"/><path class="cls-16" d="M301.72,97.83a1.13,1.13,0,1,0-1.37-.82A1.12,1.12,0,0,0,301.72,97.83Z"/><line class="cls-15" x1="301.44" y1="96.74" x2="309.7" y2="90.42"/><path class="cls-16" d="M302.12,97.63a1.13,1.13,0,1,1,.21-1.58A1.12,1.12,0,0,1,302.12,97.63Z"/><path class="cls-16" d="M310.38,91.32a1.13,1.13,0,0,0-1.37-1.8,1.13,1.13,0,0,0,1.37,1.8Z"/><line class="cls-15" x1="309.7" y1="90.42" x2="317.96" y2="93.23"/><path class="cls-16" d="M309.33,91.49a1.13,1.13,0,1,1,1.44-.71A1.14,1.14,0,0,1,309.33,91.49Z"/><path class="cls-16" d="M317.59,94.3a1.13,1.13,0,1,0-.7-1.44A1.13,1.13,0,0,0,317.59,94.3Z"/><line class="cls-15" x1="317.96" y1="93.23" x2="326.21" y2="90.42"/><path class="cls-16" d="M318.32,94.3a1.13,1.13,0,1,1,.7-1.44A1.13,1.13,0,0,1,318.32,94.3Z"/><path class="cls-16" d="M326.58,91.49a1.13,1.13,0,1,0-1.43-.71A1.12,1.12,0,0,0,326.58,91.49Z"/><line class="cls-15" x1="326.21" y1="90.42" x2="334.47" y2="89.37"/><path class="cls-16" d="M326.36,91.54a1.13,1.13,0,1,1,1-1.26A1.12,1.12,0,0,1,326.36,91.54Z"/><path class="cls-16" d="M334.62,90.49a1.13,1.13,0,1,0-1.27-1A1.13,1.13,0,0,0,334.62,90.49Z"/><line class="cls-15" x1="334.47" y1="89.37" x2="342.73" y2="92.17"/><path class="cls-16" d="M334.11,90.44a1.13,1.13,0,1,1,1.43-.71A1.13,1.13,0,0,1,334.11,90.44Z"/><path class="cls-16" d="M342.37,93.24a1.13,1.13,0,1,0-.71-1.43A1.12,1.12,0,0,0,342.37,93.24Z"/><line class="cls-15" x1="342.73" y1="92.17" x2="350.99" y2="89.72"/><path class="cls-16" d="M343.05,93.26a1.13,1.13,0,1,1,.76-1.41A1.14,1.14,0,0,1,343.05,93.26Z"/><path class="cls-16" d="M351.31,90.8a1.13,1.13,0,1,0-1.4-.76A1.13,1.13,0,0,0,351.31,90.8Z"/><line class="cls-15" x1="350.99" y1="89.72" x2="359.25" y2="90.42"/><path class="cls-16" d="M350.9,90.84a1.12,1.12,0,1,1,1.21-1A1.12,1.12,0,0,1,350.9,90.84Z"/><path class="cls-16" d="M359.15,91.54a1.12,1.12,0,1,0-1-1.21A1.12,1.12,0,0,0,359.15,91.54Z"/><line class="cls-15" x1="359.25" y1="90.42" x2="367.51" y2="90.42"/><circle class="cls-16" cx="359.25" cy="90.42" r="1.13"/><circle class="cls-16" cx="367.51" cy="90.42" r="1.13"/><line class="cls-15" x1="367.51" y1="90.42" x2="375.77" y2="92.53"/><path class="cls-16" d="M367.23,91.51a1.13,1.13,0,1,1,1.37-.81A1.12,1.12,0,0,1,367.23,91.51Z"/><path class="cls-16" d="M375.49,93.62a1.13,1.13,0,1,0-.82-1.37A1.13,1.13,0,0,0,375.49,93.62Z"/><line class="cls-15" x1="375.77" y1="92.53" x2="384.03" y2="90.42"/><path class="cls-16" d="M376.05,93.62a1.13,1.13,0,1,1,.81-1.37A1.14,1.14,0,0,1,376.05,93.62Z"/><path class="cls-16" d="M384.3,91.51a1.12,1.12,0,1,0-1.37-.81A1.12,1.12,0,0,0,384.3,91.51Z"/><line class="cls-15" x1="136.27" y1="94.98" x2="144.52" y2="98.49"/><path class="cls-16" d="M135.82,96a1.13,1.13,0,1,1,1.48-.6A1.12,1.12,0,0,1,135.82,96Z"/><path class="cls-16" d="M144.08,99.53a1.13,1.13,0,1,0-.59-1.48A1.13,1.13,0,0,0,144.08,99.53Z"/><line class="cls-15" x1="144.52" y1="98.49" x2="152.78" y2="95.68"/><path class="cls-16" d="M144.89,99.56a1.13,1.13,0,1,1,.7-1.43A1.13,1.13,0,0,1,144.89,99.56Z"/><path class="cls-16" d="M153.15,96.75a1.13,1.13,0,1,0-1.43-.7A1.12,1.12,0,0,0,153.15,96.75Z"/><line class="cls-15" x1="152.78" y1="95.68" x2="161.04" y2="97.44"/><path class="cls-16" d="M152.55,96.79a1.13,1.13,0,1,1,1.34-.87A1.13,1.13,0,0,1,152.55,96.79Z"/><path class="cls-16" d="M160.81,98.54a1.13,1.13,0,0,0,.47-2.21,1.13,1.13,0,1,0-.47,2.21Z"/><line class="cls-15" x1="161.04" y1="97.44" x2="169.3" y2="99.02"/><path class="cls-16" d="M160.83,98.55a1.14,1.14,0,0,1-.9-1.32,1.13,1.13,0,1,1,2.22.42A1.14,1.14,0,0,1,160.83,98.55Z"/><path class="cls-16" d="M169.09,100.12a1.12,1.12,0,1,0-.9-1.32A1.13,1.13,0,0,0,169.09,100.12Z"/><line class="cls-15" x1="169.3" y1="99.02" x2="177.56" y2="97.44"/><path class="cls-16" d="M169.51,100.12a1.13,1.13,0,0,1-1.32-.89,1.14,1.14,0,0,1,.9-1.32,1.12,1.12,0,1,1,.42,2.21Z"/><path class="cls-16" d="M177.77,98.55a1.14,1.14,0,0,0,.9-1.32,1.13,1.13,0,0,0-2.22.42A1.14,1.14,0,0,0,177.77,98.55Z"/><line class="cls-15" x1="177.56" y1="97.44" x2="185.82" y2="95.68"/><path class="cls-16" d="M177.79,98.54a1.13,1.13,0,0,1-.47-2.21,1.13,1.13,0,1,1,.47,2.21Z"/><path class="cls-16" d="M186.05,96.79a1.13,1.13,0,1,0-1.34-.87A1.13,1.13,0,0,0,186.05,96.79Z"/><line class="cls-15" x1="185.82" y1="95.68" x2="194.08" y2="97.44"/><path class="cls-16" d="M185.58,96.79a1.13,1.13,0,1,1,1.34-.87A1.13,1.13,0,0,1,185.58,96.79Z"/><path class="cls-16" d="M193.84,98.54A1.13,1.13,0,1,0,193,97.2,1.13,1.13,0,0,0,193.84,98.54Z"/><line class="cls-15" x1="194.08" y1="97.44" x2="202.33" y2="98.49"/><path class="cls-16" d="M193.93,98.56a1.13,1.13,0,1,1,1.27-1A1.13,1.13,0,0,1,193.93,98.56Z"/><path class="cls-16" d="M202.19,99.61a1.13,1.13,0,1,0-1-1.26A1.12,1.12,0,0,0,202.19,99.61Z"/><line class="cls-15" x1="202.33" y1="98.49" x2="210.59" y2="96.39"/><path class="cls-16" d="M202.61,99.58a1.12,1.12,0,1,1,.82-1.37A1.13,1.13,0,0,1,202.61,99.58Z"/><path class="cls-16" d="M210.87,97.48a1.13,1.13,0,1,0-1.37-.82A1.13,1.13,0,0,0,210.87,97.48Z"/><line class="cls-15" x1="210.59" y1="96.39" x2="218.85" y2="97.44"/><path class="cls-16" d="M210.45,97.5a1.12,1.12,0,1,1,1.26-1A1.13,1.13,0,0,1,210.45,97.5Z"/><path class="cls-16" d="M218.71,98.56a1.13,1.13,0,1,0-1-1.26A1.13,1.13,0,0,0,218.71,98.56Z"/><line class="cls-15" x1="218.85" y1="97.44" x2="227.11" y2="92.15"/><path class="cls-16" d="M219.46,98.39a1.13,1.13,0,0,1-1.22-1.9,1.13,1.13,0,1,1,1.22,1.9Z"/><path class="cls-16" d="M227.72,93.1a1.13,1.13,0,1,0-1.56-.34A1.13,1.13,0,0,0,227.72,93.1Z"/><line class="cls-15" x1="227.11" y1="92.15" x2="235.37" y2="97.44"/><path class="cls-16" d="M226.5,93.1a1.13,1.13,0,1,1,1.56-.34A1.14,1.14,0,0,1,226.5,93.1Z"/><path class="cls-16" d="M234.76,98.39a1.13,1.13,0,1,0-.34-1.56A1.14,1.14,0,0,0,234.76,98.39Z"/><line class="cls-15" x1="235.37" y1="97.44" x2="243.63" y2="98.49"/><path class="cls-16" d="M235.23,98.56a1.13,1.13,0,1,1,1.26-1A1.13,1.13,0,0,1,235.23,98.56Z"/><path class="cls-16" d="M243.49,99.61a1.13,1.13,0,1,0-1-1.26A1.13,1.13,0,0,0,243.49,99.61Z"/><line class="cls-15" x1="243.63" y1="98.49" x2="251.89" y2="95.33"/><path class="cls-16" d="M244,99.54a1.12,1.12,0,1,1,.65-1.45A1.12,1.12,0,0,1,244,99.54Z"/><path class="cls-16" d="M252.29,96.39a1.13,1.13,0,1,0-1.46-.65A1.14,1.14,0,0,0,252.29,96.39Z"/><line class="cls-15" x1="251.89" y1="95.33" x2="260.15" y2="96.39"/><path class="cls-16" d="M251.74,96.45a1.13,1.13,0,0,1,.29-2.24,1.13,1.13,0,1,1-.29,2.24Z"/><path class="cls-16" d="M260,97.5a1.12,1.12,0,1,0-1-1.26A1.11,1.11,0,0,0,260,97.5Z"/><line class="cls-15" x1="20.64" y1="97.44" x2="28.9" y2="91.87"/><path class="cls-16" d="M21.28,98.37a1.13,1.13,0,1,1,.3-1.56A1.14,1.14,0,0,1,21.28,98.37Z"/><path class="cls-16" d="M29.53,92.8a1.13,1.13,0,1,0-1.26-1.87,1.13,1.13,0,0,0,1.26,1.87Z"/><line class="cls-15" x1="28.9" y1="91.87" x2="37.16" y2="93.97"/><path class="cls-16" d="M28.62,93a1.13,1.13,0,0,1,.56-2.19A1.13,1.13,0,1,1,28.62,93Z"/><path class="cls-16" d="M36.88,95.07a1.13,1.13,0,1,0-.81-1.38A1.13,1.13,0,0,0,36.88,95.07Z"/><line class="cls-15" x1="37.16" y1="93.97" x2="45.42" y2="91.87"/><path class="cls-16" d="M37.44,95.07a1.14,1.14,0,0,1-1.37-.82,1.13,1.13,0,1,1,1.37.82Z"/><path class="cls-16" d="M45.7,93a1.13,1.13,0,1,0-1.37-.81A1.12,1.12,0,0,0,45.7,93Z"/><line class="cls-15" x1="45.42" y1="91.87" x2="53.68" y2="90.46"/><path class="cls-16" d="M45.61,93a1.13,1.13,0,0,1-1.3-.92,1.13,1.13,0,1,1,1.3.92Z"/><path class="cls-16" d="M53.87,91.58a1.13,1.13,0,1,0-1.3-.93A1.13,1.13,0,0,0,53.87,91.58Z"/><line class="cls-15" x1="53.68" y1="90.46" x2="61.94" y2="92.57"/><path class="cls-16" d="M53.4,91.56a1.13,1.13,0,1,1,1.37-.82A1.13,1.13,0,0,1,53.4,91.56Z"/><path class="cls-16" d="M61.66,93.66a1.13,1.13,0,1,0-.82-1.37A1.14,1.14,0,0,0,61.66,93.66Z"/><line class="cls-15" x1="61.94" y1="92.57" x2="70.2" y2="91.17"/><path class="cls-16" d="M62.13,93.68a1.13,1.13,0,1,1,.92-1.3A1.13,1.13,0,0,1,62.13,93.68Z"/><path class="cls-16" d="M70.39,92.28a1.13,1.13,0,1,0-1.31-.93A1.14,1.14,0,0,0,70.39,92.28Z"/><line class="cls-15" x1="70.2" y1="91.17" x2="78.45" y2="89.41"/><path class="cls-16" d="M70.43,92.27a1.13,1.13,0,1,1,.87-1.34A1.13,1.13,0,0,1,70.43,92.27Z"/><path class="cls-16" d="M78.69,90.51a1.12,1.12,0,0,0,.87-1.33,1.13,1.13,0,1,0-.87,1.33Z"/><line class="cls-15" x1="78.45" y1="89.41" x2="86.71" y2="93.62"/><path class="cls-16" d="M77.94,90.42a1.14,1.14,0,0,1-.49-1.52,1.13,1.13,0,0,1,2,1A1.13,1.13,0,0,1,77.94,90.42Z"/><path class="cls-16" d="M86.2,94.63a1.13,1.13,0,0,0,1-2,1.12,1.12,0,0,0-1.52.49A1.14,1.14,0,0,0,86.2,94.63Z"/><line class="cls-15" x1="86.71" y1="93.62" x2="94.97" y2="96.03"/><path class="cls-16" d="M86.4,94.7a1.13,1.13,0,1,1,1.4-.76A1.12,1.12,0,0,1,86.4,94.7Z"/><path class="cls-16" d="M94.66,97.12a1.13,1.13,0,1,0-.77-1.4A1.14,1.14,0,0,0,94.66,97.12Z"/><line class="cls-15" x1="94.97" y1="96.03" x2="103.23" y2="97.44"/><path class="cls-16" d="M94.78,97.15a1.13,1.13,0,0,1,.38-2.23,1.13,1.13,0,0,1-.38,2.23Z"/><path class="cls-16" d="M103,98.55a1.13,1.13,0,1,0-.92-1.3A1.13,1.13,0,0,0,103,98.55Z"/><line class="cls-15" x1="103.23" y1="97.44" x2="111.49" y2="100.24"/><path class="cls-16" d="M102.87,98.51a1.13,1.13,0,1,1,1.43-.71A1.14,1.14,0,0,1,102.87,98.51Z"/><path class="cls-16" d="M111.13,101.31a1.12,1.12,0,1,0-.71-1.43A1.12,1.12,0,0,0,111.13,101.31Z"/><line class="cls-15" x1="111.49" y1="100.24" x2="119.75" y2="96.03"/><path class="cls-16" d="M112,101.25a1.13,1.13,0,1,1-1-2,1.13,1.13,0,0,1,1,2Z"/><path class="cls-16" d="M120.26,97a1.13,1.13,0,0,0-1-2,1.13,1.13,0,1,0,1,2Z"/><line class="cls-15" x1="119.75" y1="96.03" x2="128.01" y2="96.74"/><path class="cls-16" d="M119.65,97.16a1.13,1.13,0,1,1,1.22-1A1.13,1.13,0,0,1,119.65,97.16Z"/><path class="cls-16" d="M127.91,97.86a1.13,1.13,0,1,0-1-1.22A1.13,1.13,0,0,0,127.91,97.86Z"/><line class="cls-15" x1="128.01" y1="96.74" x2="136.27" y2="94.98"/><path class="cls-16" d="M128.24,97.84a1.13,1.13,0,1,1,.87-1.34A1.13,1.13,0,0,1,128.24,97.84Z"/><path class="cls-16" d="M136.5,96.09a1.13,1.13,0,1,0-1.34-.87A1.13,1.13,0,0,0,136.5,96.09Z"/><line class="cls-17" x1="507.91" y1="82.75" x2="516.16" y2="86.55"/><path class="cls-18" d="M507.43,83.78a1.13,1.13,0,1,1,1.5-.56A1.13,1.13,0,0,1,507.43,83.78Z"/><path class="cls-18" d="M515.69,87.57a1.13,1.13,0,1,0-.55-1.49A1.13,1.13,0,0,0,515.69,87.57Z"/><line class="cls-17" x1="516.16" y1="86.55" x2="524.42" y2="76.2"/><path class="cls-18" d="M517.05,87.25a1.13,1.13,0,1,1-.18-1.58A1.13,1.13,0,0,1,517.05,87.25Z"/><path class="cls-18" d="M525.3,76.91a1.13,1.13,0,1,0-1.76-1.41,1.13,1.13,0,0,0,1.76,1.41Z"/><line class="cls-17" x1="384.03" y1="74.55" x2="392.28" y2="86.18"/><path class="cls-18" d="M383.11,75.2a1.12,1.12,0,0,1,.26-1.57,1.14,1.14,0,0,1,1.58.27,1.13,1.13,0,1,1-1.84,1.3Z"/><path class="cls-18" d="M391.36,86.83a1.14,1.14,0,0,0,1.58.27,1.13,1.13,0,1,0-1.58-.27Z"/><line class="cls-17" x1="392.28" y1="86.18" x2="400.54" y2="88.02"/><path class="cls-18" d="M392,87.28a1.13,1.13,0,1,1,1.35-.85A1.13,1.13,0,0,1,392,87.28Z"/><path class="cls-18" d="M400.3,89.12a1.12,1.12,0,0,0,1.34-.86,1.11,1.11,0,0,0-.85-1.34,1.12,1.12,0,0,0-1.35.85A1.14,1.14,0,0,0,400.3,89.12Z"/><line class="cls-17" x1="400.54" y1="88.02" x2="408.8" y2="90.96"/><path class="cls-18" d="M400.16,89.08a1.13,1.13,0,1,1,1.45-.68A1.13,1.13,0,0,1,400.16,89.08Z"/><path class="cls-18" d="M408.42,92a1.13,1.13,0,1,0-.68-1.44A1.12,1.12,0,0,0,408.42,92Z"/><line class="cls-17" x1="408.8" y1="90.96" x2="417.06" y2="86.92"/><path class="cls-18" d="M409.3,92a1.13,1.13,0,1,1-1-2,1.13,1.13,0,0,1,1,2Z"/><path class="cls-18" d="M417.56,87.93a1.12,1.12,0,0,0,.51-1.51,1.12,1.12,0,1,0-.51,1.51Z"/><line class="cls-17" x1="417.06" y1="86.92" x2="425.32" y2="89.49"/><path class="cls-18" d="M416.72,88a1.13,1.13,0,1,1,1.42-.74A1.13,1.13,0,0,1,416.72,88Z"/><path class="cls-18" d="M425,90.56a1.13,1.13,0,1,0-.74-1.41A1.13,1.13,0,0,0,425,90.56Z"/><line class="cls-17" x1="425.32" y1="89.49" x2="433.58" y2="90.59"/><path class="cls-18" d="M425.17,90.61a1.13,1.13,0,1,1,1.27-1A1.13,1.13,0,0,1,425.17,90.61Z"/><path class="cls-18" d="M433.43,91.71a1.13,1.13,0,1,0-1-1.27A1.13,1.13,0,0,0,433.43,91.71Z"/><line class="cls-17" x1="433.58" y1="90.59" x2="441.84" y2="89.49"/><path class="cls-18" d="M433.73,91.71a1.13,1.13,0,1,1,1-1.27A1.13,1.13,0,0,1,433.73,91.71Z"/><path class="cls-18" d="M442,90.61a1.13,1.13,0,1,0-1.27-1A1.13,1.13,0,0,0,442,90.61Z"/><line class="cls-17" x1="441.84" y1="89.49" x2="450.1" y2="87.28"/><path class="cls-18" d="M442.13,90.58a1.13,1.13,0,1,1,.8-1.38A1.13,1.13,0,0,1,442.13,90.58Z"/><path class="cls-18" d="M450.39,88.37a1.13,1.13,0,1,0-1.38-.8A1.12,1.12,0,0,0,450.39,88.37Z"/><line class="cls-17" x1="450.1" y1="87.28" x2="458.35" y2="89.49"/><path class="cls-18" d="M449.8,88.37a1.13,1.13,0,1,1,1.38-.8A1.12,1.12,0,0,1,449.8,88.37Z"/><path class="cls-18" d="M458.06,90.58a1.13,1.13,0,1,0-.8-1.38A1.13,1.13,0,0,0,458.06,90.58Z"/><line class="cls-17" x1="458.35" y1="89.49" x2="466.61" y2="104.05"/><path class="cls-18" d="M457.37,90a1.13,1.13,0,0,1,.43-1.53,1.12,1.12,0,0,1,1.53.42,1.13,1.13,0,1,1-2,1.11Z"/><path class="cls-18" d="M465.63,104.61a1.14,1.14,0,0,0,1.54.43,1.13,1.13,0,1,0-1.54-.43Z"/><line class="cls-17" x1="466.61" y1="104.05" x2="474.87" y2="89.49"/><path class="cls-18" d="M467.59,104.61a1.13,1.13,0,1,1-2-1.11,1.14,1.14,0,0,1,1.54-.43A1.13,1.13,0,0,1,467.59,104.61Z"/><path class="cls-18" d="M475.85,90a1.12,1.12,0,0,0-.42-1.53,1.13,1.13,0,1,0,.42,1.53Z"/><line class="cls-17" x1="474.87" y1="89.49" x2="483.13" y2="86.55"/><path class="cls-18" d="M475.25,90.55a1.13,1.13,0,1,1,.68-1.44A1.13,1.13,0,0,1,475.25,90.55Z"/><path class="cls-18" d="M483.51,87.61a1.13,1.13,0,1,0-.76-2.12,1.12,1.12,0,0,0-.68,1.44A1.13,1.13,0,0,0,483.51,87.61Z"/><line class="cls-17" x1="483.13" y1="86.55" x2="491.39" y2="71.43"/><path class="cls-18" d="M484.12,87.09a1.13,1.13,0,1,1-.45-1.53A1.12,1.12,0,0,1,484.12,87.09Z"/><path class="cls-18" d="M492.38,72a1.13,1.13,0,1,0-1.53.45A1.12,1.12,0,0,0,492.38,72Z"/><line class="cls-17" x1="491.39" y1="71.43" x2="499.65" y2="88.02"/><path class="cls-18" d="M490.38,71.93a1.13,1.13,0,0,1,2-1,1.13,1.13,0,1,1-2,1Z"/><path class="cls-18" d="M498.64,88.52a1.12,1.12,0,0,0,1.51.51,1.13,1.13,0,1,0-1.51-.51Z"/><line class="cls-17" x1="499.65" y1="88.02" x2="507.91" y2="82.75"/><path class="cls-18" d="M500.25,89a1.13,1.13,0,1,1,.35-1.56A1.13,1.13,0,0,1,500.25,89Z"/><path class="cls-18" d="M508.51,83.7a1.12,1.12,0,0,0,.35-1.55,1.13,1.13,0,1,0-.35,1.55Z"/><line class="cls-17" x1="260.15" y1="88.39" x2="268.4" y2="87.28"/><path class="cls-18" d="M260.29,89.5a1.12,1.12,0,1,1,1-1.26A1.12,1.12,0,0,1,260.29,89.5Z"/><path class="cls-18" d="M268.55,88.4a1.13,1.13,0,0,0,1-1.27,1.13,1.13,0,1,0-1,1.27Z"/><line class="cls-17" x1="268.4" y1="87.28" x2="276.66" y2="88.75"/><path class="cls-18" d="M268.21,88.39a1.13,1.13,0,1,1,1.3-.91A1.12,1.12,0,0,1,268.21,88.39Z"/><path class="cls-18" d="M276.47,89.86a1.13,1.13,0,1,0-.92-1.3A1.12,1.12,0,0,0,276.47,89.86Z"/><line class="cls-17" x1="276.66" y1="88.75" x2="284.92" y2="87.28"/><path class="cls-18" d="M276.86,89.86a1.13,1.13,0,1,1,.91-1.3A1.13,1.13,0,0,1,276.86,89.86Z"/><path class="cls-18" d="M285.12,88.39a1.13,1.13,0,1,0-1.31-.91A1.12,1.12,0,0,0,285.12,88.39Z"/><line class="cls-17" x1="284.92" y1="87.28" x2="293.18" y2="90.96"/><path class="cls-18" d="M284.46,88.31a1.13,1.13,0,1,1,1.49-.57A1.13,1.13,0,0,1,284.46,88.31Z"/><path class="cls-18" d="M292.72,92a1.13,1.13,0,1,0,.92-2.06,1.12,1.12,0,0,0-1.49.57A1.13,1.13,0,0,0,292.72,92Z"/><line class="cls-17" x1="293.18" y1="90.96" x2="301.44" y2="88.75"/><path class="cls-18" d="M293.47,92.05a1.13,1.13,0,1,1,.8-1.38A1.13,1.13,0,0,1,293.47,92.05Z"/><path class="cls-18" d="M301.73,89.84a1.13,1.13,0,1,0-1.38-.8A1.13,1.13,0,0,0,301.73,89.84Z"/><line class="cls-17" x1="301.44" y1="88.75" x2="309.7" y2="82.14"/><path class="cls-18" d="M302.14,89.63a1.13,1.13,0,1,1,.18-1.58A1.13,1.13,0,0,1,302.14,89.63Z"/><path class="cls-18" d="M310.4,83a1.13,1.13,0,1,0-1.58-.18A1.13,1.13,0,0,0,310.4,83Z"/><line class="cls-17" x1="309.7" y1="82.14" x2="317.96" y2="85.08"/><path class="cls-18" d="M309.32,83.2a1.13,1.13,0,1,1,1.44-.68A1.12,1.12,0,0,1,309.32,83.2Z"/><path class="cls-18" d="M317.58,86.14a1.12,1.12,0,1,0-.69-1.44A1.13,1.13,0,0,0,317.58,86.14Z"/><line class="cls-17" x1="317.96" y1="85.08" x2="326.21" y2="68.86"/><path class="cls-18" d="M319,85.59a1.13,1.13,0,0,1-2-1,1.13,1.13,0,1,1,2,1Z"/><path class="cls-18" d="M327.22,69.37a1.13,1.13,0,1,0-1.52.49A1.13,1.13,0,0,0,327.22,69.37Z"/><line class="cls-17" x1="326.21" y1="68.86" x2="334.47" y2="71.55"/><path class="cls-18" d="M325.87,69.93a1.13,1.13,0,1,1,1.42-.72A1.13,1.13,0,0,1,325.87,69.93Z"/><path class="cls-18" d="M334.12,72.62a1.14,1.14,0,0,0,1.43-.72,1.13,1.13,0,1,0-1.43.72Z"/><line class="cls-17" x1="334.47" y1="71.55" x2="342.73" y2="74.49"/><path class="cls-18" d="M334.1,72.61a1.12,1.12,0,1,1,1.44-.68A1.13,1.13,0,0,1,334.1,72.61Z"/><path class="cls-18" d="M342.35,75.55a1.13,1.13,0,1,0-.68-1.44A1.12,1.12,0,0,0,342.35,75.55Z"/><line class="cls-17" x1="342.73" y1="74.49" x2="350.99" y2="85.2"/><path class="cls-18" d="M341.84,75.18a1.13,1.13,0,1,1,1.58.2A1.14,1.14,0,0,1,341.84,75.18Z"/><path class="cls-18" d="M350.1,85.89a1.13,1.13,0,1,0,.2-1.58A1.13,1.13,0,0,0,350.1,85.89Z"/><line class="cls-17" x1="350.99" y1="85.2" x2="359.25" y2="68.86"/><path class="cls-18" d="M352,85.71a1.13,1.13,0,1,1-.5-1.52A1.14,1.14,0,0,1,352,85.71Z"/><path class="cls-18" d="M360.26,69.36a1.13,1.13,0,1,0-1.52.5A1.13,1.13,0,0,0,360.26,69.36Z"/><line class="cls-17" x1="359.25" y1="68.86" x2="367.51" y2="72.65"/><path class="cls-18" d="M358.78,69.88a1.13,1.13,0,1,1,1.49-.55A1.13,1.13,0,0,1,358.78,69.88Z"/><path class="cls-18" d="M367,73.68a1.13,1.13,0,1,0-.56-1.5A1.12,1.12,0,0,0,367,73.68Z"/><line class="cls-17" x1="367.51" y1="72.65" x2="375.77" y2="78.65"/><path class="cls-18" d="M366.85,73.56a1.12,1.12,0,1,1,1.57-.25A1.11,1.11,0,0,1,366.85,73.56Z"/><path class="cls-18" d="M375.1,79.56a1.13,1.13,0,1,0-.25-1.57A1.12,1.12,0,0,0,375.1,79.56Z"/><line class="cls-17" x1="375.77" y1="78.65" x2="384.03" y2="74.55"/><path class="cls-18" d="M376.27,79.66a1.13,1.13,0,0,1-1-2,1.13,1.13,0,1,1,1,2Z"/><path class="cls-18" d="M384.53,75.56a1.13,1.13,0,1,0-1.51-.51A1.12,1.12,0,0,0,384.53,75.56Z"/><line class="cls-17" x1="136.27" y1="73.63" x2="144.52" y2="84.9"/><path class="cls-18" d="M135.36,74.3a1.13,1.13,0,1,1,1.57.24A1.12,1.12,0,0,1,135.36,74.3Z"/><path class="cls-18" d="M143.61,85.56a1.13,1.13,0,1,0,1.82-1.33,1.12,1.12,0,0,0-1.57-.24A1.13,1.13,0,0,0,143.61,85.56Z"/><line class="cls-17" x1="144.52" y1="84.9" x2="152.78" y2="81.96"/><path class="cls-18" d="M144.9,86a1.13,1.13,0,1,1,.69-1.44A1.13,1.13,0,0,1,144.9,86Z"/><path class="cls-18" d="M153.16,83a1.13,1.13,0,1,0-1.44-.68A1.13,1.13,0,0,0,153.16,83Z"/><line class="cls-17" x1="152.78" y1="81.96" x2="161.04" y2="89.49"/><path class="cls-18" d="M152,82.79a1.13,1.13,0,0,1,1.52-1.67A1.13,1.13,0,1,1,152,82.79Z"/><path class="cls-18" d="M160.28,90.32a1.13,1.13,0,1,0,1.52-1.67,1.13,1.13,0,0,0-1.52,1.67Z"/><line class="cls-17" x1="161.04" y1="89.49" x2="169.3" y2="91.14"/><path class="cls-18" d="M160.82,90.59a1.11,1.11,0,0,1-.88-1.32,1.13,1.13,0,1,1,.88,1.32Z"/><path class="cls-18" d="M169.08,92.25a1.13,1.13,0,1,0-.89-1.33A1.14,1.14,0,0,0,169.08,92.25Z"/><line class="cls-17" x1="169.3" y1="91.14" x2="177.56" y2="83.79"/><path class="cls-18" d="M170.05,92a1.13,1.13,0,1,1,.09-1.59A1.12,1.12,0,0,1,170.05,92Z"/><path class="cls-18" d="M178.31,84.64a1.13,1.13,0,0,0-1.5-1.69,1.13,1.13,0,0,0,1.5,1.69Z"/><line class="cls-17" x1="177.56" y1="83.79" x2="185.82" y2="78.56"/><path class="cls-18" d="M178.16,84.75a1.13,1.13,0,1,1,.35-1.56A1.13,1.13,0,0,1,178.16,84.75Z"/><path class="cls-18" d="M186.42,79.51a1.13,1.13,0,1,0-1.21-1.9,1.13,1.13,0,0,0,1.21,1.9Z"/><line class="cls-17" x1="185.82" y1="78.56" x2="194.08" y2="80.39"/><path class="cls-18" d="M185.57,79.66a1.12,1.12,0,0,1-.85-1.35,1.11,1.11,0,0,1,1.34-.85,1.12,1.12,0,0,1,.86,1.34A1.14,1.14,0,0,1,185.57,79.66Z"/><path class="cls-18" d="M193.83,81.5a1.13,1.13,0,0,0,.49-2.21,1.13,1.13,0,0,0-.49,2.21Z"/><line class="cls-17" x1="194.08" y1="80.39" x2="202.33" y2="81.5"/><path class="cls-18" d="M193.93,81.51a1.13,1.13,0,1,1,1.26-1A1.12,1.12,0,0,1,193.93,81.51Z"/><path class="cls-18" d="M202.19,82.62a1.13,1.13,0,1,0-1-1.27A1.13,1.13,0,0,0,202.19,82.62Z"/><line class="cls-17" x1="202.33" y1="81.5" x2="210.59" y2="88.39"/><path class="cls-18" d="M201.61,82.36a1.13,1.13,0,1,1,1.59-.14A1.13,1.13,0,0,1,201.61,82.36Z"/><path class="cls-18" d="M209.87,89.25a1.13,1.13,0,1,0-.14-1.59A1.13,1.13,0,0,0,209.87,89.25Z"/><line class="cls-17" x1="210.59" y1="88.39" x2="218.85" y2="89.49"/><path class="cls-18" d="M210.44,89.5a1.13,1.13,0,1,1,1.27-1A1.12,1.12,0,0,1,210.44,89.5Z"/><path class="cls-18" d="M218.7,90.61a1.13,1.13,0,1,0-1-1.27A1.14,1.14,0,0,0,218.7,90.61Z"/><line class="cls-17" x1="218.85" y1="89.49" x2="227.11" y2="83.95"/><path class="cls-18" d="M219.48,90.42a1.12,1.12,0,0,1-1.56-.3,1.13,1.13,0,1,1,1.87-1.26A1.12,1.12,0,0,1,219.48,90.42Z"/><path class="cls-18" d="M227.74,84.89a1.13,1.13,0,1,0-1.57-.31A1.14,1.14,0,0,0,227.74,84.89Z"/><line class="cls-17" x1="227.11" y1="83.95" x2="235.37" y2="89.49"/><path class="cls-18" d="M226.48,84.89a1.13,1.13,0,1,1,1.57-.31A1.15,1.15,0,0,1,226.48,84.89Z"/><path class="cls-18" d="M234.74,90.42a1.14,1.14,0,0,0,1.57-.3,1.15,1.15,0,0,0-.31-1.57,1.13,1.13,0,1,0-1.26,1.87Z"/><line class="cls-17" x1="235.37" y1="89.49" x2="243.63" y2="90.59"/><path class="cls-18" d="M235.22,90.61a1.13,1.13,0,1,1,1.27-1A1.13,1.13,0,0,1,235.22,90.61Z"/><path class="cls-18" d="M243.48,91.71a1.13,1.13,0,1,0-1-1.27A1.13,1.13,0,0,0,243.48,91.71Z"/><line class="cls-17" x1="243.63" y1="90.59" x2="251.89" y2="87.28"/><path class="cls-18" d="M244.05,91.64a1.13,1.13,0,1,1,.63-1.47A1.13,1.13,0,0,1,244.05,91.64Z"/><path class="cls-18" d="M252.31,88.33a1.13,1.13,0,1,0-1.47-.63A1.13,1.13,0,0,0,252.31,88.33Z"/><line class="cls-17" x1="251.89" y1="87.28" x2="260.15" y2="88.39"/><path class="cls-18" d="M251.74,88.4a1.13,1.13,0,1,1,.3-2.23,1.13,1.13,0,0,1-.3,2.23Z"/><path class="cls-18" d="M260,89.5a1.12,1.12,0,1,0-1-1.26A1.12,1.12,0,0,0,260,89.5Z"/><line class="cls-17" x1="20.64" y1="89.49" x2="28.9" y2="83.65"/><path class="cls-18" d="M21.3,90.41a1.14,1.14,0,0,1-1.58-.27A1.12,1.12,0,0,1,20,88.57a1.13,1.13,0,1,1,1.31,1.84Z"/><path class="cls-18" d="M29.55,84.58A1.13,1.13,0,1,0,28,84.31,1.14,1.14,0,0,0,29.55,84.58Z"/><line class="cls-17" x1="28.9" y1="83.65" x2="37.16" y2="83.96"/><path class="cls-18" d="M28.86,84.78A1.13,1.13,0,1,1,30,83.7,1.13,1.13,0,0,1,28.86,84.78Z"/><path class="cls-18" d="M37.12,85.09a1.13,1.13,0,0,0,.08-2.26,1.13,1.13,0,1,0-.08,2.26Z"/><line class="cls-17" x1="37.16" y1="83.96" x2="45.42" y2="76.06"/><path class="cls-18" d="M37.94,84.78a1.13,1.13,0,0,1-1.56-1.63,1.13,1.13,0,1,1,1.56,1.63Z"/><path class="cls-18" d="M46.2,76.88a1.13,1.13,0,1,0-1.56-1.63,1.13,1.13,0,0,0,1.56,1.63Z"/><line class="cls-17" x1="45.42" y1="76.06" x2="53.68" y2="74.59"/><path class="cls-18" d="M45.62,77.17a1.13,1.13,0,1,1,.91-1.3A1.13,1.13,0,0,1,45.62,77.17Z"/><path class="cls-18" d="M53.88,75.7a1.12,1.12,0,0,0,.91-1.3,1.13,1.13,0,1,0-.91,1.3Z"/><line class="cls-17" x1="53.68" y1="74.59" x2="61.94" y2="71.11"/><path class="cls-18" d="M54.12,75.63a1.12,1.12,0,1,1,.6-1.47A1.12,1.12,0,0,1,54.12,75.63Z"/><path class="cls-18" d="M62.38,72.14a1.12,1.12,0,1,0-1.48-.6A1.12,1.12,0,0,0,62.38,72.14Z"/><line class="cls-17" x1="61.94" y1="71.11" x2="70.2" y2="69.64"/><path class="cls-18" d="M62.14,72.22a1.13,1.13,0,1,1,.91-1.31A1.13,1.13,0,0,1,62.14,72.22Z"/><path class="cls-18" d="M70.39,70.75A1.13,1.13,0,1,0,70,68.53a1.13,1.13,0,0,0,.39,2.22Z"/><line class="cls-17" x1="70.2" y1="69.64" x2="78.45" y2="69.7"/><path class="cls-18" d="M70.19,70.76a1.13,1.13,0,1,1,1.13-1.12A1.12,1.12,0,0,1,70.19,70.76Z"/><path class="cls-18" d="M78.45,70.82a1.13,1.13,0,1,0-1.12-1.13A1.11,1.11,0,0,0,78.45,70.82Z"/><line class="cls-17" x1="78.45" y1="69.7" x2="86.71" y2="81.7"/><path class="cls-18" d="M77.53,70.34a1.12,1.12,0,1,1,1.56.29A1.12,1.12,0,0,1,77.53,70.34Z"/><path class="cls-18" d="M85.78,82.34a1.14,1.14,0,0,0,1.57.29,1.13,1.13,0,1,0-1.28-1.86A1.13,1.13,0,0,0,85.78,82.34Z"/><line class="cls-17" x1="86.71" y1="81.7" x2="94.97" y2="76.63"/><path class="cls-18" d="M87.3,82.66a1.13,1.13,0,0,1-1.18-1.93,1.13,1.13,0,1,1,1.18,1.93Z"/><path class="cls-18" d="M95.56,77.59A1.13,1.13,0,1,0,94,77.22,1.12,1.12,0,0,0,95.56,77.59Z"/><line class="cls-17" x1="94.97" y1="76.63" x2="103.23" y2="89.49"/><path class="cls-18" d="M94,77.24A1.13,1.13,0,0,1,95.92,76,1.13,1.13,0,0,1,94,77.24Z"/><path class="cls-18" d="M102.28,90.1a1.13,1.13,0,1,0,1.9-1.22,1.12,1.12,0,0,0-1.56-.34A1.14,1.14,0,0,0,102.28,90.1Z"/><line class="cls-17" x1="103.23" y1="89.49" x2="111.49" y2="92.43"/><path class="cls-18" d="M102.85,90.55a1.13,1.13,0,1,1,1.44-.68A1.13,1.13,0,0,1,102.85,90.55Z"/><path class="cls-18" d="M111.11,93.49a1.13,1.13,0,1,0-.68-1.44A1.13,1.13,0,0,0,111.11,93.49Z"/><line class="cls-17" x1="111.49" y1="92.43" x2="119.75" y2="88.02"/><path class="cls-18" d="M112,93.42a1.13,1.13,0,1,1,.46-1.52A1.11,1.11,0,0,1,112,93.42Z"/><path class="cls-18" d="M120.28,89a1.11,1.11,0,0,0,.46-1.52,1.12,1.12,0,0,0-1.52-.47,1.14,1.14,0,0,0-.47,1.53A1.13,1.13,0,0,0,120.28,89Z"/><line class="cls-17" x1="119.75" y1="88.02" x2="128.01" y2="75.47"/><path class="cls-18" d="M120.69,88.64a1.13,1.13,0,1,1-.32-1.56A1.13,1.13,0,0,1,120.69,88.64Z"/><path class="cls-18" d="M129,76.09a1.13,1.13,0,1,0-1.56.32A1.13,1.13,0,0,0,129,76.09Z"/><line class="cls-17" x1="128.01" y1="75.47" x2="136.27" y2="73.63"/><path class="cls-18" d="M128.25,76.57a1.13,1.13,0,1,1,.86-1.35A1.14,1.14,0,0,1,128.25,76.57Z"/><path class="cls-18" d="M136.51,74.73a1.13,1.13,0,1,0-1.35-.85A1.13,1.13,0,0,0,136.51,74.73Z"/></g></g></svg>