<svg xmlns="http://www.w3.org/2000/svg" xmlns:xlink="http://www.w3.org/1999/xlink" width="658.88" height="272.99" viewBox="0 0 658.88 272.99"><defs><style>.cls-1{fill:#f5f7fb;}.cls-2{fill:#fff;}.cls-3,.cls-5{fill:none;stroke-miterlimit:10;}.cls-3{stroke:#d2d8e5;}.cls-4{opacity:0.3;fill:url(#무제_그라디언트_13);}.cls-5{stroke:#279fe3;}.cls-15,.cls-6{fill:#279fe3;}.cls-7{font-size:9px;}.cls-11,.cls-7{fill:#727171;font-family:Pretendard-Light-KSCpc-EUC-H, Pretendard;}.cls-8{letter-spacing:-0.03em;}.cls-9{letter-spacing:-0.03em;}.cls-10{letter-spacing:-0.08em;}.cls-11{font-size:8px;}.cls-12{letter-spacing:-0.02em;}.cls-13{letter-spacing:-0.02em;}.cls-14{letter-spacing:-0.01em;}.cls-15{opacity:0.1;}</style><linearGradient id="무제_그라디언트_13" x1="332.87" y1="83.79" x2="332.87" y2="243.71" gradientUnits="userSpaceOnUse"><stop offset="0" stop-color="#279fe3"/><stop offset="1" stop-color="#279fe3" stop-opacity="0"/></linearGradient></defs><title>자산 48</title><g id="레이어_2" data-name="레이어 2"><g id="레이어_1-2" data-name="레이어 1"><rect class="cls-1" x="24.87" y="19.71" width="616" height="32"/><rect class="cls-2" x="24.87" y="51.71" width="616" height="32"/><rect class="cls-1" x="24.87" y="83.71" width="616" height="32"/><rect class="cls-2" x="24.87" y="115.71" width="616" height="32"/><rect class="cls-1" x="24.87" y="147.71" width="616" height="32"/><rect class="cls-2" x="24.87" y="179.71" width="616" height="32"/><rect class="cls-1" x="24.87" y="211.71" width="616" height="32"/><polyline class="cls-3" points="640.87 243.71 24.87 243.71 24.87 19.71"/><line class="cls-3" x1="72.25" y1="243.71" x2="72.25" y2="19.71"/><line class="cls-3" x1="119.64" y1="243.71" x2="119.64" y2="19.71"/><line class="cls-3" x1="167.02" y1="243.71" x2="167.02" y2="19.71"/><line class="cls-3" x1="214.41" y1="243.71" x2="214.41" y2="19.71"/><line class="cls-3" x1="261.79" y1="243.71" x2="261.79" y2="19.71"/><line class="cls-3" x1="309.18" y1="243.71" x2="309.18" y2="19.71"/><line class="cls-3" x1="356.56" y1="243.71" x2="356.56" y2="19.71"/><line class="cls-3" x1="403.95" y1="243.71" x2="403.95" y2="19.71"/><line class="cls-3" x1="451.33" y1="243.71" x2="451.33" y2="19.71"/><line class="cls-3" x1="498.72" y1="243.71" x2="498.72" y2="19.71"/><line class="cls-3" x1="546.1" y1="243.71" x2="546.1" y2="19.71"/><line class="cls-3" x1="593.48" y1="243.71" x2="593.48" y2="19.71"/><path class="cls-4" d="M640.87,214.34c-30.86,0-44.38-53.4-85.8-53.4-42.05,0-54.49,54.19-89.92,54.19-57.2,0-76-131.34-132.28-131.34S257.79,215.13,200.6,215.13c-35.44,0-47.87-54.19-89.92-54.19-41.42,0-55,53.4-85.81,53.4v29.37h616Z"/><path class="cls-5" d="M24.87,214.34c30.86,0,44.39-53.4,85.81-53.4,42,0,54.48,54.19,89.92,54.19,57.19,0,76-131.34,132.27-131.34S408,215.13,465.15,215.13c35.43,0,47.87-54.19,89.92-54.19,41.42,0,54.94,53.4,85.8,53.4"/><circle class="cls-2" cx="24.87" cy="214.33" r="3.5"/><path class="cls-6" d="M24.87,212.83a1.5,1.5,0,1,1-1.5,1.5,1.5,1.5,0,0,1,1.5-1.5m0-2a3.5,3.5,0,1,0,3.5,3.5,3.5,3.5,0,0,0-3.5-3.5Z"/><circle class="cls-2" cx="72.25" cy="179.11" r="3.5"/><path class="cls-6" d="M72.25,177.61a1.5,1.5,0,1,1-1.5,1.5,1.5,1.5,0,0,1,1.5-1.5m0-2a3.5,3.5,0,1,0,3.5,3.5,3.5,3.5,0,0,0-3.5-3.5Z"/><circle class="cls-2" cx="119.64" cy="161.88" r="3.5"/><path class="cls-6" d="M119.64,160.38a1.5,1.5,0,1,1-1.5,1.5,1.5,1.5,0,0,1,1.5-1.5m0-2a3.5,3.5,0,1,0,3.5,3.5,3.5,3.5,0,0,0-3.5-3.5Z"/><circle class="cls-2" cx="167.02" cy="197.38" r="3.5"/><path class="cls-6" d="M167,195.88a1.5,1.5,0,1,1-1.5,1.5,1.5,1.5,0,0,1,1.5-1.5m0-2a3.5,3.5,0,1,0,3.5,3.5,3.5,3.5,0,0,0-3.5-3.5Z"/><circle class="cls-2" cx="214.41" cy="212.5" r="3.5"/><path class="cls-6" d="M214.41,211a1.5,1.5,0,1,1-1.5,1.5,1.5,1.5,0,0,1,1.5-1.5m0-2a3.5,3.5,0,1,0,3.5,3.5,3.5,3.5,0,0,0-3.5-3.5Z"/><circle class="cls-2" cx="261.79" cy="158.84" r="3.5"/><path class="cls-6" d="M261.79,157.34a1.5,1.5,0,1,1-1.5,1.5,1.5,1.5,0,0,1,1.5-1.5m0-2a3.5,3.5,0,1,0,3.5,3.5,3.5,3.5,0,0,0-3.5-3.5Z"/><circle class="cls-2" cx="309.18" cy="92.32" r="3.5"/><path class="cls-6" d="M309.18,90.82a1.5,1.5,0,1,1-1.5,1.5,1.5,1.5,0,0,1,1.5-1.5m0-2a3.5,3.5,0,1,0,3.5,3.5,3.5,3.5,0,0,0-3.5-3.5Z"/><circle class="cls-2" cx="640.87" cy="214.33" r="3.5"/><path class="cls-6" d="M640.87,212.83a1.5,1.5,0,1,1-1.5,1.5,1.5,1.5,0,0,1,1.5-1.5m0-2a3.5,3.5,0,1,0,3.5,3.5,3.5,3.5,0,0,0-3.5-3.5Z"/><circle class="cls-2" cx="593.49" cy="179.11" r="3.5"/><path class="cls-6" d="M593.49,177.61a1.5,1.5,0,1,1-1.5,1.5,1.5,1.5,0,0,1,1.5-1.5m0-2a3.5,3.5,0,1,0,3.5,3.5,3.49,3.49,0,0,0-3.5-3.5Z"/><circle class="cls-2" cx="546.1" cy="161.88" r="3.5"/><path class="cls-6" d="M546.1,160.38a1.5,1.5,0,1,1-1.5,1.5,1.5,1.5,0,0,1,1.5-1.5m0-2a3.5,3.5,0,1,0,3.5,3.5,3.5,3.5,0,0,0-3.5-3.5Z"/><circle class="cls-2" cx="498.72" cy="197.38" r="3.5"/><path class="cls-6" d="M498.72,195.88a1.5,1.5,0,1,1-1.5,1.5,1.51,1.51,0,0,1,1.5-1.5m0-2a3.5,3.5,0,1,0,3.5,3.5,3.5,3.5,0,0,0-3.5-3.5Z"/><circle class="cls-2" cx="451.33" cy="212.5" r="3.5"/><path class="cls-6" d="M451.33,211a1.5,1.5,0,1,1-1.5,1.5,1.5,1.5,0,0,1,1.5-1.5m0-2a3.5,3.5,0,1,0,3.5,3.5,3.5,3.5,0,0,0-3.5-3.5Z"/><circle class="cls-2" cx="403.95" cy="158.84" r="3.5"/><path class="cls-6" d="M404,157.34a1.5,1.5,0,1,1-1.5,1.5,1.51,1.51,0,0,1,1.5-1.5m0-2a3.5,3.5,0,1,0,3.5,3.5,3.5,3.5,0,0,0-3.5-3.5Z"/><circle class="cls-2" cx="356.56" cy="92.32" r="3.5"/><path class="cls-6" d="M356.56,90.82a1.5,1.5,0,1,1-1.5,1.5,1.5,1.5,0,0,1,1.5-1.5m0-2a3.5,3.5,0,1,0,3.5,3.5,3.5,3.5,0,0,0-3.5-3.5Z"/><text class="cls-7" transform="translate(7.53 267.71)">00:51:40</text><text class="cls-7" transform="translate(12.41 245.19)">0</text><text class="cls-7" transform="translate(0.18 213.4)"><tspan class="cls-8">0.</tspan><tspan x="6.93" y="0">02</tspan></text><text class="cls-7" transform="translate(0 181.62)"><tspan class="cls-8">0.</tspan><tspan x="6.93" y="0">04</tspan></text><text class="cls-7" transform="translate(0.08 149.84)"><tspan class="cls-9">0.</tspan><tspan x="6.93" y="0">06</tspan></text><text class="cls-7" transform="translate(0.07 118.06)"><tspan class="cls-8">0.</tspan><tspan x="6.93" y="0">08</tspan></text><text class="cls-7" transform="translate(2.16 86.27)"><tspan class="cls-9">0</tspan><tspan class="cls-10" x="4.99" y="0">.</tspan><tspan x="6.46" y="0">10</tspan></text><text class="cls-7" transform="translate(2.1 54.49)"><tspan class="cls-9">0</tspan><tspan class="cls-10" x="4.99" y="0">.</tspan><tspan x="6.46" y="0">12</tspan></text><text class="cls-7" transform="translate(1.93 22.71)"><tspan class="cls-9">0</tspan><tspan class="cls-10" x="4.99" y="0">.</tspan><tspan x="6.46" y="0">14</tspan></text><text class="cls-7" transform="translate(54.28 267.71)">00:52:00</text><text class="cls-7" transform="translate(101.63 267.71)">00:52:20</text><text class="cls-7" transform="translate(148.93 267.71)">00:52:40</text><text class="cls-7" transform="translate(196.34 267.71)">00:53:00</text><text class="cls-7" transform="translate(243.69 267.71)">00:53:20</text><text class="cls-7" transform="translate(290.99 267.71)">00:53:40</text><text class="cls-7" transform="translate(338.49 267.71)">00:54:00</text><text class="cls-7" transform="translate(385.84 267.71)">00:54:20</text><text class="cls-7" transform="translate(433.14 267.71)">00:54:40</text><text class="cls-7" transform="translate(480.74 267.71)">00:55:00</text><text class="cls-7" transform="translate(528.1 267.71)">00:55:20</text><text class="cls-7" transform="translate(575.4 267.71)">00:55:40</text><text class="cls-7" transform="translate(622.82 267.71)">00:56:00</text><text class="cls-11" transform="translate(484.65 7.66)">726d6d1c<tspan class="cls-12" x="35.54" y="0">-</tspan><tspan class="cls-13" x="38.76" y="0">7</tspan><tspan x="42.98" y="0">04b</tspan><tspan class="cls-14" x="57.17" y="0">-</tspan><tspan x="60.49" y="0">4987-b09b-0881f84c6571</tspan></text><rect class="cls-15" x="460.67" y="0.5" width="16" height="8"/><rect class="cls-5" x="460.67" y="0.5" width="16" height="8"/></g></g></svg>