<svg xmlns="http://www.w3.org/2000/svg" width="740.79" height="176.52" viewBox="0 0 740.79 176.52"><defs><style>.cls-1{fill:#d2d8e5;}.cls-2{font-size:9px;}.cls-13,.cls-2,.cls-8{fill:#727171;}.cls-2,.cls-8{font-family:Pretendard-Light-KSCpc-EUC-H, Pretendard;}.cls-3{letter-spacing:-0.03em;}.cls-4{letter-spacing:-0.01em;}.cls-5{letter-spacing:-0.04em;}.cls-6{letter-spacing:-0.01em;}.cls-7{letter-spacing:-0.03em;}.cls-8{font-size:11px;}.cls-9{letter-spacing:-0.07em;}.cls-10{letter-spacing:-0.02em;}.cls-11{letter-spacing:0em;}.cls-12{letter-spacing:0em;}.cls-13{font-size:12px;font-family:Pretendard-Medium-KSCpc-EUC-H, Pretendard;}.cls-14{letter-spacing:-0.02em;}.cls-15{letter-spacing:-0.01em;}.cls-16,.cls-20{fill:none;stroke-miterlimit:10;}.cls-16{stroke:#d2d8e5;}.cls-17{fill:#fff;}.cls-18,.cls-19{fill:#279fe3;}.cls-19{opacity:0.1;}.cls-20{stroke:#279fe3;}</style></defs><title>자산 47</title><g id="레이어_2" data-name="레이어 2"><g id="레이어_1-2" data-name="레이어 1"><rect class="cls-1" x="60.79" y="30.45" width="8" height="138.91"/><text class="cls-2" transform="translate(47.55 171.24)">0</text><text class="cls-2" transform="translate(40.43 154.08)"><tspan class="cls-3">0</tspan><tspan class="cls-4" x="4.99" y="0">.</tspan><tspan x="7.11" y="0">5</tspan></text><text class="cls-2" transform="translate(49 136.92)">1</text><text class="cls-2" transform="translate(42 119.76)"><tspan class="cls-5">1</tspan><tspan class="cls-4" x="3.42" y="0">.</tspan><tspan x="5.54" y="0">5</tspan></text><text class="cls-2" transform="translate(47.49 102.6)">2</text><text class="cls-2" transform="translate(40.12 85.44)">2<tspan class="cls-6" x="5.3" y="0">.</tspan><tspan x="7.42" y="0">5</tspan></text><text class="cls-2" transform="translate(47.32 68.27)">3</text><text class="cls-2" transform="translate(40.17 51.11)"><tspan class="cls-7">3</tspan><tspan class="cls-6" x="5.25" y="0">.</tspan><tspan x="7.37" y="0">5</tspan></text><text class="cls-2" transform="translate(47.32 33.95)">4</text><text class="cls-8" transform="translate(19.32 10.47)"><tspan class="cls-9">A</tspan><tspan class="cls-10" x="6.16" y="0">v</tspan><tspan x="11.62" y="0">e</tspan><tspan class="cls-11" x="17.66" y="0">r</tspan><tspan class="cls-12" x="21.33" y="0">age node_count</tspan></text><text class="cls-13" transform="translate(11.43 155.82) rotate(-90)"><tspan class="cls-9">A</tspan><tspan class="cls-14" x="7.23" y="0">v</tspan><tspan x="13.49" y="0">e</tspan><tspan class="cls-15" x="20.21" y="0">r</tspan><tspan x="24.51" y="0">age node_count</tspan></text><line class="cls-16" x1="60.79" y1="169.36" x2="740.79" y2="169.36"/><circle class="cls-17" cx="4.16" cy="6.97" r="3.5"/><path class="cls-18" d="M4.16,5.47A1.5,1.5,0,1,1,2.66,7a1.5,1.5,0,0,1,1.5-1.5m0-2A3.5,3.5,0,1,0,7.66,7a3.5,3.5,0,0,0-3.5-3.5Z"/><polyline class="cls-19" points="61.29 134.85 61.29 169.36 720.72 169.36 720.72 134.95 702.9 127.46 685.08 67.87 667.25 65.37 364.27 65.37 346.45 113.54 328.63 75.62 310.81 65.37 292.98 65.37 275.16 100.56 257.34 90.99 239.52 65.37 221.69 102.72 203.87 134.85 186.05 134.85 168.23 102.72 150.41 30.45 132.58 60.69 114.76 125.55 96.94 130.2 79.12 134.85 61.29 134.85"/><polyline class="cls-20" points="61.29 134.85 79.12 134.85 96.94 130.2 114.76 125.55 132.58 60.69 150.41 30.45 168.23 102.72 186.05 134.85 203.87 134.85 221.69 102.72 239.52 65.37 257.34 90.99 275.16 100.56 292.98 65.37 310.81 65.37 328.63 75.62 346.45 113.54 364.27 65.37 667.25 65.37 685.08 67.87 702.9 127.46 720.72 134.95"/><circle class="cls-17" cx="720.72" cy="134.95" r="3.5"/><path class="cls-18" d="M720.72,133.45a1.5,1.5,0,1,1-1.5,1.5,1.5,1.5,0,0,1,1.5-1.5m0-2a3.5,3.5,0,1,0,3.5,3.5,3.5,3.5,0,0,0-3.5-3.5Z"/><circle class="cls-17" cx="61.29" cy="134.85" r="3.5"/><path class="cls-18" d="M61.29,133.35a1.5,1.5,0,1,1-1.5,1.5,1.5,1.5,0,0,1,1.5-1.5m0-2a3.5,3.5,0,1,0,3.5,3.5,3.5,3.5,0,0,0-3.5-3.5Z"/><circle class="cls-17" cx="79.12" cy="134.85" r="3.5"/><path class="cls-18" d="M79.12,133.35a1.5,1.5,0,1,1-1.5,1.5,1.5,1.5,0,0,1,1.5-1.5m0-2a3.5,3.5,0,1,0,3.5,3.5,3.5,3.5,0,0,0-3.5-3.5Z"/><circle class="cls-17" cx="96.94" cy="130.2" r="3.5"/><path class="cls-18" d="M96.94,128.7a1.5,1.5,0,1,1-1.5,1.5,1.5,1.5,0,0,1,1.5-1.5m0-2a3.5,3.5,0,1,0,3.5,3.5,3.5,3.5,0,0,0-3.5-3.5Z"/><circle class="cls-17" cx="114.76" cy="125.55" r="3.5"/><path class="cls-18" d="M114.76,124.05a1.5,1.5,0,1,1-1.5,1.5,1.5,1.5,0,0,1,1.5-1.5m0-2a3.5,3.5,0,1,0,3.5,3.5,3.5,3.5,0,0,0-3.5-3.5Z"/><circle class="cls-17" cx="132.58" cy="60.69" r="3.5"/><path class="cls-18" d="M132.58,59.19a1.5,1.5,0,1,1-1.5,1.5,1.5,1.5,0,0,1,1.5-1.5m0-2a3.5,3.5,0,1,0,3.5,3.5,3.5,3.5,0,0,0-3.5-3.5Z"/><circle class="cls-17" cx="150.41" cy="30.45" r="3.5"/><path class="cls-18" d="M150.41,29a1.5,1.5,0,1,1-1.5,1.5,1.5,1.5,0,0,1,1.5-1.5m0-2a3.5,3.5,0,1,0,3.5,3.5,3.5,3.5,0,0,0-3.5-3.5Z"/><circle class="cls-17" cx="168.23" cy="102.72" r="3.5"/><path class="cls-18" d="M168.23,101.22a1.5,1.5,0,1,1-1.5,1.5,1.5,1.5,0,0,1,1.5-1.5m0-2a3.5,3.5,0,1,0,3.5,3.5,3.5,3.5,0,0,0-3.5-3.5Z"/><circle class="cls-17" cx="186.05" cy="134.85" r="3.5"/><path class="cls-18" d="M186.05,133.35a1.5,1.5,0,1,1-1.5,1.5,1.5,1.5,0,0,1,1.5-1.5m0-2a3.5,3.5,0,1,0,3.5,3.5,3.5,3.5,0,0,0-3.5-3.5Z"/><circle class="cls-17" cx="203.87" cy="134.85" r="3.5"/><path class="cls-18" d="M203.87,133.35a1.5,1.5,0,1,1-1.5,1.5,1.5,1.5,0,0,1,1.5-1.5m0-2a3.5,3.5,0,1,0,3.5,3.5,3.5,3.5,0,0,0-3.5-3.5Z"/><circle class="cls-17" cx="221.69" cy="102.72" r="3.5"/><path class="cls-18" d="M221.69,101.22a1.5,1.5,0,1,1-1.5,1.5,1.5,1.5,0,0,1,1.5-1.5m0-2a3.5,3.5,0,1,0,3.5,3.5,3.5,3.5,0,0,0-3.5-3.5Z"/><circle class="cls-17" cx="239.52" cy="65.37" r="3.5"/><path class="cls-18" d="M239.52,63.87a1.5,1.5,0,1,1-1.5,1.5,1.51,1.51,0,0,1,1.5-1.5m0-2a3.5,3.5,0,1,0,3.5,3.5,3.5,3.5,0,0,0-3.5-3.5Z"/><circle class="cls-17" cx="257.34" cy="90.99" r="3.5"/><path class="cls-18" d="M257.34,89.49a1.5,1.5,0,1,1-1.5,1.5,1.5,1.5,0,0,1,1.5-1.5m0-2a3.5,3.5,0,1,0,3.5,3.5,3.5,3.5,0,0,0-3.5-3.5Z"/><circle class="cls-17" cx="275.16" cy="100.56" r="3.5"/><path class="cls-18" d="M275.16,99.06a1.5,1.5,0,1,1-1.5,1.5,1.5,1.5,0,0,1,1.5-1.5m0-2a3.5,3.5,0,1,0,3.5,3.5,3.5,3.5,0,0,0-3.5-3.5Z"/><circle class="cls-17" cx="292.98" cy="65.37" r="3.5"/><path class="cls-18" d="M293,63.87a1.5,1.5,0,1,1-1.5,1.5,1.5,1.5,0,0,1,1.5-1.5m0-2a3.5,3.5,0,1,0,3.5,3.5,3.5,3.5,0,0,0-3.5-3.5Z"/><circle class="cls-17" cx="310.81" cy="65.37" r="3.5"/><path class="cls-18" d="M310.81,63.87a1.5,1.5,0,1,1-1.5,1.5,1.51,1.51,0,0,1,1.5-1.5m0-2a3.5,3.5,0,1,0,3.5,3.5,3.5,3.5,0,0,0-3.5-3.5Z"/><circle class="cls-17" cx="328.63" cy="75.62" r="3.5"/><path class="cls-18" d="M328.63,74.12a1.5,1.5,0,1,1-1.5,1.5,1.5,1.5,0,0,1,1.5-1.5m0-2a3.5,3.5,0,1,0,3.5,3.5,3.5,3.5,0,0,0-3.5-3.5Z"/><circle class="cls-17" cx="346.45" cy="113.54" r="3.5"/><path class="cls-18" d="M346.45,112a1.5,1.5,0,1,1-1.5,1.5,1.5,1.5,0,0,1,1.5-1.5m0-2a3.5,3.5,0,1,0,3.5,3.5,3.5,3.5,0,0,0-3.5-3.5Z"/><circle class="cls-17" cx="364.27" cy="65.37" r="3.5"/><path class="cls-18" d="M364.27,63.87a1.5,1.5,0,1,1-1.5,1.5,1.5,1.5,0,0,1,1.5-1.5m0-2a3.5,3.5,0,1,0,3.5,3.5,3.5,3.5,0,0,0-3.5-3.5Z"/><circle class="cls-17" cx="382.1" cy="65.37" r="3.5"/><path class="cls-18" d="M382.1,63.87a1.5,1.5,0,1,1-1.5,1.5,1.51,1.51,0,0,1,1.5-1.5m0-2a3.5,3.5,0,1,0,3.5,3.5,3.5,3.5,0,0,0-3.5-3.5Z"/><circle class="cls-17" cx="399.92" cy="65.37" r="3.5"/><path class="cls-18" d="M399.92,63.87a1.5,1.5,0,1,1-1.5,1.5,1.5,1.5,0,0,1,1.5-1.5m0-2a3.5,3.5,0,1,0,3.5,3.5,3.5,3.5,0,0,0-3.5-3.5Z"/><circle class="cls-17" cx="417.74" cy="65.37" r="3.5"/><path class="cls-18" d="M417.74,63.87a1.5,1.5,0,1,1-1.5,1.5,1.5,1.5,0,0,1,1.5-1.5m0-2a3.5,3.5,0,1,0,3.5,3.5,3.5,3.5,0,0,0-3.5-3.5Z"/><circle class="cls-17" cx="435.56" cy="65.37" r="3.5"/><path class="cls-18" d="M435.56,63.87a1.5,1.5,0,1,1-1.5,1.5,1.5,1.5,0,0,1,1.5-1.5m0-2a3.5,3.5,0,1,0,3.5,3.5,3.5,3.5,0,0,0-3.5-3.5Z"/><circle class="cls-17" cx="453.39" cy="65.37" r="3.5"/><path class="cls-18" d="M453.39,63.87a1.5,1.5,0,1,1-1.5,1.5,1.51,1.51,0,0,1,1.5-1.5m0-2a3.5,3.5,0,1,0,3.5,3.5,3.5,3.5,0,0,0-3.5-3.5Z"/><circle class="cls-17" cx="471.21" cy="65.37" r="3.5"/><path class="cls-18" d="M471.21,63.87a1.5,1.5,0,1,1-1.5,1.5,1.51,1.51,0,0,1,1.5-1.5m0-2a3.5,3.5,0,1,0,3.5,3.5,3.5,3.5,0,0,0-3.5-3.5Z"/><circle class="cls-17" cx="489.03" cy="65.37" r="3.5"/><path class="cls-18" d="M489,63.87a1.5,1.5,0,1,1-1.5,1.5,1.5,1.5,0,0,1,1.5-1.5m0-2a3.5,3.5,0,1,0,3.5,3.5,3.5,3.5,0,0,0-3.5-3.5Z"/><circle class="cls-17" cx="506.85" cy="65.37" r="3.5"/><path class="cls-18" d="M506.85,63.87a1.5,1.5,0,1,1-1.5,1.5,1.5,1.5,0,0,1,1.5-1.5m0-2a3.5,3.5,0,1,0,3.5,3.5,3.5,3.5,0,0,0-3.5-3.5Z"/><circle class="cls-17" cx="524.67" cy="65.37" r="3.5"/><path class="cls-18" d="M524.67,63.87a1.5,1.5,0,1,1-1.5,1.5,1.5,1.5,0,0,1,1.5-1.5m0-2a3.5,3.5,0,1,0,3.5,3.5,3.5,3.5,0,0,0-3.5-3.5Z"/><circle class="cls-17" cx="542.5" cy="65.37" r="3.5"/><path class="cls-18" d="M542.5,63.87a1.5,1.5,0,1,1-1.5,1.5,1.51,1.51,0,0,1,1.5-1.5m0-2a3.5,3.5,0,1,0,3.5,3.5,3.5,3.5,0,0,0-3.5-3.5Z"/><circle class="cls-17" cx="560.32" cy="65.37" r="3.5"/><path class="cls-18" d="M560.32,63.87a1.5,1.5,0,1,1-1.5,1.5,1.5,1.5,0,0,1,1.5-1.5m0-2a3.5,3.5,0,1,0,3.5,3.5,3.5,3.5,0,0,0-3.5-3.5Z"/><circle class="cls-17" cx="578.14" cy="65.37" r="3.5"/><path class="cls-18" d="M578.14,63.87a1.5,1.5,0,1,1-1.5,1.5,1.5,1.5,0,0,1,1.5-1.5m0-2a3.5,3.5,0,1,0,3.5,3.5,3.5,3.5,0,0,0-3.5-3.5Z"/><circle class="cls-17" cx="595.96" cy="65.37" r="3.5"/><path class="cls-18" d="M596,63.87a1.5,1.5,0,1,1-1.5,1.5,1.5,1.5,0,0,1,1.5-1.5m0-2a3.5,3.5,0,1,0,3.5,3.5,3.5,3.5,0,0,0-3.5-3.5Z"/><circle class="cls-17" cx="613.79" cy="65.37" r="3.5"/><path class="cls-18" d="M613.79,63.87a1.5,1.5,0,1,1-1.5,1.5,1.51,1.51,0,0,1,1.5-1.5m0-2a3.5,3.5,0,1,0,3.5,3.5,3.5,3.5,0,0,0-3.5-3.5Z"/><circle class="cls-17" cx="631.61" cy="65.37" r="3.5"/><path class="cls-18" d="M631.61,63.87a1.5,1.5,0,1,1-1.5,1.5,1.5,1.5,0,0,1,1.5-1.5m0-2a3.5,3.5,0,1,0,3.5,3.5,3.5,3.5,0,0,0-3.5-3.5Z"/><circle class="cls-17" cx="649.43" cy="65.37" r="3.5"/><path class="cls-18" d="M649.43,63.87a1.5,1.5,0,1,1-1.5,1.5,1.5,1.5,0,0,1,1.5-1.5m0-2a3.5,3.5,0,1,0,3.5,3.5,3.5,3.5,0,0,0-3.5-3.5Z"/><circle class="cls-17" cx="667.25" cy="65.37" r="3.5"/><path class="cls-18" d="M667.25,63.87a1.5,1.5,0,1,1-1.5,1.5,1.5,1.5,0,0,1,1.5-1.5m0-2a3.5,3.5,0,1,0,3.5,3.5,3.5,3.5,0,0,0-3.5-3.5Z"/><circle class="cls-17" cx="685.08" cy="67.87" r="3.5"/><path class="cls-18" d="M685.08,66.37a1.5,1.5,0,1,1-1.5,1.5,1.5,1.5,0,0,1,1.5-1.5m0-2a3.5,3.5,0,1,0,3.5,3.5,3.49,3.49,0,0,0-3.5-3.5Z"/><circle class="cls-17" cx="702.9" cy="127.46" r="3.5"/><path class="cls-18" d="M702.9,126a1.5,1.5,0,1,1-1.5,1.5,1.5,1.5,0,0,1,1.5-1.5m0-2a3.5,3.5,0,1,0,3.5,3.5,3.5,3.5,0,0,0-3.5-3.5Z"/></g></g></svg>