<svg xmlns="http://www.w3.org/2000/svg" width="740.79" height="206.28" viewBox="0 0 740.79 206.28"><defs><style>.cls-1{fill:#d2d8e5;}.cls-2{font-size:9px;}.cls-2,.cls-3,.cls-8{fill:#727171;}.cls-2,.cls-3{font-family:Pretendard-Light-KSCpc-EUC-H, Pretendard;}.cls-3{font-size:11px;}.cls-4{letter-spacing:-0.07em;}.cls-5{letter-spacing:-0.02em;}.cls-6{letter-spacing:0em;}.cls-7{letter-spacing:0em;}.cls-8{font-size:12px;font-family:Pretendard-Medium-KSCpc-EUC-H, Pretendard;}.cls-9{letter-spacing:-0.02em;}.cls-10{letter-spacing:-0.01em;}.cls-11,.cls-19{fill:#0fd977;}.cls-11,.cls-12{fill-rule:evenodd;}.cls-11{opacity:0.1;}.cls-12,.cls-13,.cls-14,.cls-15,.cls-16,.cls-17{fill:none;stroke-miterlimit:10;}.cls-12,.cls-16,.cls-17{stroke:#0fd977;}.cls-13,.cls-14,.cls-15{stroke:#d2d8e5;}.cls-14,.cls-15{stroke-width:0.5px;}.cls-15,.cls-17{stroke-dasharray:2 2;}.cls-18{fill:#fff;}</style></defs><title>자산 46</title><g id="레이어_2" data-name="레이어 2"><g id="레이어_1-2" data-name="레이어 1"><rect class="cls-1" x="60.79" y="30.18" width="8" height="110"/><text class="cls-2" transform="translate(49 142.06)">1</text><text class="cls-2" transform="translate(50.64 157.84)">10:15</text><text class="cls-3" transform="translate(19.32 10.47)"><tspan class="cls-4">A</tspan><tspan class="cls-5" x="6.16" y="0">v</tspan><tspan x="11.62" y="0">e</tspan><tspan class="cls-6" x="17.66" y="0">r</tspan><tspan class="cls-7" x="21.33" y="0">age cpu_use</tspan></text><text class="cls-8" transform="translate(11.43 131.67) rotate(-90)"><tspan class="cls-4">A</tspan><tspan class="cls-9" x="7.23" y="0">v</tspan><tspan x="13.49" y="0">e</tspan><tspan class="cls-10" x="20.21" y="0">r</tspan><tspan x="24.51" y="0">age cpu_use</tspan></text><text class="cls-8" transform="translate(326.77 187.72)">@timestamp per 5 minu<tspan class="cls-10" x="129.33" y="0">t</tspan><tspan x="133.46" y="0">es</tspan></text><text class="cls-2" transform="translate(103.32 157.84)">10:30</text><text class="cls-2" transform="translate(265.4 157.84)">11:15</text><text class="cls-2" transform="translate(318.07 157.84)">11:30</text><text class="cls-2" transform="translate(371.58 157.84)">11:45</text><text class="cls-2" transform="translate(424.46 157.84)">12:00</text><text class="cls-2" transform="translate(478.69 157.84)">12:15</text><text class="cls-2" transform="translate(531.36 157.84)">12:30</text><text class="cls-2" transform="translate(584.86 157.84)">12:45</text><text class="cls-2" transform="translate(638.4 157.84)">13:00</text><text class="cls-2" transform="translate(692.63 157.84)">13:15</text><text class="cls-2" transform="translate(47.32 114.51)">3</text><text class="cls-2" transform="translate(43.75 86.95)">10</text><text class="cls-2" transform="translate(47.4 99.81)">6</text><text class="cls-2" transform="translate(42.07 59.4)">30</text><text class="cls-2" transform="translate(42.15 43.93)">60</text><text class="cls-2" transform="translate(38.5 31.84)">100</text><polygon class="cls-11" points="165.28 140.18 150.41 46.31 132.58 30.18 114.76 37.94 96.94 96.31 89.59 140.18 165.28 140.18"/><polyline class="cls-12" points="165.28 140.18 150.41 46.31 132.58 30.18 114.76 37.94 96.94 96.31 89.59 140.18"/><line class="cls-13" x1="60.79" y1="140.18" x2="740.79" y2="140.18"/><line class="cls-14" x1="60.79" y1="96.31" x2="61.79" y2="96.31"/><line class="cls-15" x1="63.79" y1="96.31" x2="738.79" y2="96.31"/><line class="cls-14" x1="739.79" y1="96.31" x2="740.79" y2="96.31"/><line class="cls-14" x1="60.79" y1="41.93" x2="61.79" y2="41.93"/><line class="cls-15" x1="63.79" y1="41.93" x2="738.79" y2="41.93"/><line class="cls-14" x1="739.79" y1="41.93" x2="740.79" y2="41.93"/><line class="cls-14" x1="60.79" y1="57.68" x2="61.79" y2="57.68"/><line class="cls-15" x1="63.79" y1="57.68" x2="738.79" y2="57.68"/><line class="cls-14" x1="739.79" y1="57.68" x2="740.79" y2="57.68"/><line class="cls-14" x1="60.79" y1="85.18" x2="61.79" y2="85.18"/><line class="cls-15" x1="63.79" y1="85.18" x2="738.79" y2="85.18"/><line class="cls-14" x1="739.79" y1="85.18" x2="740.79" y2="85.18"/><line class="cls-14" x1="60.79" y1="112.68" x2="61.79" y2="112.68"/><line class="cls-15" x1="63.79" y1="112.68" x2="738.79" y2="112.68"/><line class="cls-14" x1="739.79" y1="112.68" x2="740.79" y2="112.68"/><line class="cls-16" x1="60.79" y1="30.18" x2="61.79" y2="30.18"/><line class="cls-17" x1="63.79" y1="30.18" x2="738.79" y2="30.18"/><line class="cls-16" x1="739.79" y1="30.18" x2="740.79" y2="30.18"/><text class="cls-2" transform="translate(156.82 157.84)">10:45</text><text class="cls-2" transform="translate(211.17 157.84)">11:00</text><polygon class="cls-11" points="700.87 140.18 685.08 51.89 667.25 38.36 649.43 34.44 631.61 34.86 613.79 36.45 595.96 34.44 578.14 33.68 560.32 34.86 542.5 32.41 524.67 35.61 506.85 35.61 489.03 36.79 471.21 33.29 453.38 36.79 435.56 36.13 417.74 36.13 399.92 33.68 382.1 34.84 364.27 38.69 346.45 31.34 328.63 59.04 310.81 34.44 292.98 34.44 275.16 32.36 257.34 54.18 239.52 28.55 221.69 30.18 208.22 140.18 700.87 140.18"/><polyline class="cls-12" points="208.22 140.18 221.69 30.18 239.52 28.55 257.34 54.18 275.16 32.36 292.98 34.44 310.81 34.44 328.63 59.04 346.45 31.34 364.27 38.69 382.1 34.84 399.92 33.68 417.74 36.13 435.56 36.13 453.38 36.79 471.21 33.29 489.03 36.79 506.85 35.61 524.67 35.61 542.5 32.41 560.32 34.86 578.14 33.68 595.96 34.44 613.79 36.45 631.61 34.86 649.43 34.44 667.25 38.36 685.08 51.89 700.87 140.18"/><circle class="cls-18" cx="96.94" cy="96.31" r="3.5"/><path class="cls-19" d="M96.94,94.81a1.5,1.5,0,1,1-1.5,1.5,1.5,1.5,0,0,1,1.5-1.5m0-2a3.5,3.5,0,1,0,3.5,3.5,3.5,3.5,0,0,0-3.5-3.5Z"/><circle class="cls-18" cx="114.76" cy="37.94" r="3.5"/><path class="cls-19" d="M114.76,36.44a1.5,1.5,0,1,1-1.5,1.5,1.5,1.5,0,0,1,1.5-1.5m0-2a3.5,3.5,0,1,0,3.5,3.5,3.5,3.5,0,0,0-3.5-3.5Z"/><circle class="cls-18" cx="132.58" cy="30.18" r="3.5"/><path class="cls-19" d="M132.58,28.68a1.5,1.5,0,1,1-1.5,1.5,1.5,1.5,0,0,1,1.5-1.5m0-2a3.5,3.5,0,1,0,3.5,3.5,3.5,3.5,0,0,0-3.5-3.5Z"/><circle class="cls-18" cx="150.41" cy="46.31" r="3.5"/><path class="cls-19" d="M150.41,44.81a1.5,1.5,0,1,1-1.5,1.5,1.5,1.5,0,0,1,1.5-1.5m0-2a3.5,3.5,0,1,0,3.5,3.5,3.49,3.49,0,0,0-3.5-3.5Z"/><circle class="cls-18" cx="221.69" cy="30.18" r="3.5"/><path class="cls-19" d="M221.69,28.68a1.5,1.5,0,1,1-1.5,1.5,1.5,1.5,0,0,1,1.5-1.5m0-2a3.5,3.5,0,1,0,3.5,3.5,3.5,3.5,0,0,0-3.5-3.5Z"/><circle class="cls-18" cx="239.52" cy="28.55" r="3.5"/><path class="cls-19" d="M239.52,27.05a1.5,1.5,0,1,1-1.5,1.5,1.5,1.5,0,0,1,1.5-1.5m0-2a3.5,3.5,0,1,0,3.5,3.5,3.5,3.5,0,0,0-3.5-3.5Z"/><circle class="cls-18" cx="257.34" cy="54.18" r="3.5"/><path class="cls-19" d="M257.34,52.68a1.5,1.5,0,1,1-1.5,1.5,1.5,1.5,0,0,1,1.5-1.5m0-2a3.5,3.5,0,1,0,3.5,3.5,3.5,3.5,0,0,0-3.5-3.5Z"/><circle class="cls-18" cx="275.16" cy="32.36" r="3.5"/><path class="cls-19" d="M275.16,30.86a1.5,1.5,0,1,1-1.5,1.5,1.5,1.5,0,0,1,1.5-1.5m0-2a3.5,3.5,0,1,0,3.5,3.5,3.5,3.5,0,0,0-3.5-3.5Z"/><circle class="cls-18" cx="292.98" cy="34.44" r="3.5"/><path class="cls-19" d="M293,32.94a1.5,1.5,0,1,1-1.5,1.5,1.5,1.5,0,0,1,1.5-1.5m0-2a3.5,3.5,0,1,0,3.5,3.5,3.5,3.5,0,0,0-3.5-3.5Z"/><circle class="cls-18" cx="310.81" cy="34.44" r="3.5"/><path class="cls-19" d="M310.81,32.94a1.5,1.5,0,1,1-1.5,1.5,1.5,1.5,0,0,1,1.5-1.5m0-2a3.5,3.5,0,1,0,3.5,3.5,3.5,3.5,0,0,0-3.5-3.5Z"/><circle class="cls-18" cx="328.63" cy="59.04" r="3.5"/><path class="cls-19" d="M328.63,57.54a1.5,1.5,0,1,1-1.5,1.5,1.5,1.5,0,0,1,1.5-1.5m0-2a3.5,3.5,0,1,0,3.5,3.5,3.5,3.5,0,0,0-3.5-3.5Z"/><circle class="cls-18" cx="346.45" cy="31.34" r="3.5"/><path class="cls-19" d="M346.45,29.84a1.5,1.5,0,1,1-1.5,1.5,1.5,1.5,0,0,1,1.5-1.5m0-2a3.5,3.5,0,1,0,3.5,3.5,3.5,3.5,0,0,0-3.5-3.5Z"/><circle class="cls-18" cx="364.27" cy="38.69" r="3.5"/><path class="cls-19" d="M364.27,37.19a1.5,1.5,0,1,1-1.5,1.5,1.5,1.5,0,0,1,1.5-1.5m0-2a3.5,3.5,0,1,0,3.5,3.5,3.5,3.5,0,0,0-3.5-3.5Z"/><circle class="cls-18" cx="382.1" cy="34.84" r="3.5"/><path class="cls-19" d="M382.1,33.34a1.5,1.5,0,1,1-1.5,1.5,1.5,1.5,0,0,1,1.5-1.5m0-2a3.5,3.5,0,1,0,3.5,3.5,3.49,3.49,0,0,0-3.5-3.5Z"/><circle class="cls-18" cx="399.92" cy="33.68" r="3.5"/><path class="cls-19" d="M399.92,32.18a1.5,1.5,0,1,1-1.5,1.5,1.5,1.5,0,0,1,1.5-1.5m0-2a3.5,3.5,0,1,0,3.5,3.5,3.5,3.5,0,0,0-3.5-3.5Z"/><circle class="cls-18" cx="417.74" cy="36.13" r="3.5"/><path class="cls-19" d="M417.74,34.63a1.5,1.5,0,1,1-1.5,1.5,1.5,1.5,0,0,1,1.5-1.5m0-2a3.5,3.5,0,1,0,3.5,3.5,3.5,3.5,0,0,0-3.5-3.5Z"/><circle class="cls-18" cx="435.56" cy="36.13" r="3.5"/><path class="cls-19" d="M435.56,34.63a1.5,1.5,0,1,1-1.5,1.5,1.5,1.5,0,0,1,1.5-1.5m0-2a3.5,3.5,0,1,0,3.5,3.5,3.5,3.5,0,0,0-3.5-3.5Z"/><circle class="cls-18" cx="453.39" cy="36.79" r="3.5"/><path class="cls-19" d="M453.39,35.29a1.5,1.5,0,1,1-1.5,1.5,1.5,1.5,0,0,1,1.5-1.5m0-2a3.5,3.5,0,1,0,3.5,3.5,3.49,3.49,0,0,0-3.5-3.5Z"/><circle class="cls-18" cx="471.21" cy="33.29" r="3.5"/><path class="cls-19" d="M471.21,31.79a1.5,1.5,0,1,1-1.5,1.5,1.5,1.5,0,0,1,1.5-1.5m0-2a3.5,3.5,0,1,0,3.5,3.5,3.49,3.49,0,0,0-3.5-3.5Z"/><circle class="cls-18" cx="489.03" cy="36.79" r="3.5"/><path class="cls-19" d="M489,35.29a1.5,1.5,0,1,1-1.5,1.5,1.5,1.5,0,0,1,1.5-1.5m0-2a3.5,3.5,0,1,0,3.5,3.5,3.5,3.5,0,0,0-3.5-3.5Z"/><circle class="cls-18" cx="506.85" cy="35.61" r="3.5"/><path class="cls-19" d="M506.85,34.11a1.5,1.5,0,1,1-1.5,1.5,1.5,1.5,0,0,1,1.5-1.5m0-2a3.5,3.5,0,1,0,3.5,3.5,3.5,3.5,0,0,0-3.5-3.5Z"/><circle class="cls-18" cx="524.67" cy="35.61" r="3.5"/><path class="cls-19" d="M524.67,34.11a1.5,1.5,0,1,1-1.5,1.5,1.5,1.5,0,0,1,1.5-1.5m0-2a3.5,3.5,0,1,0,3.5,3.5,3.5,3.5,0,0,0-3.5-3.5Z"/><circle class="cls-18" cx="542.5" cy="32.41" r="3.5"/><path class="cls-19" d="M542.5,30.91a1.5,1.5,0,1,1-1.5,1.5,1.51,1.51,0,0,1,1.5-1.5m0-2a3.5,3.5,0,1,0,3.5,3.5,3.5,3.5,0,0,0-3.5-3.5Z"/><circle class="cls-18" cx="560.32" cy="34.86" r="3.5"/><path class="cls-19" d="M560.32,33.36a1.5,1.5,0,1,1-1.5,1.5,1.5,1.5,0,0,1,1.5-1.5m0-2a3.5,3.5,0,1,0,3.5,3.5,3.5,3.5,0,0,0-3.5-3.5Z"/><circle class="cls-18" cx="578.14" cy="33.68" r="3.5"/><path class="cls-19" d="M578.14,32.18a1.5,1.5,0,1,1-1.5,1.5,1.5,1.5,0,0,1,1.5-1.5m0-2a3.5,3.5,0,1,0,3.5,3.5,3.5,3.5,0,0,0-3.5-3.5Z"/><circle class="cls-18" cx="595.96" cy="34.44" r="3.5"/><path class="cls-19" d="M596,32.94a1.5,1.5,0,1,1-1.5,1.5,1.5,1.5,0,0,1,1.5-1.5m0-2a3.5,3.5,0,1,0,3.5,3.5,3.5,3.5,0,0,0-3.5-3.5Z"/><circle class="cls-18" cx="613.79" cy="36.45" r="3.5"/><path class="cls-19" d="M613.79,35a1.5,1.5,0,1,1-1.5,1.5,1.51,1.51,0,0,1,1.5-1.5m0-2a3.5,3.5,0,1,0,3.5,3.5,3.5,3.5,0,0,0-3.5-3.5Z"/><circle class="cls-18" cx="631.61" cy="34.86" r="3.5"/><path class="cls-19" d="M631.61,33.36a1.5,1.5,0,1,1-1.5,1.5,1.5,1.5,0,0,1,1.5-1.5m0-2a3.5,3.5,0,1,0,3.5,3.5,3.5,3.5,0,0,0-3.5-3.5Z"/><circle class="cls-18" cx="649.43" cy="34.44" r="3.5"/><path class="cls-19" d="M649.43,32.94a1.5,1.5,0,1,1-1.5,1.5,1.5,1.5,0,0,1,1.5-1.5m0-2a3.5,3.5,0,1,0,3.5,3.5,3.5,3.5,0,0,0-3.5-3.5Z"/><circle class="cls-18" cx="667.25" cy="38.36" r="3.5"/><path class="cls-19" d="M667.25,36.86a1.5,1.5,0,1,1-1.5,1.5,1.5,1.5,0,0,1,1.5-1.5m0-2a3.5,3.5,0,1,0,3.5,3.5,3.5,3.5,0,0,0-3.5-3.5Z"/><circle class="cls-18" cx="685.08" cy="51.89" r="3.5"/><path class="cls-19" d="M685.08,50.39a1.5,1.5,0,1,1-1.5,1.5,1.5,1.5,0,0,1,1.5-1.5m0-2a3.5,3.5,0,1,0,3.5,3.5,3.5,3.5,0,0,0-3.5-3.5Z"/><circle class="cls-18" cx="720.72" cy="173.79" r="3.5"/><path class="cls-19" d="M720.72,172.29a1.5,1.5,0,1,1-1.5,1.5,1.5,1.5,0,0,1,1.5-1.5m0-2a3.5,3.5,0,1,0,3.5,3.5,3.5,3.5,0,0,0-3.5-3.5Z"/><circle class="cls-18" cx="61.29" cy="197.86" r="3.5"/><path class="cls-19" d="M61.29,196.36a1.5,1.5,0,1,1-1.5,1.5,1.5,1.5,0,0,1,1.5-1.5m0-2a3.5,3.5,0,1,0,3.5,3.5,3.5,3.5,0,0,0-3.5-3.5Z"/><circle class="cls-18" cx="4.16" cy="6.97" r="3.5"/><path class="cls-19" d="M4.16,5.47A1.5,1.5,0,1,1,2.66,7a1.5,1.5,0,0,1,1.5-1.5m0-2A3.5,3.5,0,1,0,7.66,7a3.5,3.5,0,0,0-3.5-3.5Z"/><circle class="cls-18" cx="79.12" cy="202.78" r="3.5"/><path class="cls-19" d="M79.12,201.28a1.5,1.5,0,1,1-1.5,1.5,1.51,1.51,0,0,1,1.5-1.5m0-2a3.5,3.5,0,1,0,3.5,3.5,3.5,3.5,0,0,0-3.5-3.5Z"/><circle class="cls-18" cx="186.05" cy="173.97" r="3.5"/><path class="cls-19" d="M186.05,172.47a1.5,1.5,0,1,1-1.5,1.5,1.5,1.5,0,0,1,1.5-1.5m0-2a3.5,3.5,0,1,0,3.5,3.5,3.5,3.5,0,0,0-3.5-3.5Z"/><circle class="cls-18" cx="203.87" cy="175.69" r="3.5"/><path class="cls-19" d="M203.87,174.19a1.5,1.5,0,1,1-1.5,1.5,1.5,1.5,0,0,1,1.5-1.5m0-2a3.5,3.5,0,1,0,3.5,3.5,3.5,3.5,0,0,0-3.5-3.5Z"/><circle class="cls-18" cx="702.9" cy="151.52" r="3.5"/><path class="cls-19" d="M702.9,150a1.5,1.5,0,1,1-1.5,1.5,1.5,1.5,0,0,1,1.5-1.5m0-2a3.5,3.5,0,1,0,3.5,3.5,3.5,3.5,0,0,0-3.5-3.5Z"/><circle class="cls-18" cx="168.23" cy="158.8" r="3.5"/><path class="cls-19" d="M168.23,157.3a1.5,1.5,0,1,1-1.5,1.5,1.5,1.5,0,0,1,1.5-1.5m0-2a3.5,3.5,0,1,0,3.5,3.5,3.5,3.5,0,0,0-3.5-3.5Z"/></g></g></svg>