<svg xmlns="http://www.w3.org/2000/svg" width="584.51" height="266.47" viewBox="0 0 584.51 266.47"><defs><style>.cls-1{font-size:11px;fill:#727171;font-family:Pretendard-Light-KSCpc-EUC-H, Pretendard;}.cls-2{letter-spacing:-0.01em;}.cls-3{letter-spacing:-0.02em;}.cls-4{letter-spacing:-0.01em;}.cls-5{letter-spacing:-0.05em;}.cls-6{letter-spacing:0em;}.cls-7{letter-spacing:-0.02em;}.cls-8{letter-spacing:0em;}.cls-9{fill:#0bc279;opacity:0.1;}.cls-10{fill:#5de192;}.cls-11,.cls-12{fill:none;stroke:#d2d8e5;stroke-miterlimit:10;stroke-width:0.5px;}.cls-11{stroke-dasharray:2;}</style></defs><title>자산 55</title><g id="레이어_2" data-name="레이어 2"><g id="레이어_1-2" data-name="레이어 1"><text class="cls-1" transform="translate(512.53 10.47)"><tspan class="cls-2">R</tspan><tspan x="6.54" y="0">eco</tspan><tspan class="cls-3" x="24.51" y="0">r</tspan><tspan x="27.99" y="0">d Coun</tspan><tspan class="cls-4" x="62.83" y="0">t</tspan><tspan x="66.39" y="0">s</tspan></text><text class="cls-1" transform="translate(577.57 26.47)">4</text><text class="cls-1" transform="translate(464.91 26.47)">3</text><text class="cls-1" transform="translate(349.02 26.47)">2</text><text class="cls-1" transform="translate(233.94 26.47)">1</text><text class="cls-1" transform="translate(117.05 26.47)">0</text><text class="cls-1" transform="translate(0 258.05)"><tspan class="cls-5">W</tspan><tspan class="cls-6" x="9.3" y="0">ork O</tspan><tspan class="cls-3" x="35.19" y="0">r</tspan><tspan x="38.67" y="0">der </tspan><tspan class="cls-7" x="57.44" y="0">b</tspan><tspan x="63.63" y="0">y </tspan><tspan class="cls-8" x="71.96" y="0">A</tspan><tspan x="78.84" y="0">ccount</tspan></text><text class="cls-1" transform="translate(0 218.01)"><tspan class="cls-5">W</tspan><tspan class="cls-6" x="9.3" y="0">ork O</tspan><tspan class="cls-3" x="35.19" y="0">r</tspan><tspan x="38.67" y="0">der </tspan><tspan class="cls-7" x="57.44" y="0">b</tspan><tspan x="63.63" y="0">y </tspan><tspan class="cls-8" x="71.96" y="0">A</tspan><tspan x="78.84" y="0">ccount</tspan></text><text class="cls-1" transform="translate(0 177.98)"><tspan class="cls-5">W</tspan><tspan class="cls-6" x="9.3" y="0">ork O</tspan><tspan class="cls-3" x="35.19" y="0">r</tspan><tspan x="38.67" y="0">der </tspan><tspan class="cls-7" x="57.44" y="0">b</tspan><tspan x="63.63" y="0">y </tspan><tspan class="cls-8" x="71.96" y="0">A</tspan><tspan x="78.84" y="0">ccount</tspan></text><text class="cls-1" transform="translate(0 137.94)"><tspan class="cls-5">W</tspan><tspan class="cls-6" x="9.3" y="0">ork O</tspan><tspan class="cls-3" x="35.19" y="0">r</tspan><tspan x="38.67" y="0">der </tspan><tspan class="cls-7" x="57.44" y="0">b</tspan><tspan x="63.63" y="0">y </tspan><tspan class="cls-8" x="71.96" y="0">A</tspan><tspan x="78.84" y="0">ccount</tspan></text><text class="cls-1" transform="translate(0 97.91)"><tspan class="cls-5">W</tspan><tspan class="cls-6" x="9.3" y="0">ork O</tspan><tspan class="cls-3" x="35.19" y="0">r</tspan><tspan x="38.67" y="0">der </tspan><tspan class="cls-7" x="57.44" y="0">b</tspan><tspan x="63.63" y="0">y </tspan><tspan class="cls-8" x="71.96" y="0">A</tspan><tspan x="78.84" y="0">ccount</tspan></text><text class="cls-1" transform="translate(0 57.88)"><tspan class="cls-5">W</tspan><tspan class="cls-6" x="9.3" y="0">ork O</tspan><tspan class="cls-3" x="35.19" y="0">r</tspan><tspan x="38.67" y="0">der </tspan><tspan class="cls-7" x="57.44" y="0">b</tspan><tspan x="63.63" y="0">y </tspan><tspan class="cls-8" x="71.96" y="0">A</tspan><tspan x="78.84" y="0">ccount</tspan></text><rect class="cls-9" x="120.26" y="42.47" width="464" height="24"/><rect class="cls-10" x="120.26" y="42.47" width="464" height="24"/><rect class="cls-9" x="120.26" y="82.47" width="464" height="24"/><rect class="cls-10" x="120.26" y="82.47" width="348" height="24"/><rect class="cls-9" x="120.26" y="122.47" width="464" height="24"/><rect class="cls-10" x="120.26" y="122.47" width="232" height="24"/><rect class="cls-9" x="120.26" y="162.47" width="464" height="24"/><rect class="cls-10" x="120.26" y="162.47" width="116" height="24"/><rect class="cls-9" x="120.26" y="202.47" width="464" height="24"/><rect class="cls-10" x="120.26" y="202.47" width="116" height="24"/><rect class="cls-9" x="120.26" y="242.47" width="464" height="24"/><rect class="cls-10" x="120.26" y="242.47" width="116" height="24"/><line class="cls-11" x1="178.26" y1="266.47" x2="178.26" y2="34.47"/><line class="cls-11" x1="293.5" y1="266.47" x2="293.5" y2="34.47"/><line class="cls-11" x1="408.74" y1="266.47" x2="408.74" y2="34.47"/><line class="cls-11" x1="523.98" y1="266.47" x2="523.98" y2="34.47"/><line class="cls-12" x1="236.26" y1="266.47" x2="236.26" y2="34.47"/><line class="cls-12" x1="120.26" y1="266.47" x2="120.26" y2="34.47"/><line class="cls-12" x1="352.26" y1="266.47" x2="352.26" y2="34.47"/><line class="cls-12" x1="468.26" y1="266.47" x2="468.26" y2="34.47"/><line class="cls-12" x1="584.26" y1="266.47" x2="584.26" y2="34.47"/></g></g></svg>