<svg xmlns="http://www.w3.org/2000/svg" width="497.06" height="250.47" viewBox="0 0 497.06 250.47"><defs><style>.cls-1,.cls-11,.cls-12{font-size:11px;}.cls-1{fill:#666;}.cls-1,.cls-11{font-family:Pretendard-Light-KSCpc-EUC-H, Pretendard;}.cls-2{letter-spacing:-0.02em;}.cls-3{letter-spacing:0em;}.cls-4{letter-spacing:0.01em;}.cls-5{letter-spacing:-0.01em;}.cls-14,.cls-6{fill:#8772c1;}.cls-19,.cls-7{fill:#878fa8;}.cls-16,.cls-8{fill:#279fe3;}.cls-20,.cls-9{fill:#0fd977;}.cls-10,.cls-15{fill:#ffa767;}.cls-11,.cls-12{fill:#727171;}.cls-12{font-family:Pretendard-Medium-KSCpc-EUC-H, Pretendard;}.cls-13{letter-spacing:-0.02em;}.cls-14,.cls-15,.cls-16,.cls-19,.cls-20{opacity:0.7;}.cls-17,.cls-18{fill:none;stroke:#d2d8e5;stroke-miterlimit:10;stroke-width:0.5px;}.cls-18{stroke-dasharray:2;}</style></defs><title>자산 56</title><g id="레이어_2" data-name="레이어 2"><g id="레이어_1-2" data-name="레이어 1"><text class="cls-1" transform="translate(458.65 33.36)">New</text><text class="cls-1" transform="translate(427.12 49.28)">In P<tspan class="cls-2" x="17.83" y="0">r</tspan><tspan class="cls-3" x="21.32" y="0">og</tspan><tspan class="cls-2" x="33.75" y="0">r</tspan><tspan x="37.23" y="0">ess</tspan></text><text class="cls-1" transform="translate(434.16 65.2)">Comp<tspan class="cls-4" x="29.04" y="0">l</tspan><tspan x="31.47" y="0">a</tspan><tspan class="cls-5" x="37.26" y="0">t</tspan><tspan x="40.87" y="0">e</tspan></text><text class="cls-1" transform="translate(447.24 81.12)">Closed</text><text class="cls-1" transform="translate(396.24 97.04)">Cannot Comp<tspan class="cls-4" x="66.96" y="0">l</tspan><tspan x="69.39" y="0">a</tspan><tspan class="cls-5" x="75.18" y="0">t</tspan><tspan x="78.79" y="0">e</tspan></text><rect class="cls-6" x="489.06" y="25.81" width="8" height="8"/><rect class="cls-7" x="489.06" y="41.8" width="8" height="8"/><rect class="cls-8" x="489.06" y="57.8" width="8" height="8"/><rect class="cls-9" x="489.06" y="73.8" width="8" height="8"/><rect class="cls-10" x="489.06" y="89.8" width="8" height="8"/><text class="cls-11" transform="translate(25.44 138.47)">P<tspan class="cls-2" x="6.53" y="0">r</tspan><tspan class="cls-3" x="10.02" y="0">oduct Consumed</tspan></text><text class="cls-12" transform="translate(10.47 186.21) rotate(-90)">P<tspan class="cls-13" x="6.71" y="0">r</tspan><tspan x="10.52" y="0">oduct Consumed</tspan></text><text class="cls-11" transform="translate(25.44 218.47)">P<tspan class="cls-2" x="6.53" y="0">r</tspan><tspan class="cls-3" x="10.02" y="0">oduct Consumed</tspan></text><text class="cls-11" transform="translate(25.44 58.47)">P<tspan class="cls-2" x="6.53" y="0">r</tspan><tspan class="cls-3" x="10.02" y="0">oduct Consumed</tspan></text><rect class="cls-14" x="126.71" y="26.47" width="8" height="64"/><polygon class="cls-15" points="134.71 186.47 126.71 186.47 126.71 250.47 134.71 250.47 142.71 250.47 142.71 186.47 134.71 186.47"/><polygon class="cls-16" points="158.71 186.47 150.71 186.47 142.71 186.47 142.71 250.47 150.71 250.47 158.71 250.47 166.71 250.47 166.71 186.47 158.71 186.47"/><text class="cls-11" transform="translate(123.5 10.47)">0</text><text class="cls-11" transform="translate(201.18 10.47)">10</text><text class="cls-11" transform="translate(280.26 10.47)">20</text><line class="cls-17" x1="126.71" y1="250.47" x2="126.71" y2="18.47"/><line class="cls-18" x1="166.71" y1="250.47" x2="166.71" y2="18.47"/><line class="cls-17" x1="206.71" y1="250.47" x2="206.71" y2="18.47"/><line class="cls-18" x1="246.71" y1="250.47" x2="246.71" y2="18.47"/><line class="cls-17" x1="286.71" y1="250.47" x2="286.71" y2="18.47"/><line class="cls-18" x1="326.71" y1="250.47" x2="326.71" y2="18.47"/><rect class="cls-19" x="126.71" y="106.47" width="40" height="64"/><rect class="cls-16" x="166.71" y="106.47" width="24" height="64"/><rect class="cls-20" x="190.71" y="106.47" width="48" height="64"/><rect class="cls-20" x="166.71" y="186.47" width="192" height="64"/></g></g></svg>