<svg xmlns="http://www.w3.org/2000/svg" width="596.21" height="296.53" viewBox="0 0 596.21 296.53"><defs><style>.cls-1{fill:#e5faec;}.cls-2{fill:#c0f2d0;}.cls-3{fill:#5de192;}.cls-4{fill:#94eab2;}.cls-5{fill:#0fd977;}.cls-6{font-size:11px;fill:#727171;font-family:Pretendard-Light-KSCpc-EUC-H, Pretendard;}</style></defs><title>자산 52</title><g id="레이어_2" data-name="레이어 2"><g id="레이어_1-2" data-name="레이어 1"><rect class="cls-1" x="76.18" y="245.95" width="28.14" height="28.14"/><rect class="cls-1" x="137.67" y="245.95" width="28.14" height="28.14"/><rect class="cls-1" x="199.15" y="245.95" width="28.14" height="28.14"/><rect class="cls-1" x="229.9" y="245.95" width="28.14" height="28.14"/><rect class="cls-1" x="260.64" y="245.95" width="28.14" height="28.14"/><rect class="cls-1" x="352.87" y="245.95" width="28.14" height="28.14"/><rect class="cls-1" x="383.61" y="245.95" width="28.14" height="28.14"/><rect class="cls-1" x="445.1" y="245.95" width="28.14" height="28.14"/><rect class="cls-1" x="568.08" y="245.95" width="28.14" height="28.14"/><rect class="cls-1" x="45.44" y="215.2" width="28.14" height="28.14"/><rect class="cls-1" x="76.18" y="215.2" width="28.14" height="28.14"/><rect class="cls-1" x="291.38" y="215.2" width="28.14" height="28.14"/><rect class="cls-1" x="322.13" y="215.2" width="28.14" height="28.14"/><rect class="cls-1" x="475.85" y="215.2" width="28.14" height="28.14"/><rect class="cls-1" x="568.08" y="215.2" width="28.14" height="28.14"/><rect class="cls-1" x="168.41" y="184.46" width="28.14" height="28.14"/><rect class="cls-1" x="199.15" y="184.46" width="28.14" height="28.14"/><rect class="cls-1" x="229.9" y="184.46" width="28.14" height="28.14"/><rect class="cls-1" x="291.38" y="184.46" width="28.14" height="28.14"/><rect class="cls-1" x="445.1" y="184.46" width="28.14" height="28.14"/><rect class="cls-1" x="475.85" y="184.46" width="28.14" height="28.14"/><rect class="cls-1" x="168.41" y="153.72" width="28.14" height="28.14"/><rect class="cls-1" x="229.9" y="153.72" width="28.14" height="28.14"/><rect class="cls-1" x="260.64" y="153.72" width="28.14" height="28.14"/><rect class="cls-1" x="352.87" y="153.72" width="28.14" height="28.14"/><rect class="cls-1" x="383.61" y="153.72" width="28.14" height="28.14"/><rect class="cls-1" x="76.18" y="122.97" width="28.14" height="28.14"/><rect class="cls-1" x="168.41" y="122.97" width="28.14" height="28.14"/><rect class="cls-1" x="199.15" y="122.97" width="28.14" height="28.14"/><rect class="cls-1" x="352.87" y="122.97" width="28.14" height="28.14"/><rect class="cls-1" x="383.61" y="122.97" width="28.14" height="28.14"/><rect class="cls-1" x="506.59" y="122.97" width="28.14" height="28.14"/><rect class="cls-1" x="76.18" y="92.23" width="28.14" height="28.14"/><rect class="cls-1" x="106.92" y="92.23" width="28.14" height="28.14"/><rect class="cls-1" x="322.13" y="92.23" width="28.14" height="28.14"/><rect class="cls-1" x="475.85" y="92.23" width="28.14" height="28.14"/><rect class="cls-1" x="45.44" y="61.49" width="28.14" height="28.14"/><rect class="cls-1" x="106.92" y="61.49" width="28.14" height="28.14"/><rect class="cls-1" x="137.67" y="61.49" width="28.14" height="28.14"/><rect class="cls-1" x="168.41" y="61.49" width="28.14" height="28.14"/><rect class="cls-1" x="260.64" y="61.49" width="28.14" height="28.14"/><rect class="cls-1" x="291.38" y="61.49" width="28.14" height="28.14"/><rect class="cls-1" x="352.87" y="61.49" width="28.14" height="28.14"/><rect class="cls-1" x="383.61" y="61.49" width="28.14" height="28.14"/><rect class="cls-1" x="475.85" y="61.49" width="28.14" height="28.14"/><rect class="cls-1" x="106.92" y="30.74" width="28.14" height="28.14"/><rect class="cls-1" x="199.15" y="30.74" width="28.14" height="28.14"/><rect class="cls-1" x="229.9" y="30.74" width="28.14" height="28.14"/><rect class="cls-1" x="260.64" y="30.74" width="28.14" height="28.14"/><rect class="cls-1" x="291.38" y="30.74" width="28.14" height="28.14"/><rect class="cls-1" x="383.61" y="30.74" width="28.14" height="28.14"/><rect class="cls-1" x="414.36" y="30.74" width="28.14" height="28.14"/><rect class="cls-1" x="506.59" y="30.74" width="28.14" height="28.14"/><rect class="cls-1" x="537.33" y="30.74" width="28.14" height="28.14"/><rect class="cls-1" x="76.18" width="28.14" height="28.14"/><rect class="cls-1" x="106.92" width="28.14" height="28.14"/><rect class="cls-1" x="137.67" width="28.14" height="28.14"/><rect class="cls-1" x="322.13" width="28.14" height="28.14"/><rect class="cls-1" x="383.61" width="28.14" height="28.14"/><rect class="cls-1" x="475.85" width="28.14" height="28.14"/><rect class="cls-2" x="45.44" y="245.95" width="28.14" height="28.14"/><rect class="cls-2" x="414.36" y="245.95" width="28.14" height="28.14"/><rect class="cls-2" x="537.33" y="245.95" width="28.14" height="28.14"/><rect class="cls-2" x="352.87" y="215.2" width="28.14" height="28.14"/><rect class="cls-2" x="383.61" y="215.2" width="28.14" height="28.14"/><rect class="cls-2" x="45.44" y="184.46" width="28.14" height="28.14"/><rect class="cls-2" x="76.18" y="184.46" width="28.14" height="28.14"/><rect class="cls-2" x="322.13" y="184.46" width="28.14" height="28.14"/><rect class="cls-2" x="568.08" y="184.46" width="28.14" height="28.14"/><rect class="cls-2" x="76.18" y="153.72" width="28.14" height="28.14"/><rect class="cls-2" x="106.92" y="153.72" width="28.14" height="28.14"/><rect class="cls-2" x="137.67" y="153.72" width="28.14" height="28.14"/><rect class="cls-2" x="322.13" y="153.72" width="28.14" height="28.14"/><rect class="cls-2" x="506.59" y="153.72" width="28.14" height="28.14"/><rect class="cls-2" x="106.92" y="122.97" width="28.14" height="28.14"/><rect class="cls-2" x="137.67" y="122.97" width="28.14" height="28.14"/><rect class="cls-2" x="475.85" y="122.97" width="28.14" height="28.14"/><rect class="cls-2" x="137.67" y="92.23" width="28.14" height="28.14"/><rect class="cls-2" x="168.41" y="92.23" width="28.14" height="28.14"/><rect class="cls-2" x="199.15" y="92.23" width="28.14" height="28.14"/><rect class="cls-2" x="229.9" y="92.23" width="28.14" height="28.14"/><rect class="cls-2" x="352.87" y="92.23" width="28.14" height="28.14"/><rect class="cls-2" x="383.61" y="92.23" width="28.14" height="28.14"/><rect class="cls-2" x="414.36" y="92.23" width="28.14" height="28.14"/><rect class="cls-2" x="445.1" y="92.23" width="28.14" height="28.14"/><rect class="cls-2" x="568.08" y="92.23" width="28.14" height="28.14"/><rect class="cls-2" x="568.08" y="61.49" width="28.14" height="28.14"/><rect class="cls-2" x="137.67" y="30.74" width="28.14" height="28.14"/><rect class="cls-2" x="445.1" y="30.74" width="28.14" height="28.14"/><rect class="cls-2" x="475.85" y="30.74" width="28.14" height="28.14"/><rect class="cls-2" x="168.41" width="28.14" height="28.14"/><rect class="cls-2" x="199.15" width="28.14" height="28.14"/><rect class="cls-2" x="352.87" width="28.14" height="28.14"/><rect class="cls-2" x="506.59" width="28.14" height="28.14"/><rect class="cls-3" x="168.41" y="245.95" width="28.14" height="28.14"/><rect class="cls-3" x="475.85" y="245.95" width="28.14" height="28.14"/><rect class="cls-3" x="506.59" y="245.95" width="28.14" height="28.14"/><rect class="cls-3" x="106.92" y="215.2" width="28.14" height="28.14"/><rect class="cls-3" x="168.41" y="215.2" width="28.14" height="28.14"/><rect class="cls-3" x="199.15" y="215.2" width="28.14" height="28.14"/><rect class="cls-3" x="414.36" y="215.2" width="28.14" height="28.14"/><rect class="cls-3" x="445.1" y="215.2" width="28.14" height="28.14"/><rect class="cls-3" x="106.92" y="184.46" width="28.14" height="28.14"/><rect class="cls-3" x="137.67" y="184.46" width="28.14" height="28.14"/><rect class="cls-3" x="260.64" y="184.46" width="28.14" height="28.14"/><rect class="cls-3" x="537.33" y="184.46" width="28.14" height="28.14"/><rect class="cls-3" x="291.38" y="153.72" width="28.14" height="28.14"/><rect class="cls-3" x="475.85" y="153.72" width="28.14" height="28.14"/><rect class="cls-3" x="568.08" y="153.72" width="28.14" height="28.14"/><rect class="cls-3" x="291.38" y="122.97" width="28.14" height="28.14"/><rect class="cls-3" x="322.13" y="122.97" width="28.14" height="28.14"/><rect class="cls-3" x="414.36" y="122.97" width="28.14" height="28.14"/><rect class="cls-3" x="445.1" y="122.97" width="28.14" height="28.14"/><rect class="cls-3" x="568.08" y="122.97" width="28.14" height="28.14"/><rect class="cls-3" x="506.59" y="92.23" width="28.14" height="28.14"/><rect class="cls-3" x="537.33" y="92.23" width="28.14" height="28.14"/><rect class="cls-3" x="322.13" y="61.49" width="28.14" height="28.14"/><rect class="cls-3" x="45.44" y="30.74" width="28.14" height="28.14"/><rect class="cls-3" x="322.13" y="30.74" width="28.14" height="28.14"/><rect class="cls-3" x="352.87" y="30.74" width="28.14" height="28.14"/><rect class="cls-3" x="45.44" width="28.14" height="28.14"/><rect class="cls-3" x="414.36" width="28.14" height="28.14"/><rect class="cls-3" x="445.1" width="28.14" height="28.14"/><rect class="cls-3" x="537.33" width="28.14" height="28.14"/><rect class="cls-4" x="106.92" y="245.95" width="28.14" height="28.14"/><rect class="cls-4" x="291.38" y="245.95" width="28.14" height="28.14"/><rect class="cls-4" x="322.13" y="245.95" width="28.14" height="28.14"/><rect class="cls-4" x="229.9" y="215.2" width="28.14" height="28.14"/><rect class="cls-4" x="260.64" y="215.2" width="28.14" height="28.14"/><rect class="cls-4" x="506.59" y="215.2" width="28.14" height="28.14"/><rect class="cls-4" x="352.87" y="184.46" width="28.14" height="28.14"/><rect class="cls-4" x="383.61" y="184.46" width="28.14" height="28.14"/><rect class="cls-4" x="414.36" y="184.46" width="28.14" height="28.14"/><rect class="cls-4" x="45.44" y="153.72" width="28.14" height="28.14"/><rect class="cls-4" x="199.15" y="153.72" width="28.14" height="28.14"/><rect class="cls-4" x="414.36" y="153.72" width="28.14" height="28.14"/><rect class="cls-4" x="445.1" y="153.72" width="28.14" height="28.14"/><rect class="cls-4" x="537.33" y="153.72" width="28.14" height="28.14"/><rect class="cls-4" x="45.44" y="122.97" width="28.14" height="28.14"/><rect class="cls-4" x="229.9" y="122.97" width="28.14" height="28.14"/><rect class="cls-4" x="260.64" y="122.97" width="28.14" height="28.14"/><rect class="cls-4" x="537.33" y="122.97" width="28.14" height="28.14"/><rect class="cls-4" x="45.44" y="92.23" width="28.14" height="28.14"/><rect class="cls-4" x="291.38" y="92.23" width="28.14" height="28.14"/><rect class="cls-4" x="76.18" y="61.49" width="28.14" height="28.14"/><rect class="cls-4" x="199.15" y="61.49" width="28.14" height="28.14"/><rect class="cls-4" x="229.9" y="61.49" width="28.14" height="28.14"/><rect class="cls-4" x="506.59" y="61.49" width="28.14" height="28.14"/><rect class="cls-4" x="537.33" y="61.49" width="28.14" height="28.14"/><rect class="cls-4" x="76.18" y="30.74" width="28.14" height="28.14"/><rect class="cls-4" x="168.41" y="30.74" width="28.14" height="28.14"/><rect class="cls-4" x="568.08" y="30.74" width="28.14" height="28.14"/><rect class="cls-4" x="229.9" width="28.14" height="28.14"/><rect class="cls-4" x="260.64" width="28.14" height="28.14"/><rect class="cls-4" x="291.38" width="28.14" height="28.14"/><rect class="cls-4" x="568.08" width="28.14" height="28.14"/><rect class="cls-5" x="137.67" y="215.2" width="28.14" height="28.14"/><rect class="cls-5" x="537.33" y="215.2" width="28.14" height="28.14"/><rect class="cls-5" x="506.59" y="184.46" width="28.14" height="28.14"/><rect class="cls-5" x="260.64" y="92.23" width="28.14" height="28.14"/><rect class="cls-5" x="414.36" y="61.49" width="28.14" height="28.14"/><rect class="cls-5" x="445.1" y="61.49" width="28.14" height="28.14"/><text class="cls-6" transform="translate(52.96 290.08)">w1</text><text class="cls-6" transform="translate(82.78 290.08)">w2</text><text class="cls-6" transform="translate(113.42 290.08)">w3</text><text class="cls-6" transform="translate(144.16 290.08)">w4</text><text class="cls-6" transform="translate(175.04 290.08)">w5</text><text class="cls-6" transform="translate(205.7 290.08)">w6</text><text class="cls-6" transform="translate(236.75 290.08)">w7</text><text class="cls-6" transform="translate(267.18 290.08)">w8</text><text class="cls-6" transform="translate(297.93 290.08)">w9</text><text class="cls-6" transform="translate(326.44 290.08)">w10</text><text class="cls-6" transform="translate(358.07 290.08)">w11</text><text class="cls-6" transform="translate(387.9 290.08)">w12</text><text class="cls-6" transform="translate(418.53 290.08)">w13</text><text class="cls-6" transform="translate(449.28 290.08)">w14</text><text class="cls-6" transform="translate(480.15 290.08)">w15</text><text class="cls-6" transform="translate(510.81 290.08)">w16</text><text class="cls-6" transform="translate(541.87 290.08)">w17</text><text class="cls-6" transform="translate(572.29 290.08)">w18</text><text class="cls-6" transform="translate(2.05 264.4)">Metric1</text><text class="cls-6" transform="translate(0.22 233.74)">Metric2</text><text class="cls-6" transform="translate(0 203.07)">Metric3</text><text class="cls-6" transform="translate(0 172.41)">Metric4</text><text class="cls-6" transform="translate(0.27 141.74)">Metric5</text><text class="cls-6" transform="translate(0.1 111.08)">Metric6</text><text class="cls-6" transform="translate(0.72 80.41)">Metric7</text><text class="cls-6" transform="translate(0.09 49.74)">Metric8</text><text class="cls-6" transform="translate(0.1 19.08)">Metric9</text></g></g></svg>