<svg xmlns="http://www.w3.org/2000/svg" xmlns:xlink="http://www.w3.org/1999/xlink" width="338.04" height="128.81" viewBox="0 0 338.04 128.81"><defs><style>.cls-1{fill:#fff;}.cls-2{fill:#f5f7fb;}.cls-3,.cls-4,.cls-8{fill:none;stroke-miterlimit:10;}.cls-3,.cls-4{stroke:#d2d8e5;}.cls-4{stroke-width:0.5px;}.cls-5{font-size:9px;fill:#727171;font-family:Pretendard-Light-KSCpc-EUC-H, Pretendard;}.cls-6{letter-spacing:-0.03em;}.cls-7{opacity:0.3;fill:url(#무제_그라디언트_13);}.cls-8{stroke:#279fe3;}</style><linearGradient id="무제_그라디언트_13" x1="156.68" y1="23.98" x2="156.68" y2="107.54" gradientUnits="userSpaceOnUse"><stop offset="0" stop-color="#279fe3"/><stop offset="1" stop-color="#279fe3" stop-opacity="0"/></linearGradient></defs><title>자산 61</title><g id="레이어_2" data-name="레이어 2"><g id="레이어_1-2" data-name="레이어 1"><rect class="cls-1" x="23.75" y="56.45" width="314.29" height="51.08"/><rect class="cls-2" x="23.75" y="5.37" width="314.29" height="51.08"/><polyline class="cls-3" points="338.04 107.54 23.75 107.54 23.75 5.37"/><line class="cls-4" x1="55.55" y1="115.54" x2="55.55" y2="5.37"/><line class="cls-4" x1="133.57" y1="115.54" x2="133.57" y2="5.37"/><line class="cls-4" x1="211.59" y1="115.54" x2="211.59" y2="5.37"/><line class="cls-4" x1="289.61" y1="115.54" x2="289.61" y2="5.37"/><text class="cls-5" transform="translate(45.33 123.54)">16:15</text><text class="cls-5" transform="translate(122.51 123.54)">16:30</text><text class="cls-5" transform="translate(200.52 123.54)">16:45</text><text class="cls-5" transform="translate(279.06 123.54)">1<tspan class="cls-6" x="3.8" y="0">7</tspan><tspan x="8.38" y="0">:00</tspan></text><text class="cls-5" transform="translate(10.5 110.23)">0</text><text class="cls-5" transform="translate(0 59.4)">500</text><text class="cls-5" transform="translate(1.54 8.57)">1e3</text><polygon class="cls-7" points="289.61 51.12 238 79.33 211.59 63.35 188.25 63.35 161.01 71.71 133.57 71.71 107.21 42.99 81.59 71.71 29.14 23.98 23.75 35.84 23.75 107.54 289.61 107.54 289.61 51.12"/><polyline class="cls-8" points="23.75 35.84 29.14 23.98 81.59 71.71 107.21 42.99 133.57 71.71 161.01 71.71 188.25 63.35 211.59 63.35 238 79.33 289.61 51.12"/></g></g></svg>