<svg xmlns="http://www.w3.org/2000/svg" width="655.03" height="272.99" viewBox="0 0 655.03 272.99"><defs><style>.cls-1{font-size:8px;}.cls-1,.cls-10{fill:#727171;font-family:Pretendard-Light-KSCpc-EUC-H, Pretendard;}.cls-2{letter-spacing:-0.02em;}.cls-3{letter-spacing:-0.02em;}.cls-4{letter-spacing:-0.01em;}.cls-22,.cls-5{fill:#279fe3;}.cls-5{opacity:0.1;}.cls-6,.cls-9{fill:none;stroke-miterlimit:10;}.cls-6{stroke:#279fe3;}.cls-7{fill:#f5f7fb;}.cls-8{fill:#fff;}.cls-9{stroke:#d2d8e5;}.cls-10{font-size:9px;}.cls-11{letter-spacing:-0.01em;}.cls-12{letter-spacing:-0.03em;}.cls-13{letter-spacing:-0.03em;}.cls-14{letter-spacing:0em;}.cls-15{letter-spacing:-0.08em;}.cls-16{letter-spacing:-0.03em;}.cls-17{letter-spacing:-0.01em;}.cls-18{letter-spacing:-0.01em;}.cls-19{letter-spacing:-0.02em;}.cls-20{letter-spacing:-0.01em;}.cls-21{letter-spacing:-0.03em;}</style></defs><title>자산 49</title><g id="레이어_2" data-name="레이어 2"><g id="레이어_1-2" data-name="레이어 1"><text class="cls-1" transform="translate(495.36 7.66)">726d6d1c<tspan class="cls-2" x="35.54" y="0">-</tspan><tspan class="cls-3" x="38.76" y="0">7</tspan><tspan x="42.98" y="0">04b</tspan><tspan class="cls-4" x="57.17" y="0">-</tspan><tspan x="60.49" y="0">4987-b09b-0881f84c6571</tspan></text><rect class="cls-5" x="471.38" y="0.5" width="16" height="8"/><rect class="cls-6" x="471.38" y="0.5" width="16" height="8"/><rect class="cls-7" x="35.56" y="19.71" width="616" height="22.4"/><rect class="cls-8" x="35.56" y="42.11" width="616" height="22.4"/><rect class="cls-7" x="35.56" y="64.51" width="616" height="22.4"/><rect class="cls-8" x="35.56" y="86.91" width="616" height="22.4"/><rect class="cls-7" x="35.56" y="109.31" width="616" height="22.4"/><rect class="cls-8" x="35.56" y="131.71" width="616" height="22.4"/><rect class="cls-7" x="35.56" y="154.11" width="616" height="22.4"/><rect class="cls-8" x="35.56" y="176.51" width="616" height="22.4"/><rect class="cls-7" x="35.56" y="198.91" width="616" height="22.4"/><rect class="cls-8" x="35.56" y="221.31" width="616" height="22.4"/><polyline class="cls-9" points="651.56 243.71 35.56 243.71 35.56 19.71"/><line class="cls-9" x1="158.75" y1="243.71" x2="158.75" y2="19.71"/><line class="cls-9" x1="281.95" y1="243.71" x2="281.95" y2="19.71"/><line class="cls-9" x1="405.14" y1="243.71" x2="405.14" y2="19.71"/><line class="cls-9" x1="528.34" y1="243.71" x2="528.34" y2="19.71"/><line class="cls-9" x1="35.56" y1="243.71" x2="35.56" y2="19.71"/><text class="cls-10" transform="translate(18.22 267.71)">00:51:40</text><text class="cls-10" transform="translate(0.49 246.13)">3<tspan class="cls-11" x="5.48" y="0">7</tspan><tspan class="cls-12" x="10.24" y="0">8</tspan><tspan class="cls-13" x="15.42" y="0">.</tspan><tspan class="cls-14" x="17.36" y="0">00</tspan></text><text class="cls-10" transform="translate(2.42 223.84)">3<tspan class="cls-11" x="5.48" y="0">7</tspan><tspan class="cls-12" x="10.24" y="0">8</tspan><tspan class="cls-15" x="15.42" y="0">.</tspan><tspan x="16.88" y="0">10</tspan></text><text class="cls-10" transform="translate(0.18 201.55)">3<tspan class="cls-11" x="5.48" y="0">7</tspan><tspan class="cls-12" x="10.24" y="0">8</tspan><tspan x="15.42" y="0">.20</tspan></text><text class="cls-10" transform="translate(0.25 179.25)">3<tspan class="cls-11" x="5.48" y="0">7</tspan><tspan class="cls-12" x="10.24" y="0">8</tspan><tspan class="cls-16" x="15.42" y="0">.</tspan><tspan x="17.37" y="0">30</tspan></text><text class="cls-10" transform="translate(0 156.96)">3<tspan class="cls-11" x="5.48" y="0">7</tspan><tspan class="cls-12" x="10.24" y="0">8</tspan><tspan x="15.42" y="0">.40</tspan></text><text class="cls-10" transform="translate(0.31 134.67)">3<tspan class="cls-11" x="5.48" y="0">7</tspan><tspan class="cls-12" x="10.24" y="0">8</tspan><tspan class="cls-17" x="15.42" y="0">.</tspan><tspan x="17.53" y="0">50</tspan></text><text class="cls-10" transform="translate(0.34 112.38)">3<tspan class="cls-11" x="5.48" y="0">7</tspan><tspan class="cls-12" x="10.24" y="0">8</tspan><tspan class="cls-13" x="15.42" y="0">.</tspan><tspan x="17.36" y="0">60</tspan></text><text class="cls-10" transform="translate(0.82 90.09)">3<tspan class="cls-11" x="5.48" y="0">7</tspan><tspan class="cls-12" x="10.24" y="0">8</tspan><tspan class="cls-18" x="15.42" y="0">.</tspan><tspan class="cls-19" x="17.53" y="0">7</tspan><tspan x="22.28" y="0">0</tspan></text><text class="cls-10" transform="translate(0.3 67.8)">3<tspan class="cls-11" x="5.48" y="0">7</tspan><tspan class="cls-12" x="10.24" y="0">8.</tspan><tspan x="17.39" y="0">80</tspan></text><text class="cls-10" transform="translate(0.13 45.51)">3<tspan class="cls-11" x="5.48" y="0">7</tspan><tspan class="cls-12" x="10.24" y="0">8</tspan><tspan class="cls-20" x="15.42" y="0">.</tspan><tspan x="17.57" y="0">90</tspan></text><text class="cls-10" transform="translate(0.49 23.21)">3<tspan class="cls-17" x="5.48" y="0">7</tspan><tspan class="cls-21" x="10.27" y="0">9.</tspan><tspan x="17.36" y="0">00</tspan></text><text class="cls-10" transform="translate(140.66 267.71)">00:52:40</text><text class="cls-10" transform="translate(263.88 267.71)">00:53:00</text><text class="cls-10" transform="translate(387.08 267.71)">00:53:00</text><text class="cls-10" transform="translate(510.25 267.71)">00:53:20</text><text class="cls-10" transform="translate(615.17 267.71)">00:53:40</text><polyline class="cls-6" points="35.56 243.71 158.75 19.71 651.53 19.71"/><circle class="cls-8" cx="35.56" cy="243.71" r="3.5"/><path class="cls-22" d="M35.56,242.21a1.5,1.5,0,1,1-1.5,1.5,1.51,1.51,0,0,1,1.5-1.5m0-2a3.5,3.5,0,1,0,3.5,3.5,3.5,3.5,0,0,0-3.5-3.5Z"/><circle class="cls-8" cx="158.75" cy="19.71" r="3.5"/><path class="cls-22" d="M158.75,18.21a1.5,1.5,0,1,1-1.5,1.5,1.5,1.5,0,0,1,1.5-1.5m0-2a3.5,3.5,0,1,0,3.5,3.5,3.5,3.5,0,0,0-3.5-3.5Z"/><circle class="cls-8" cx="281.95" cy="19.71" r="3.5"/><path class="cls-22" d="M282,18.21a1.5,1.5,0,1,1-1.5,1.5,1.51,1.51,0,0,1,1.5-1.5m0-2a3.5,3.5,0,1,0,3.5,3.5,3.5,3.5,0,0,0-3.5-3.5Z"/><circle class="cls-8" cx="405.14" cy="19.71" r="3.5"/><path class="cls-22" d="M405.14,18.21a1.5,1.5,0,1,1-1.5,1.5,1.5,1.5,0,0,1,1.5-1.5m0-2a3.5,3.5,0,1,0,3.5,3.5,3.5,3.5,0,0,0-3.5-3.5Z"/><circle class="cls-8" cx="528.34" cy="19.71" r="3.5"/><path class="cls-22" d="M528.34,18.21a1.5,1.5,0,1,1-1.5,1.5,1.5,1.5,0,0,1,1.5-1.5m0-2a3.5,3.5,0,1,0,3.5,3.5,3.5,3.5,0,0,0-3.5-3.5Z"/><circle class="cls-8" cx="651.53" cy="19.71" r="3.5"/><path class="cls-22" d="M651.53,18.21a1.5,1.5,0,1,1-1.5,1.5,1.5,1.5,0,0,1,1.5-1.5m0-2a3.5,3.5,0,1,0,3.5,3.5,3.5,3.5,0,0,0-3.5-3.5Z"/></g></g></svg>