<svg xmlns="http://www.w3.org/2000/svg" width="497.95" height="234.23" viewBox="0 0 497.95 234.23"><defs><style>.cls-1{font-size:60px;font-family:Pretendard-Bold-KSCpc-EUC-H, Pretendard;}.cls-2{fill:#878fa8;}.cls-20,.cls-3{fill:#279fe3;}.cls-17,.cls-4{fill:#0fd977;}.cls-13,.cls-5{fill:#ffa767;}.cls-15,.cls-6{fill:#8772c1;}.cls-10,.cls-11,.cls-12,.cls-7,.cls-8,.cls-9{fill:none;stroke-miterlimit:10;}.cls-7{stroke:#8772c1;}.cls-10,.cls-11,.cls-7,.cls-8,.cls-9{stroke-width:2px;}.cls-8{stroke:#ffa767;}.cls-9{stroke:#279fe3;}.cls-10{stroke:#0fd977;}.cls-11{stroke:#878fa8;}.cls-11,.cls-21{opacity:0.7;}.cls-12{stroke:gray;stroke-width:0.5px;}.cls-13,.cls-15,.cls-17,.cls-20,.cls-21{font-size:24px;font-family:Pretendard-Medium-KSCpc-EUC-H, Pretendard;}.cls-14{font-size:12px;fill:#727171;font-family:Pretendard-Light-KSCpc-EUC-H, Pretendard;}.cls-16{letter-spacing:-0.02em;}.cls-18{letter-spacing:0.01em;}.cls-19{letter-spacing:-0.01em;}.cls-21{fill:#2e3341;}.cls-22{fill:gray;}</style></defs><title>자산 53</title><g id="레이어_2" data-name="레이어 2"><g id="레이어_1-2" data-name="레이어 1"><text class="cls-1" transform="translate(215.27 124.77)">12</text><path class="cls-2" d="M198,157,184.75,170.2a90.5,90.5,0,0,0,40.71,23.52l4.86-18.13A71.7,71.7,0,0,1,198,157Z"/><path class="cls-3" d="M179.36,124.63l-18.12,4.86a90.39,90.39,0,0,0,23.51,40.71L198,157A71.71,71.71,0,0,1,179.36,124.63Z"/><path class="cls-4" d="M184.75,41.76,198,55a72.08,72.08,0,1,1,32.31,120.58l-4.86,18.13a90.83,90.83,0,1,0-40.71-152Z"/><path class="cls-5" d="M198,55,184.75,41.76a90.39,90.39,0,0,0-23.51,40.71l18.12,4.85A71.68,71.68,0,0,1,198,55Z"/><path class="cls-6" d="M179.36,87.32l-18.12-4.85a91.2,91.2,0,0,0,0,47l18.12-4.86A72.39,72.39,0,0,1,179.36,87.32Z"/><path class="cls-7" d="M147.56,78.8a105.43,105.43,0,0,0,0,54.35"/><path class="cls-8" d="M174.74,31.75A104.5,104.5,0,0,0,147.56,78.8"/><path class="cls-9" d="M147.56,133.15a104.53,104.53,0,0,0,27.18,47.06h0"/><path class="cls-10" d="M221.8,207.39A105,105,0,1,0,174.74,31.75"/><path class="cls-11" d="M174.74,180.21a104.53,104.53,0,0,0,47.06,27.18"/><line class="cls-12" x1="353.95" y1="105.98" x2="497.95" y2="105.98"/><line class="cls-12" y1="53.41" x2="158.16" y2="53.41"/><line class="cls-12" y1="106.14" x2="144" y2="106.14"/><line class="cls-12" y1="158.67" x2="158.16" y2="158.67"/><polyline class="cls-12" points="196.54 196.8 188.22 211.2 0 211.2"/><text class="cls-13" transform="translate(0 45.41)">1</text><text class="cls-14" transform="translate(0 69.41)">New</text><text class="cls-15" transform="translate(0 98.14)">1</text><text class="cls-14" transform="translate(0 122.14)">In P<tspan class="cls-16" x="19.45" y="0">r</tspan><tspan x="23.26" y="0">og</tspan><tspan class="cls-16" x="36.81" y="0">r</tspan><tspan x="40.62" y="0">ess</tspan></text><text class="cls-17" transform="translate(483.12 98.14)">8</text><text class="cls-14" transform="translate(405.42 122.14)">Cannot Comp<tspan class="cls-18" x="73.04" y="0">l</tspan><tspan x="75.7" y="0">a</tspan><tspan class="cls-19" x="82.02" y="0">t</tspan><tspan x="85.95" y="0">e</tspan></text><text class="cls-20" transform="translate(0 150.67)">1</text><text class="cls-14" transform="translate(0 174.67)">Comp<tspan class="cls-18" x="31.68" y="0">l</tspan><tspan x="34.34" y="0">a</tspan><tspan class="cls-19" x="40.65" y="0">t</tspan><tspan x="44.58" y="0">e</tspan></text><text class="cls-21" transform="translate(0 203.2)">1</text><text class="cls-14" transform="translate(0 227.2)">Closed</text><circle class="cls-22" cx="158.16" cy="53.41" r="2"/><circle class="cls-22" cx="144" cy="106.14" r="2"/><circle class="cls-22" cx="158.01" cy="158.67" r="2"/><circle class="cls-22" cx="196.54" cy="196.8" r="2"/><circle class="cls-22" cx="353.95" cy="105.98" r="2"/></g></g></svg>