<svg xmlns="http://www.w3.org/2000/svg" width="525.74" height="102.88" viewBox="0 0 525.74 102.88"><defs><style>.cls-1{fill:#f5f7fb;}.cls-2{fill:#fff;}.cls-3{fill:#d2d8e5;}.cls-4{fill:#0fd977;}.cls-5,.cls-6{fill:none;stroke:#d2d8e5;stroke-miterlimit:10;}.cls-6{stroke-width:0.5px;}.cls-7{font-size:9px;fill:#727171;font-family:Pretendard-Light-KSCpc-EUC-H, Pretendard;}.cls-8{letter-spacing:-0.03em;}</style></defs><title>자산 59</title><g id="레이어_2" data-name="레이어 2"><g id="레이어_1-2" data-name="레이어 1"><rect class="cls-1" x="22.3" y="55.87" width="503.44" height="25.93"/><rect class="cls-2" x="22.3" y="29.93" width="503.44" height="25.93"/><rect class="cls-1" x="22.3" y="4" width="503.44" height="25.93"/><rect class="cls-3" x="22.3" y="4" width="4.19" height="77.8"/><rect class="cls-4" x="22.3" y="64" width="4.19" height="17.8"/><rect class="cls-4" x="30" y="34.64" width="5.46" height="47.16"/><rect class="cls-4" x="38.33" y="43.03" width="5.46" height="38.77"/><rect class="cls-4" x="46.66" y="74.93" width="5.46" height="6.86"/><rect class="cls-4" x="55" y="38.07" width="5.46" height="43.73"/><rect class="cls-4" x="63.33" y="59.93" width="5.46" height="21.86"/><rect class="cls-4" x="71.66" y="47.35" width="5.46" height="34.45"/><rect class="cls-4" x="79.99" y="58.79" width="5.46" height="23.01"/><rect class="cls-4" x="88.32" y="74.17" width="5.46" height="7.63"/><rect class="cls-4" x="96.66" y="36.67" width="5.46" height="45.13"/><rect class="cls-4" x="104.99" y="58.79" width="5.46" height="23.01"/><rect class="cls-4" x="113.32" y="51.67" width="5.46" height="30.13"/><rect class="cls-4" x="121.65" y="58.22" width="5.46" height="23.58"/><rect class="cls-4" x="129.99" y="68.2" width="5.46" height="13.6"/><rect class="cls-4" x="138.32" y="28.53" width="5.46" height="53.26"/><rect class="cls-4" x="146.65" y="60.82" width="5.46" height="20.97"/><rect class="cls-4" x="154.98" y="47.35" width="5.46" height="34.45"/><rect class="cls-4" x="163.32" y="54.21" width="5.46" height="27.59"/><rect class="cls-4" x="171.65" y="74.17" width="5.46" height="7.63"/><rect class="cls-4" x="179.98" y="34.64" width="5.46" height="47.16"/><rect class="cls-4" x="188.31" y="57.26" width="5.46" height="24.53"/><rect class="cls-4" x="196.65" y="50.53" width="5.46" height="31.27"/><rect class="cls-4" x="204.98" y="54.21" width="5.46" height="27.59"/><rect class="cls-4" x="213.31" y="74.17" width="5.46" height="7.63"/><rect class="cls-4" x="221.64" y="29.04" width="5.46" height="52.76"/><rect class="cls-4" x="229.98" y="62.92" width="5.46" height="18.88"/><rect class="cls-4" x="238.31" y="48.05" width="5.46" height="33.75"/><rect class="cls-4" x="246.64" y="54.21" width="5.46" height="27.59"/><rect class="cls-4" x="254.97" y="69.53" width="5.46" height="12.27"/><rect class="cls-4" x="263.31" y="27.84" width="5.46" height="53.96"/><rect class="cls-4" x="271.64" y="60.82" width="5.46" height="20.97"/><rect class="cls-4" x="279.97" y="37.56" width="5.46" height="44.24"/><rect class="cls-4" x="288.3" y="57.26" width="5.46" height="24.53"/><rect class="cls-4" x="296.63" y="71.31" width="5.46" height="10.49"/><rect class="cls-4" x="304.97" y="22.31" width="5.46" height="59.49"/><rect class="cls-4" x="313.3" y="54.82" width="5.46" height="26.98"/><rect class="cls-4" x="321.63" y="45.38" width="5.46" height="36.42"/><rect class="cls-4" x="329.96" y="58.22" width="5.46" height="23.58"/><rect class="cls-4" x="338.3" y="72.36" width="5.46" height="9.44"/><rect class="cls-4" x="346.63" y="34.64" width="5.46" height="47.16"/><rect class="cls-4" x="354.96" y="60.82" width="5.46" height="20.97"/><rect class="cls-4" x="363.29" y="45.38" width="5.46" height="36.42"/><rect class="cls-4" x="371.63" y="52.05" width="5.46" height="29.75"/><rect class="cls-4" x="379.96" y="66.92" width="5.46" height="14.87"/><rect class="cls-4" x="388.29" y="19.64" width="5.46" height="62.16"/><rect class="cls-4" x="396.62" y="62.16" width="5.46" height="19.64"/><rect class="cls-4" x="404.96" y="34.64" width="5.46" height="47.16"/><rect class="cls-4" x="413.29" y="49.19" width="5.46" height="32.61"/><rect class="cls-4" x="421.62" y="60.82" width="5.46" height="20.97"/><rect class="cls-4" x="429.95" y="22.31" width="5.46" height="59.49"/><rect class="cls-4" x="438.29" y="62.16" width="5.46" height="19.64"/><rect class="cls-4" x="446.62" y="49.19" width="5.46" height="32.61"/><rect class="cls-4" x="454.95" y="46.71" width="5.46" height="35.09"/><rect class="cls-4" x="463.28" y="71.31" width="5.46" height="10.49"/><rect class="cls-4" x="471.62" y="34.64" width="5.46" height="47.16"/><rect class="cls-4" x="479.95" y="59.68" width="5.46" height="22.12"/><rect class="cls-4" x="488.28" y="47.86" width="5.46" height="33.94"/><rect class="cls-4" x="496.61" y="49.19" width="5.46" height="32.61"/><rect class="cls-4" x="504.95" y="68.31" width="5.46" height="13.49"/><rect class="cls-4" x="513.28" y="46.71" width="5.46" height="35.09"/><line class="cls-5" x1="22.3" y1="81.8" x2="525.74" y2="81.8"/><line class="cls-6" x1="70.19" y1="89.8" x2="70.19" y2="4"/><line class="cls-6" x1="195.23" y1="89.8" x2="195.23" y2="4"/><line class="cls-6" x1="320.27" y1="89.8" x2="320.27" y2="4"/><line class="cls-6" x1="445.32" y1="89.8" x2="445.32" y2="4"/><text class="cls-7" transform="translate(59.97 97.61)">16:15</text><text class="cls-7" transform="translate(184.17 97.61)">16:30</text><text class="cls-7" transform="translate(309.21 97.61)">16:45</text><text class="cls-7" transform="translate(434.77 97.61)">1<tspan class="cls-8" x="3.8" y="0">7</tspan><tspan x="8.38" y="0">:00</tspan></text><text class="cls-7" transform="translate(9.05 83.95)">0</text><text class="cls-7" transform="translate(3.8 58.82)">50</text><text class="cls-7" transform="translate(0.01 33.7)">100</text><text class="cls-7" transform="translate(0 8.57)">150</text></g></g></svg>