<svg xmlns="http://www.w3.org/2000/svg" width="650.03" height="148.3" viewBox="0 0 650.03 148.3"><defs><style>.cls-1{fill:#f5f7fb;}.cls-2{fill:#fff;}.cls-14,.cls-3{fill:none;stroke-miterlimit:10;}.cls-3{stroke:#d2d8e5;}.cls-12,.cls-4{font-size:7px;}.cls-12,.cls-16,.cls-4{fill:#727171;font-family:Pretendard-Light-KSCpc-EUC-H, Pretendard;}.cls-5{letter-spacing:-0.03em;}.cls-6{letter-spacing:-0.01em;}.cls-7{letter-spacing:-0.04em;}.cls-8{letter-spacing:-0.03em;}.cls-9{letter-spacing:-0.03em;}.cls-10{letter-spacing:0em;}.cls-11{letter-spacing:0em;}.cls-12{letter-spacing:-0.03em;}.cls-13{letter-spacing:-0.03em;}.cls-14{stroke:#279fe3;}.cls-15,.cls-20{fill:#279fe3;}.cls-16{font-size:8px;}.cls-17{letter-spacing:-0.02em;}.cls-18{letter-spacing:-0.02em;}.cls-19{letter-spacing:-0.01em;}.cls-20{opacity:0.1;}</style></defs><title>자산 50</title><g id="레이어_2" data-name="레이어 2"><g id="레이어_1-2" data-name="레이어 1"><rect class="cls-1" x="20.04" y="15.75" width="616" height="11.2"/><rect class="cls-2" x="20.04" y="26.95" width="616" height="11.2"/><rect class="cls-1" x="20.04" y="38.15" width="616" height="11.2"/><rect class="cls-2" x="20.04" y="49.35" width="616" height="11.2"/><rect class="cls-1" x="20.04" y="60.55" width="616" height="11.2"/><rect class="cls-2" x="20.04" y="71.75" width="616" height="11.2"/><rect class="cls-1" x="20.04" y="82.95" width="616" height="11.2"/><rect class="cls-2" x="20.04" y="94.15" width="616" height="11.2"/><rect class="cls-1" x="20.04" y="105.35" width="616" height="11.2"/><rect class="cls-2" x="20.04" y="116.55" width="616" height="11.2"/><polyline class="cls-3" points="636.04 127.75 20.04 127.75 20.04 31.75"/><line class="cls-3" x1="20.04" y1="127.75" x2="20.04" y2="15.75"/><line class="cls-3" x1="52.46" y1="127.75" x2="52.46" y2="15.75"/><line class="cls-3" x1="84.88" y1="127.75" x2="84.88" y2="15.75"/><line class="cls-3" x1="117.3" y1="127.75" x2="117.3" y2="15.75"/><line class="cls-3" x1="149.72" y1="127.75" x2="149.72" y2="15.75"/><line class="cls-3" x1="182.14" y1="127.75" x2="182.14" y2="15.75"/><line class="cls-3" x1="214.56" y1="127.75" x2="214.56" y2="15.75"/><line class="cls-3" x1="246.98" y1="127.75" x2="246.98" y2="15.75"/><line class="cls-3" x1="279.4" y1="127.75" x2="279.4" y2="15.75"/><line class="cls-3" x1="311.82" y1="127.75" x2="311.82" y2="15.75"/><line class="cls-3" x1="344.24" y1="127.75" x2="344.24" y2="15.75"/><line class="cls-3" x1="376.66" y1="127.75" x2="376.66" y2="15.75"/><line class="cls-3" x1="409.08" y1="127.75" x2="409.08" y2="15.75"/><line class="cls-3" x1="441.5" y1="127.75" x2="441.5" y2="15.75"/><line class="cls-3" x1="473.92" y1="127.75" x2="473.92" y2="15.75"/><line class="cls-3" x1="506.34" y1="127.75" x2="506.34" y2="15.75"/><line class="cls-3" x1="538.76" y1="127.75" x2="538.76" y2="15.75"/><line class="cls-3" x1="571.18" y1="127.75" x2="571.18" y2="15.75"/><line class="cls-3" x1="603.6" y1="127.75" x2="603.6" y2="15.75"/><line class="cls-3" x1="636.02" y1="127.75" x2="636.02" y2="15.75"/><text class="cls-4" transform="translate(6.47 144.2)">03:31:00</text><text class="cls-4" transform="translate(38.3 144.2)">03:32:00</text><text class="cls-4" transform="translate(70.65 144.2)">03:33:00</text><text class="cls-4" transform="translate(103.07 144.2)">03:34:00</text><text class="cls-4" transform="translate(135.57 144.2)">03:35:00</text><text class="cls-4" transform="translate(167.94 144.2)">03:36:00</text><text class="cls-4" transform="translate(200.67 144.2)">03:3<tspan class="cls-5" x="14.31" y="0">7</tspan><tspan x="17.88" y="0">:00</tspan></text><text class="cls-4" transform="translate(232.77 144.2)">03:38:00</text><text class="cls-4" transform="translate(265.19 144.2)">03:39:00</text><text class="cls-4" transform="translate(297.67 144.2)">03:40:00</text><text class="cls-4" transform="translate(330.68 144.2)">03:<tspan class="cls-6" x="10.06" y="0">4</tspan><tspan x="14.25" y="0">1:00</tspan></text><text class="cls-4" transform="translate(362.48 144.2)">03:42:00</text><text class="cls-4" transform="translate(394.83 144.2)">03:43:00</text><text class="cls-4" transform="translate(427.25 144.2)">03:44:00</text><text class="cls-4" transform="translate(459.75 144.2)">03:45:00</text><text class="cls-4" transform="translate(492.12 144.2)">03:46:00</text><text class="cls-4" transform="translate(524.85 144.2)">03:4<tspan class="cls-5" x="14.31" y="0">7</tspan><tspan x="17.88" y="0">:00</tspan></text><text class="cls-4" transform="translate(556.95 144.2)">03:48:00</text><text class="cls-4" transform="translate(589.37 144.2)">03:49:00</text><text class="cls-4" transform="translate(621.93 144.2)">03:50:00</text><text class="cls-4" transform="translate(1.6 130.17)">-<tspan class="cls-7" x="2.97" y="0">1</tspan><tspan class="cls-8" x="5.64" y="0">.</tspan><tspan x="7.15" y="0">0</tspan></text><text class="cls-4" transform="translate(0.23 119.02)">-<tspan class="cls-8" x="2.97" y="0">0</tspan><tspan class="cls-9" x="6.85" y="0">.</tspan><tspan class="cls-10" x="8.39" y="0">8</tspan></text><text class="cls-4" transform="translate(0.26 107.88)">-<tspan class="cls-8" x="2.97" y="0">0.</tspan><tspan x="8.37" y="0">6</tspan></text><text class="cls-4" transform="translate(0 96.73)">-<tspan class="cls-8" x="2.97" y="0">0</tspan><tspan class="cls-11" x="6.85" y="0">.4</tspan></text><text class="cls-4" transform="translate(0.14 85.59)">-<tspan class="cls-8" x="2.97" y="0">0</tspan><tspan class="cls-11" x="6.85" y="0">.2</tspan></text><text class="cls-4" transform="translate(8.75 74.45)">0</text><text class="cls-12" transform="translate(3.11 63.3)">0<tspan class="cls-10" x="3.88" y="0">.2</tspan></text><text class="cls-12" transform="translate(2.97 52.16)">0<tspan class="cls-10" x="3.88" y="0">.4</tspan></text><text class="cls-4" transform="translate(3.24 41.01)"><tspan class="cls-8">0.</tspan><tspan x="5.39" y="0">6</tspan></text><text class="cls-12" transform="translate(3.21 29.87)">0<tspan class="cls-13" x="3.88" y="0">.</tspan><tspan class="cls-11" x="5.42" y="0">8</tspan></text><text class="cls-4" transform="translate(4.57 18.72)"><tspan class="cls-7">1</tspan><tspan class="cls-8" x="2.66" y="0">.</tspan><tspan x="4.18" y="0">0</tspan></text><line class="cls-14" x1="20.04" y1="71.75" x2="635.98" y2="71.75"/><circle class="cls-2" cx="20.04" cy="71.75" r="3.5"/><path class="cls-15" d="M20,70.25a1.5,1.5,0,1,1-1.5,1.5,1.5,1.5,0,0,1,1.5-1.5m0-2a3.5,3.5,0,1,0,3.5,3.5,3.5,3.5,0,0,0-3.5-3.5Z"/><circle class="cls-2" cx="52.46" cy="71.75" r="3.5"/><path class="cls-15" d="M52.46,70.25a1.5,1.5,0,1,1-1.5,1.5,1.5,1.5,0,0,1,1.5-1.5m0-2a3.5,3.5,0,1,0,3.5,3.5,3.5,3.5,0,0,0-3.5-3.5Z"/><circle class="cls-2" cx="84.88" cy="71.75" r="3.5"/><path class="cls-15" d="M84.88,70.25a1.5,1.5,0,1,1-1.5,1.5,1.5,1.5,0,0,1,1.5-1.5m0-2a3.5,3.5,0,1,0,3.5,3.5,3.5,3.5,0,0,0-3.5-3.5Z"/><circle class="cls-2" cx="117.29" cy="71.75" r="3.5"/><path class="cls-15" d="M117.29,70.25a1.5,1.5,0,1,1-1.5,1.5,1.5,1.5,0,0,1,1.5-1.5m0-2a3.5,3.5,0,1,0,3.5,3.5,3.5,3.5,0,0,0-3.5-3.5Z"/><circle class="cls-2" cx="149.71" cy="71.75" r="3.5"/><path class="cls-15" d="M149.71,70.25a1.5,1.5,0,1,1-1.5,1.5,1.5,1.5,0,0,1,1.5-1.5m0-2a3.5,3.5,0,1,0,3.5,3.5,3.5,3.5,0,0,0-3.5-3.5Z"/><circle class="cls-2" cx="182.13" cy="71.75" r="3.5"/><path class="cls-15" d="M182.13,70.25a1.5,1.5,0,1,1-1.5,1.5,1.5,1.5,0,0,1,1.5-1.5m0-2a3.5,3.5,0,1,0,3.5,3.5,3.5,3.5,0,0,0-3.5-3.5Z"/><circle class="cls-2" cx="214.55" cy="71.75" r="3.5"/><path class="cls-15" d="M214.55,70.25a1.5,1.5,0,1,1-1.5,1.5,1.5,1.5,0,0,1,1.5-1.5m0-2a3.5,3.5,0,1,0,3.5,3.5,3.5,3.5,0,0,0-3.5-3.5Z"/><circle class="cls-2" cx="246.97" cy="71.75" r="3.5"/><path class="cls-15" d="M247,70.25a1.5,1.5,0,1,1-1.5,1.5,1.5,1.5,0,0,1,1.5-1.5m0-2a3.5,3.5,0,1,0,3.5,3.5,3.5,3.5,0,0,0-3.5-3.5Z"/><circle class="cls-2" cx="279.38" cy="71.75" r="3.5"/><path class="cls-15" d="M279.38,70.25a1.5,1.5,0,1,1-1.5,1.5,1.5,1.5,0,0,1,1.5-1.5m0-2a3.5,3.5,0,1,0,3.5,3.5,3.5,3.5,0,0,0-3.5-3.5Z"/><circle class="cls-2" cx="311.8" cy="71.75" r="3.5"/><path class="cls-15" d="M311.8,70.25a1.5,1.5,0,1,1-1.5,1.5,1.5,1.5,0,0,1,1.5-1.5m0-2a3.5,3.5,0,1,0,3.5,3.5,3.5,3.5,0,0,0-3.5-3.5Z"/><circle class="cls-2" cx="344.22" cy="71.75" r="3.5"/><path class="cls-15" d="M344.22,70.25a1.5,1.5,0,1,1-1.5,1.5,1.5,1.5,0,0,1,1.5-1.5m0-2a3.5,3.5,0,1,0,3.5,3.5,3.5,3.5,0,0,0-3.5-3.5Z"/><circle class="cls-2" cx="376.64" cy="71.75" r="3.5"/><path class="cls-15" d="M376.64,70.25a1.5,1.5,0,1,1-1.5,1.5,1.5,1.5,0,0,1,1.5-1.5m0-2a3.5,3.5,0,1,0,3.5,3.5,3.5,3.5,0,0,0-3.5-3.5Z"/><circle class="cls-2" cx="409.06" cy="71.75" r="3.5"/><path class="cls-15" d="M409.06,70.25a1.5,1.5,0,1,1-1.5,1.5,1.5,1.5,0,0,1,1.5-1.5m0-2a3.5,3.5,0,1,0,3.5,3.5,3.5,3.5,0,0,0-3.5-3.5Z"/><circle class="cls-2" cx="441.47" cy="71.75" r="3.5"/><path class="cls-15" d="M441.47,70.25a1.5,1.5,0,1,1-1.5,1.5,1.5,1.5,0,0,1,1.5-1.5m0-2a3.5,3.5,0,1,0,3.5,3.5,3.5,3.5,0,0,0-3.5-3.5Z"/><circle class="cls-2" cx="473.89" cy="71.75" r="3.5"/><path class="cls-15" d="M473.89,70.25a1.5,1.5,0,1,1-1.5,1.5,1.5,1.5,0,0,1,1.5-1.5m0-2a3.5,3.5,0,1,0,3.5,3.5,3.5,3.5,0,0,0-3.5-3.5Z"/><circle class="cls-2" cx="506.31" cy="71.75" r="3.5"/><path class="cls-15" d="M506.31,70.25a1.5,1.5,0,1,1-1.5,1.5,1.5,1.5,0,0,1,1.5-1.5m0-2a3.5,3.5,0,1,0,3.5,3.5,3.5,3.5,0,0,0-3.5-3.5Z"/><circle class="cls-2" cx="538.73" cy="71.75" r="3.5"/><path class="cls-15" d="M538.73,70.25a1.5,1.5,0,1,1-1.5,1.5,1.5,1.5,0,0,1,1.5-1.5m0-2a3.5,3.5,0,1,0,3.5,3.5,3.5,3.5,0,0,0-3.5-3.5Z"/><circle class="cls-2" cx="571.15" cy="71.75" r="3.5"/><path class="cls-15" d="M571.15,70.25a1.5,1.5,0,1,1-1.5,1.5,1.5,1.5,0,0,1,1.5-1.5m0-2a3.5,3.5,0,1,0,3.5,3.5,3.5,3.5,0,0,0-3.5-3.5Z"/><circle class="cls-2" cx="603.56" cy="71.75" r="3.5"/><path class="cls-15" d="M603.56,70.25a1.5,1.5,0,1,1-1.5,1.5,1.5,1.5,0,0,1,1.5-1.5m0-2a3.5,3.5,0,1,0,3.5,3.5,3.5,3.5,0,0,0-3.5-3.5Z"/><circle class="cls-2" cx="635.98" cy="71.75" r="3.5"/><path class="cls-15" d="M636,70.25a1.5,1.5,0,1,1-1.5,1.5,1.5,1.5,0,0,1,1.5-1.5m0-2a3.5,3.5,0,1,0,3.5,3.5,3.5,3.5,0,0,0-3.5-3.5Z"/><text class="cls-16" transform="translate(479.79 7.66)">726d6d1c<tspan class="cls-17" x="35.54" y="0">-</tspan><tspan class="cls-18" x="38.76" y="0">7</tspan><tspan x="42.98" y="0">04b</tspan><tspan class="cls-19" x="57.17" y="0">-</tspan><tspan x="60.49" y="0">4987-b09b-0881f84c6571</tspan></text><rect class="cls-20" x="455.8" y="0.5" width="16" height="8"/><rect class="cls-14" x="455.8" y="0.5" width="16" height="8"/></g></g></svg>